<?xml version="1.0" standalone="no"?>
<!DOCTYPE svg PUBLIC "-//W3C//DTD SVG 20010904//EN"
 "http://www.w3.org/TR/2001/REC-SVG-20010904/DTD/svg10.dtd">
<svg version="1.0" xmlns="http://www.w3.org/2000/svg"
 width="2688.000000pt" height="1536.000000pt" viewBox="0 0 2688.000000 1536.000000"
 preserveAspectRatio="xMidYMid meet">

<g transform="translate(0.000000,1536.000000) scale(0.100000,-0.100000)"
fill="#000000" stroke="none">
<path d="M0 7680 l0 -7680 13440 0 13440 0 0 7680 0 7680 -13440 0 -13440 0 0
-7680z m13579 6783 c33 -84 194 -365 309 -538 171 -256 357 -497 529 -680 293
-313 433 -435 783 -683 403 -287 925 -571 1420 -773 200 -82 231 -92 281 -91
50 2 63 -2 110 -35 68 -45 199 -145 354 -267 66 -52 181 -131 255 -176 74 -44
142 -85 150 -90 12 -8 4 -20 -43 -66 -43 -41 -61 -54 -67 -44 -4 7 -13 10 -19
6 -7 -5 -9 -1 -5 8 3 9 10 14 14 11 5 -3 8 7 7 22 -2 23 -17 34 -127 92 -245
130 -581 351 -659 435 -14 14 -30 26 -37 26 -7 0 -113 33 -236 74 -194 64
-316 98 -497 137 -59 13 -360 164 -536 269 -196 117 -314 190 -320 200 -3 5
19 -1 47 -12 82 -31 97 -32 49 -4 -23 14 -45 26 -48 26 -9 0 -227 153 -298
209 -64 51 -221 183 -304 256 -229 200 -541 563 -806 935 -86 122 -238 376
-316 533 l-40 78 -40 -78 c-68 -129 -145 -256 -215 -355 -138 -195 -174 -241
-175 -222 0 18 -1 18 -12 -1 -7 -10 -43 -52 -81 -92 -76 -80 -149 -179 -304
-409 -129 -194 -190 -268 -348 -431 -152 -154 -253 -237 -464 -378 -243 -161
-630 -382 -720 -410 -14 -4 -83 -37 -153 -72 -158 -79 -316 -144 -430 -177
-48 -14 -126 -37 -173 -51 -149 -43 -331 -65 -346 -42 -5 9 -10 9 -18 1 -9 -9
2 -27 42 -72 64 -72 95 -122 76 -122 -7 0 -26 22 -42 49 -16 27 -49 71 -73 96
l-43 47 -28 -18 c-30 -19 -61 -44 -202 -157 -139 -111 -233 -189 -249 -204
-20 -21 -159 -113 -169 -113 -4 0 -21 -13 -37 -30 l-29 -30 48 -127 c76 -203
104 -313 117 -458 25 -277 -20 -650 -95 -790 -9 -16 -16 -35 -16 -41 0 -15
-71 -90 -92 -97 -12 -4 -18 -1 -18 8 0 24 -19 17 -32 -10 -6 -14 -15 -25 -20
-25 -4 0 -8 -9 -8 -19 0 -11 -4 -22 -9 -26 -6 -3 -1 27 10 67 66 238 104 442
119 644 10 123 9 183 -4 346 -15 184 -49 370 -74 402 -5 6 -17 43 -27 81 -10
39 -24 77 -32 86 -12 15 -11 17 12 23 29 7 298 188 425 285 87 67 197 155 308
248 66 56 82 62 102 38 19 -22 46 -19 187 24 361 112 754 299 1237 591 465
281 832 558 1155 874 211 207 464 510 586 701 91 143 194 321 268 465 69 133
103 187 113 177 1 -1 12 -26 23 -54z m-26 -690 c-3 -7 0 -13 7 -13 10 0 10 -3
0 -15 -7 -8 -18 -15 -24 -14 -7 0 -6 2 2 6 6 2 12 9 12 14 0 6 -4 8 -8 5 -5
-3 -6 9 -4 26 3 19 7 26 12 17 5 -7 6 -18 3 -26z m-13 -63 c-8 -5 -10 -10 -4
-10 6 0 14 -16 17 -35 3 -20 25 -70 49 -113 43 -78 70 -132 64 -132 -16 0
-126 198 -126 227 -1 10 -7 2 -14 -19 -26 -72 -119 -204 -329 -467 -69 -87
-408 -453 -438 -474 -9 -7 -41 -34 -72 -62 -94 -85 -146 -127 -263 -210 -322
-228 -433 -301 -506 -331 -43 -19 -81 -33 -83 -33 -3 0 -29 -11 -58 -24 -48
-23 -88 -39 -94 -38 -5 1 -147 -75 -206 -110 -84 -50 -149 -87 -177 -101 -13
-7 -34 -22 -46 -33 -42 -39 -475 -275 -504 -275 -6 0 -31 -15 -57 -34 -45 -31
-107 -66 -118 -66 -3 0 -26 -12 -51 -25 -26 -14 -53 -25 -61 -25 -8 0 -28 -7
-45 -16 -41 -21 -73 -24 -127 -13 -24 6 -47 6 -50 2 -3 -5 -13 -8 -21 -8 -8 1
-25 -4 -37 -12 -13 -7 -23 -12 -23 -9 0 2 -19 -14 -42 -35 -29 -27 -49 -38
-62 -35 -11 3 -26 0 -33 -6 -10 -8 -12 -7 -8 3 11 28 206 129 307 159 162 48
254 92 493 232 33 19 83 48 110 63 93 52 200 111 265 147 36 20 103 58 150 85
47 28 155 91 240 140 228 132 244 142 443 270 249 160 489 330 693 489 52 41
101 74 108 74 7 0 21 9 31 20 10 11 22 17 28 13 6 -3 7 -1 3 5 -3 6 1 17 9 24
34 28 41 33 52 35 30 6 219 220 245 278 6 14 16 25 21 25 6 0 7 3 4 6 -7 7 29
80 51 102 6 7 12 17 12 22 0 5 6 15 13 22 17 18 77 107 77 114 0 11 28 33 34
27 5 -6 10 20 7 40 0 4 2 6 7 6 24 -4 34 2 24 14 -8 10 -6 13 9 14 12 1 17 -3
13 -9 -4 -7 -2 -8 4 -4 6 4 8 14 5 23 -4 11 -3 14 5 9 8 -4 10 -2 6 8 -3 9 3
19 16 26 15 8 20 8 16 1 -4 -7 -1 -9 8 -5 12 4 13 11 6 24 -10 18 -4 30 14 30
6 0 4 -5 -4 -10z m117 -624 c24 -33 41 -67 38 -74 -2 -7 -1 -11 4 -8 12 8 29
-16 26 -36 -2 -10 2 -16 8 -15 7 1 11 -5 9 -13 -2 -8 0 -12 4 -7 9 9 44 -21
44 -38 0 -7 10 -25 22 -41 13 -15 21 -36 20 -46 -2 -11 3 -18 12 -18 9 0 16
-5 16 -11 0 -5 -5 -7 -12 -3 -7 4 -8 3 -4 -4 4 -6 14 -8 23 -5 12 5 15 2 10
-10 -4 -12 -2 -14 10 -10 11 4 14 2 9 -5 -4 -7 -3 -12 3 -12 5 0 22 -13 38
-30 15 -16 33 -30 38 -30 13 0 145 -138 145 -151 0 -6 -7 -4 -15 5 -9 8 -23
12 -32 9 -12 -5 -15 -2 -10 10 3 9 2 19 -3 22 -6 4 -10 -5 -10 -19 0 -25 36
-60 52 -50 4 3 5 -1 2 -9 -3 -8 9 -26 28 -42 18 -15 56 -48 83 -74 173 -161
316 -272 470 -365 44 -27 96 -59 115 -71 193 -121 508 -305 524 -305 2 0 70
-38 152 -84 82 -46 188 -103 234 -127 47 -24 118 -62 158 -85 62 -35 70 -43
57 -54 -23 -19 -19 -25 30 -51 25 -13 45 -27 45 -31 0 -4 7 -5 15 -2 9 4 16
-3 21 -20 3 -14 9 -25 13 -24 14 4 51 -14 51 -24 0 -6 3 -8 7 -5 7 8 33 -11
33 -25 0 -5 -4 -7 -9 -3 -5 3 -12 1 -16 -4 -3 -6 8 -14 25 -18 l31 -8 -26 -25
c-15 -14 -26 -20 -25 -15 5 25 -2 35 -24 35 -14 0 -28 5 -31 10 -4 6 -11 7
-17 4 -6 -4 -5 -10 3 -15 10 -6 10 -9 2 -9 -7 0 -17 8 -22 18 -6 9 -11 13 -11
9 0 -5 -60 23 -132 61 -73 39 -203 106 -288 150 -85 43 -191 101 -235 127 -44
27 -147 83 -228 126 -159 85 -236 133 -337 214 -36 28 -110 87 -165 130 -55
43 -129 109 -166 147 -59 61 -92 87 -73 56 4 -7 3 -8 -5 -4 -6 4 -9 11 -7 15
5 8 -168 174 -236 226 -51 39 -284 285 -280 296 1 5 -2 8 -8 7 -16 -5 -168
172 -236 275 -35 53 -68 97 -72 97 -4 -1 -34 -36 -67 -78 -141 -181 -402 -478
-441 -502 -13 -8 -24 -18 -24 -23 0 -4 -5 -5 -10 -2 -6 4 -7 12 -3 18 4 7 0 6
-10 -2 -9 -7 -17 -22 -17 -33 0 -10 -4 -16 -10 -13 -13 8 -91 -55 -83 -68 3
-6 1 -7 -4 -4 -13 8 -79 -52 -75 -67 2 -6 0 -8 -3 -4 -4 4 -19 -5 -34 -20 -24
-26 -72 -65 -161 -132 -18 -14 -41 -32 -51 -41 -44 -38 -274 -199 -384 -269
-48 -30 -112 -74 -143 -98 -49 -38 -148 -100 -257 -162 -16 -9 -91 -49 -165
-87 -137 -72 -631 -333 -727 -384 -29 -16 -53 -26 -53 -22 0 3 -9 -2 -20 -12
-19 -17 -19 -17 -7 8 7 15 17 23 27 20 12 -4 12 -3 1 5 -9 7 -24 6 -45 -3 -29
-12 -32 -12 -32 6 0 22 11 25 20 7 4 -7 4 -2 2 11 -3 17 1 25 14 28 12 3 17
11 13 21 -4 13 -3 14 5 4 7 -10 20 -3 56 30 45 42 45 44 21 46 -15 1 -28 -4
-31 -13 -6 -15 -24 -11 -24 5 0 10 57 40 77 40 7 0 13 4 13 9 0 4 30 21 67 37
37 16 113 52 168 80 83 43 305 155 367 185 136 67 263 135 303 162 28 19 88
60 135 91 47 31 94 63 105 71 10 8 25 15 32 15 7 0 13 4 13 10 0 5 11 12 25
16 14 3 25 10 25 14 0 4 36 29 80 56 44 26 80 52 80 56 0 4 6 8 13 8 14 0 312
216 431 311 104 85 430 427 543 571 25 32 50 58 54 58 5 0 8 6 7 13 -2 6 2 11
8 10 6 -1 11 3 11 10 0 13 89 143 104 153 5 3 -8 -23 -29 -58 -21 -34 -44 -73
-51 -85 -23 -43 -2 -23 40 39 23 33 57 78 76 99 34 38 35 38 60 22 14 -10 45
-44 70 -77z m523 -141 c8 -11 0 -7 -18 9 -18 17 -32 33 -32 38 0 9 27 -17 50
-47z m-60 -11 c0 9 5 14 10 11 6 -4 7 -12 3 -18 -4 -7 0 -7 10 1 14 12 16 11
12 -8 -3 -16 -1 -19 8 -12 23 18 47 3 149 -91 198 -184 367 -311 788 -592 363
-242 563 -366 763 -471 66 -35 125 -68 131 -74 17 -17 -19 -12 -71 11 -26 12
-97 41 -156 65 -59 24 -151 67 -205 95 -53 28 -149 78 -212 111 -215 112 -300
165 -515 317 -291 205 -340 247 -580 490 -178 180 -194 198 -157 167 20 -17
22 -18 22 -2z m363 -444 c12 0 77 -62 77 -74 0 -6 -6 -2 -14 9 -8 11 -39 38
-70 60 -31 22 -56 44 -56 49 0 6 13 -2 28 -17 15 -15 31 -27 35 -27z m-388 30
c3 -5 1 -10 -4 -10 -6 0 -11 5 -11 10 0 6 2 10 4 10 3 0 8 -4 11 -10z m-439
-100 c105 -90 426 -388 471 -437 18 -20 30 -40 27 -45 -8 -13 16 -39 30 -31 6
3 3 -2 -6 -13 -16 -18 -15 -19 23 -20 37 0 38 1 17 13 -13 7 -19 12 -14 13 5
0 3 7 -4 15 -7 9 -20 13 -29 10 -13 -5 -14 -4 -3 6 10 11 20 5 52 -26 21 -21
37 -42 34 -47 -3 -5 -1 -7 4 -6 10 3 310 -273 331 -305 9 -14 8 -24 -5 -50
-26 -48 -56 -87 -70 -87 -12 0 -29 28 -25 43 0 4 -7 10 -16 14 -10 3 -34 24
-53 45 -37 42 -63 44 -76 6 -3 -11 -8 -17 -11 -15 -2 3 1 15 7 27 10 19 3 29
-67 102 -43 44 -67 75 -53 68 24 -13 24 -12 10 5 -14 17 -14 18 9 6 18 -10 22
-10 16 -1 -4 7 -2 15 4 19 7 5 -22 43 -81 106 -51 54 -92 102 -90 107 1 4 -2
7 -7 6 -5 -2 -48 33 -97 77 -48 44 -92 79 -96 78 -4 -2 -8 2 -8 8 0 6 -7 9
-15 5 -12 -4 -13 -2 -6 12 8 15 5 18 -17 17 -15 0 -30 -4 -34 -10 -5 -6 -8 -4
-8 5 0 11 -2 12 -8 3 -5 -9 -37 17 -101 81 l-94 94 -41 -21 c-23 -11 -45 -27
-49 -34 -4 -7 -12 -13 -17 -13 -5 0 -26 -12 -47 -26 -40 -27 -58 -43 -33 -29
10 6 8 1 -4 -13 -10 -12 -23 -19 -29 -15 -5 3 -7 1 -3 -5 7 -12 -4 -21 -35
-27 -12 -3 -24 -7 -28 -11 -3 -4 3 -4 14 0 16 6 18 5 7 -6 -7 -7 -18 -13 -25
-13 -7 -1 -11 -7 -9 -14 2 -9 -3 -11 -13 -7 -9 3 -14 2 -11 -3 3 -4 -9 -21
-27 -37 -18 -16 -24 -19 -13 -6 81 96 -174 -132 -343 -308 -24 -25 -59 -69
-78 -97 -19 -29 -39 -53 -43 -53 -5 0 -32 -24 -60 -52 -40 -42 -50 -59 -47
-80 2 -16 1 -28 -3 -28 -11 0 -110 119 -110 132 0 17 189 202 333 326 59 51
167 148 240 215 72 67 177 161 232 208 56 48 123 112 150 142 28 31 53 55 57
54 4 -1 46 -36 94 -77z m516 56 c7 4 8 2 4 -5 -9 -13 -26 -5 -25 12 0 9 2 8 6
-1 2 -6 10 -9 15 -6z m463 -102 c19 -16 19 -16 -5 -9 -31 9 -50 25 -29 25 7 0
23 -8 34 -16z m-813 -578 c103 -104 188 -195 188 -201 0 -6 9 -19 21 -28 11
-10 18 -25 15 -33 -3 -9 -1 -12 4 -9 6 3 10 2 10 -4 0 -6 13 -25 28 -43 25
-29 27 -36 17 -56 -12 -23 -13 -22 -51 30 -46 63 -461 492 -480 496 -8 2 -14
8 -14 13 0 5 -5 9 -11 9 -5 0 -8 -4 -5 -9 7 -11 -22 -23 -35 -15 -5 3 -9 2 -8
-3 3 -20 -2 -34 -11 -28 -5 3 -10 -1 -10 -9 0 -9 -7 -16 -15 -16 -8 0 -15 -7
-15 -15 0 -8 -5 -15 -10 -15 -6 0 -10 -8 -8 -17 2 -10 -2 -17 -9 -16 -8 2 -10
-4 -6 -14 5 -13 2 -15 -12 -9 -11 4 -16 4 -12 0 4 -4 2 -13 -4 -21 -6 -7 -8
-13 -4 -13 4 0 -18 -26 -48 -57 -30 -32 -91 -98 -134 -148 -72 -81 -83 -90
-113 -88 -67 3 -60 16 108 190 89 92 211 220 270 283 l107 115 29 -40 c16 -22
114 -125 218 -229z m608 264 c0 -5 -2 -10 -4 -10 -3 0 -8 5 -11 10 -3 6 -1 10
4 10 6 0 11 -4 11 -10z m41 -37 c13 -16 12 -17 -3 -4 -17 13 -22 21 -14 21 2
0 10 -8 17 -17z m724 -233 c3 -5 1 -10 -4 -10 -6 0 -11 5 -11 10 0 6 2 10 4
10 3 0 8 -4 11 -10z m-2815 -385 c99 -106 144 -178 132 -214 -3 -8 -13 4 -25
30 -11 24 -31 58 -44 74 -42 51 -173 183 -186 188 -9 3 -9 7 1 20 8 10 11 25
7 39 -4 13 10 -2 30 -32 21 -30 59 -77 85 -105z m2016 90 c1 -8 -2 -15 -8 -15
-6 0 -8 6 -5 14 3 7 1 19 -4 25 -6 8 -5 8 3 1 6 -5 13 -17 14 -25z m-2287 8
c-7 -10 -33 -36 -56 -58 -24 -22 -57 -65 -73 -95 -37 -68 -40 -49 -4 23 36 70
59 98 102 124 45 28 48 28 31 6z m2042 -26 c-1 -12 -15 -9 -19 4 -3 6 1 10 8
8 6 -3 11 -8 11 -12z m-2031 -31 c0 -2 -17 -16 -37 -31 l-38 -26 35 30 c34 31
40 35 40 27z m19 -40 c9 -11 7 -15 -9 -19 -16 -4 -19 -2 -11 7 6 7 8 16 4 19
-3 4 -4 7 -1 7 3 0 11 -6 17 -14z m4436 -25 l30 -6 -34 -14 c-29 -13 -35 -13
-45 1 -6 8 -18 17 -26 21 -20 7 37 6 75 -2z m-4219 -36 c1 0 5 -11 9 -25 7
-22 6 -23 -9 -11 -9 7 -16 18 -16 24 0 6 -8 20 -17 31 l-18 21 25 -20 c14 -11
26 -20 26 -20z m458 10 c-4 -8 -1 -15 6 -15 7 0 10 -7 6 -15 -4 -11 1 -15 19
-15 14 0 25 -3 26 -7 4 -46 10 -68 19 -71 5 -2 10 -13 10 -23 0 -11 4 -18 9
-15 10 7 10 25 13 -282 2 -155 -1 -243 -7 -246 -5 -2 -2 -10 8 -18 11 -8 16
-20 11 -31 -9 -25 -23 -21 -18 6 4 15 1 13 -9 -8 l-14 -30 -8 40 c-4 22 -7 55
-6 73 2 18 -2 32 -9 32 -6 0 -11 17 -10 43 0 23 -2 58 -5 77 -6 43 -14 123
-19 210 -2 36 -6 76 -10 88 -6 18 -4 21 11 16 17 -5 17 -5 1 6 -17 10 -27 47
-10 36 4 -2 9 5 9 17 1 12 -1 17 -5 12 -8 -11 -32 -18 -32 -9 0 3 5 15 11 26
6 11 7 18 2 15 -6 -4 -10 12 -11 34 -1 23 -4 45 -7 49 -4 7 1 12 22 19 1 1 0
-6 -3 -14z m3846 -20 c25 -15 25 -15 -10 -9 -19 3 -39 9 -44 15 -16 15 26 10
54 -6z m-4673 -122 c-3 -10 -5 -4 -5 12 0 17 2 24 5 18 2 -7 2 -21 0 -30z
m2387 -9 c3 -8 2 -12 -4 -9 -6 3 -10 10 -10 16 0 14 7 11 14 -7z m-14 -34 c4
-3 5 -20 3 -37 -4 -23 -11 -33 -23 -33 -15 0 -16 5 -7 52 6 29 13 46 15 38 3
-8 8 -17 12 -20z m-4232 11 c11 -7 10 -10 -3 -15 -20 -7 -38 1 -30 15 7 11 16
11 33 0z m4959 -106 c-25 -52 -33 -77 -24 -80 7 -2 71 -6 142 -9 72 -3 147 -9
168 -12 l38 -7 -20 34 c-11 19 -22 52 -26 74 l-7 40 80 -80 c90 -90 120 -115
139 -115 7 0 10 -6 7 -13 -3 -10 4 -12 29 -9 34 4 359 -74 455 -109 192 -70
393 -239 447 -375 11 -26 11 -34 3 -23 -7 8 -21 18 -30 22 -18 7 -18 6 7 -83
8 -30 18 -71 21 -90 3 -19 7 -37 9 -40 2 -3 0 -12 -6 -20 -7 -12 -9 -12 -9 -1
0 7 -9 21 -20 31 -10 9 -24 28 -30 41 -5 13 -28 53 -50 88 -22 34 -40 67 -40
72 0 5 -4 9 -9 9 -5 0 -12 9 -16 19 -6 20 -54 72 -101 109 -16 12 -79 48 -141
78 -122 60 -273 103 -435 124 -108 14 -122 19 -126 49 -3 21 -22 30 -22 11 0
-6 -11 -5 -27 3 -56 29 -69 29 -103 1 -19 -17 -31 -22 -30 -13 4 28 0 37 -17
34 -10 -1 -23 2 -30 7 -7 5 -16 7 -22 4 -5 -3 -11 -1 -13 5 -2 6 -15 13 -28
15 -14 1 -70 10 -124 18 -55 9 -112 16 -128 16 -15 0 -28 5 -28 11 0 6 20 38
44 72 24 34 57 88 72 119 15 32 30 55 32 53 3 -2 -12 -38 -31 -80z m-3277 6
c-11 -22 -49 -51 -64 -51 -6 0 5 16 24 35 37 38 57 46 40 16z m-1237 -55 c-10
-13 -21 -22 -25 -20 -3 2 -8 0 -10 -5 -3 -9 -108 -64 -108 -57 0 9 142 103
158 106 2 0 -5 -11 -15 -24z m5537 -2 c0 -2 -9 0 -20 6 -11 6 -20 13 -20 16 0
2 9 0 20 -6 11 -6 20 -13 20 -16z m-4123 10 c-3 -3 -12 -4 -19 -1 -8 3 -5 6 6
6 11 1 17 -2 13 -5z m2358 -300 c-4 -246 -2 -327 11 -412 12 -82 14 -146 9
-286 -4 -100 -6 -192 -6 -205 1 -13 -4 -30 -10 -37 -6 -8 -9 -21 -5 -29 3 -8
1 -25 -3 -37 -7 -18 -10 -19 -14 -8 -10 25 -22 443 -22 724 0 202 -3 266 -12
266 -8 0 -10 7 -6 17 4 11 8 12 11 5 2 -7 8 -12 14 -12 6 0 4 8 -5 18 -10 10
-17 27 -16 38 0 10 3 13 6 7 7 -20 22 -15 20 6 0 11 -6 17 -14 14 -9 -4 -13 4
-12 23 1 17 3 22 6 12 8 -33 23 -18 24 25 1 23 2 51 3 62 1 11 3 41 4 68 1 26
6 47 12 47 6 0 8 -110 5 -306z m1865 302 c0 -3 -4 -8 -10 -11 -5 -3 -10 -1
-10 4 0 6 5 11 10 11 6 0 10 -2 10 -4z m-4295 -16 c-16 -4 -52 -7 -80 -7 l-50
0 50 7 c28 4 64 7 80 7 l30 1 -30 -8z m265 -15 c50 -26 109 -86 167 -172 103
-150 113 -185 15 -50 -69 95 -190 214 -227 223 -14 3 -25 10 -25 16 0 10 31 3
70 -17z m4070 13 c0 -5 5 -6 10 -3 6 3 10 1 10 -4 0 -6 -6 -11 -14 -11 -22 0
-46 11 -41 19 6 11 35 9 35 -1z m-4605 -14 c-25 -10 -77 -46 -72 -51 3 -3 21
0 39 6 47 15 232 31 381 32 119 1 130 -1 170 -24 23 -14 62 -47 87 -72 43 -45
43 -46 13 -31 -29 15 -84 23 -176 25 -21 1 -36 5 -33 10 5 8 -146 6 -219 -3
-16 -2 -38 -4 -47 -5 -10 0 -18 -5 -18 -10 0 -11 59 -33 71 -25 5 3 9 -1 9 -8
0 -8 23 -31 50 -52 28 -21 50 -40 50 -43 0 -5 -8 0 -65 38 -54 36 -142 67
-188 67 -21 0 -41 2 -43 5 -3 3 -20 1 -37 -4 -18 -6 -43 -12 -56 -15 -53 -11
-57 -21 -20 -43 19 -11 39 -21 46 -21 25 0 198 -62 205 -73 4 -7 8 -9 8 -4 0
10 77 -47 135 -101 28 -26 69 -64 93 -84 23 -21 37 -38 31 -38 -5 0 -7 -4 -4
-10 18 -28 -22 -3 -80 51 -132 124 -195 163 -331 200 -122 33 -179 38 -280 23
-163 -24 -351 -81 -396 -119 -34 -29 -146 -85 -169 -85 -24 0 -68 -27 -92 -57
-21 -26 -39 -31 -31 -8 5 11 2 13 -12 8 -13 -5 -15 -3 -10 8 4 8 1 6 -7 -3
-23 -29 -26 -10 -4 33 26 53 175 183 259 225 37 19 163 63 280 99 117 36 245
81 283 100 74 37 177 74 185 67 3 -3 1 -6 -5 -8z m88 9 c-7 -2 -19 -2 -25 0
-7 3 -2 5 12 5 14 0 19 -2 13 -5z m-1983 -36 c0 -2 -17 -19 -37 -38 -20 -18
-31 -25 -23 -14 20 26 60 61 60 52z m7950 -77 c1 10 5 7 12 -8 13 -25 2 -44
-12 -22 -6 8 -10 11 -10 5 1 -15 27 -47 32 -38 3 4 3 2 2 -5 -30 -119 -38
-214 -38 -407 0 -296 35 -527 128 -857 56 -197 57 -204 50 -222 -5 -12 -11
-13 -24 -6 -15 8 -21 6 -29 -7 -10 -17 -12 -16 -30 4 l-19 23 -14 -22 c-14
-20 -15 -19 -37 31 -53 125 -115 368 -146 576 -10 61 -20 193 -24 295 -5 158
-3 199 12 280 17 88 33 161 40 185 2 6 7 26 11 45 5 19 24 68 44 109 32 65 37
71 43 50 4 -13 8 -17 9 -9z m-1280 -46 c0 -2 -13 2 -30 11 -16 9 -30 18 -30
21 0 2 14 -2 30 -11 17 -9 30 -18 30 -21z m855 -10 c50 -5 76 -16 71 -30 -4
-10 1 -11 19 -4 18 7 25 5 29 -7 5 -11 2 -14 -10 -9 -13 5 -15 2 -11 -14 7
-27 -9 -35 -23 -11 -6 12 -16 18 -25 15 -19 -8 -19 -24 0 -24 16 0 19 -28 9
-67 -9 -31 -43 -25 -66 12 -10 16 -34 41 -53 55 -19 14 -33 31 -30 38 2 6 0
12 -5 12 -6 0 -10 7 -10 15 0 8 5 15 11 15 5 0 7 5 3 12 -5 8 2 9 27 3 19 -4
48 -9 64 -11z m-7570 -38 c18 -27 11 -52 -17 -67 -17 -9 -25 -7 -46 14 -28 29
-25 53 10 67 33 13 36 12 53 -14z m2827 -100 c-7 -12 -21 21 -20 49 0 15 3 13
13 -10 7 -16 10 -34 7 -39z m4270 -84 c9 -1 19 2 22 7 3 5 15 7 26 4 19 -5 19
-6 4 -18 -15 -11 -15 -13 5 -27 l22 -16 -20 -14 c-12 -8 -18 -17 -16 -20 3 -3
-3 -8 -13 -10 -25 -7 -113 67 -105 87 3 8 10 15 15 15 6 0 7 -7 4 -16 -3 -8
-2 -12 4 -9 6 3 10 -2 10 -11 0 -14 3 -15 12 -6 8 8 8 15 0 25 -7 8 -9 17 -5
21 4 3 9 3 12 -1 3 -5 14 -9 23 -11z m119 6 c8 -7 13 -12 10 -11 -2 1 -10 -4
-18 -12 -17 -18 -33 -19 -33 -4 0 5 5 7 10 4 6 -3 10 -1 10 4 0 6 -5 11 -11
11 -5 0 -7 5 -4 10 8 13 18 13 36 -2z m-6439 -215 c-16 -27 -34 -63 -41 -81
-8 -18 -16 -31 -18 -28 -11 11 67 156 83 156 2 0 -9 -21 -24 -47z m842 31 c14
-14 22 -34 13 -34 -17 0 -97 34 -97 41 0 15 68 10 84 -7z m4208 -41 c35 -38
41 -70 16 -76 -11 -3 -17 -10 -14 -16 13 -20 -39 -1 -56 21 l-16 22 -49 -24
c-26 -13 -59 -26 -72 -28 -13 -2 -33 -10 -45 -18 -50 -35 -49 0 2 48 31 30 87
58 182 91 24 9 25 8 52 -20z m-5634 -5 c4 -61 12 -93 22 -90 14 3 10 -40 -5
-50 -6 -5 -5 -11 4 -17 12 -8 13 -16 4 -45 -6 -20 -7 -36 -3 -36 10 0 3 -89
-11 -167 -6 -29 -15 -53 -20 -53 -5 0 -8 -8 -7 -17 3 -35 -2 -48 -23 -61 -21
-13 -21 -13 -13 60 10 94 11 169 2 174 -3 2 -5 21 -2 42 2 20 4 73 4 117 1 44
4 94 7 110 5 27 7 28 14 10 7 -20 8 -20 8 1 1 11 4 24 8 27 9 9 10 9 11 -5z
m1677 2 c8 -13 -15 -13 -35 0 -12 8 -11 10 7 10 12 0 25 -4 28 -10z m5355 -79
c0 -6 -7 -11 -15 -11 -9 0 -15 -9 -15 -22 -1 -19 -3 -17 -15 11 -18 41 -19 68
-3 73 13 5 48 -33 48 -51z m-7133 -73 c-3 -8 -6 -5 -6 6 -1 11 2 17 5 13 3 -3
4 -12 1 -19z m2079 -8 c19 0 34 -4 34 -9 0 -17 -74 -10 -92 9 -20 21 -12 35 9
15 8 -8 30 -15 49 -15z m64 15 c0 -8 -4 -15 -9 -15 -5 0 -14 7 -21 15 -10 13
-9 15 9 15 12 0 21 -6 21 -15z m55 -23 c-3 -3 -11 0 -18 7 -9 10 -8 11 6 5 10
-3 15 -9 12 -12z m2995 -9 c21 -10 30 -22 30 -39 0 -31 -20 -31 -50 0 -12 14
-35 28 -50 31 -16 3 -31 13 -34 21 -5 13 1 15 34 9 23 -4 54 -14 70 -22z
m-5193 -30 c-3 -10 -5 -4 -5 12 0 17 2 24 5 18 2 -7 2 -21 0 -30z m2558 -1
c52 -26 115 -85 115 -106 0 -15 -2 -15 -22 -2 -21 13 -79 28 -164 43 -49 8
-107 -13 -121 -44 -7 -15 -13 -34 -13 -42 0 -13 -2 -14 -9 -2 -8 13 -6 123 4
149 13 37 142 40 210 4z m-2546 -69 c0 -5 -4 -17 -9 -28 -8 -18 -9 -17 -9 8
-1 15 4 27 9 27 6 0 10 -3 9 -7z m3818 -226 c103 -234 201 -398 342 -575 66
-83 157 -228 167 -269 3 -12 -1 -29 -11 -40 -9 -10 -24 -29 -34 -42 -26 -35
-50 -22 -156 83 -131 131 -264 301 -330 423 -15 29 -32 50 -36 47 -5 -3 -9 23
-9 57 0 34 -3 60 -6 56 -4 -3 -13 -47 -20 -97 -18 -120 -39 -165 -111 -234
-61 -58 -195 -157 -217 -160 -13 -2 -203 -150 -222 -172 -6 -8 -13 -11 -16 -9
-3 3 -11 -1 -18 -10 -7 -8 -18 -15 -24 -15 -7 0 -22 -9 -34 -20 -12 -12 -22
-18 -22 -14 0 3 -8 0 -17 -7 -17 -13 16 26 85 98 31 34 40 53 24 53 -4 0 -13
-5 -20 -12 -7 -7 -12 -9 -12 -5 0 4 35 48 78 99 258 307 362 472 472 753 24
61 50 120 58 133 15 23 15 23 29 2 8 -11 35 -66 60 -123z m-2347 -94 c57 -28
173 -133 148 -133 -8 0 -23 9 -33 20 -10 11 -20 18 -23 16 -2 -3 -23 6 -45 20
-63 37 -160 84 -175 84 -7 0 -10 5 -7 10 12 19 81 10 135 -17z m-47 -48 c122
-61 141 -73 322 -209 134 -101 320 -270 373 -339 30 -40 3 -34 -58 11 -36 27
-103 75 -150 107 -136 94 -279 195 -365 258 -98 73 -154 102 -239 123 -36 9
-87 30 -113 47 l-48 31 59 8 c32 4 62 10 65 14 11 11 68 -7 154 -51z m4610 -8
c33 -65 7 -128 -58 -139 -11 -2 -23 -7 -27 -13 -5 -6 -8 -3 -8 6 0 14 -12 10
-66 -18 -58 -30 -156 -95 -190 -127 -38 -35 -193 -135 -219 -142 -17 -4 -38 0
-60 12 -28 15 -32 21 -24 36 9 16 85 80 189 158 19 14 57 44 85 66 117 95 318
210 349 201 5 -2 18 -20 29 -40z m912 27 c13 -5 11 -9 -11 -20 -31 -17 -50
-18 -59 -4 -3 6 4 14 17 19 29 12 33 12 53 5z m-4409 -133 c22 -42 46 -93 53
-113 6 -20 34 -80 61 -134 48 -94 60 -134 41 -134 -16 0 -48 52 -85 137 -20
45 -36 84 -36 87 0 3 -24 58 -54 123 -29 65 -57 129 -60 143 -7 24 -6 24 16
-4 13 -16 41 -64 64 -105z m4319 119 c-3 -5 -11 -10 -16 -10 -6 0 -7 5 -4 10
3 6 11 10 16 10 6 0 7 -4 4 -10z m-747 -82 c-7 -19 -38 -22 -38 -4 0 10 9 16
21 16 12 0 19 -5 17 -12z m-5193 -194 c103 -58 280 -177 277 -186 -4 -16 38
-47 55 -41 10 3 15 3 11 -2 -4 -4 -2 -15 5 -23 15 -19 15 -19 -113 39 -97 44
-286 158 -352 213 -28 24 -34 34 -25 44 15 19 48 8 142 -44z m-395 -84 c0 -6
-12 -9 -27 -8 -16 1 -38 -2 -50 -6 -22 -7 -31 3 -16 17 10 11 93 8 93 -3z
m110 -5 c28 -16 24 -18 -40 -15 -59 2 -74 13 -30 21 19 4 37 7 40 7 3 1 16 -5
30 -13z m-240 -17 c0 -19 -31 -48 -52 -48 -25 0 -23 10 9 37 29 25 43 29 43
11z m3471 -107 c30 -14 64 -44 107 -95 86 -104 89 -124 6 -45 -69 66 -143 119
-165 119 -7 0 -32 -11 -56 -25 -23 -14 -43 -23 -43 -18 0 4 -5 2 -12 -5 -14
-14 -58 -16 -58 -3 0 20 116 81 171 90 4 1 26 -8 50 -18z m-3531 -41 c0 -20
-87 -117 -96 -107 -11 11 8 49 43 88 39 43 53 48 53 19z m6676 -57 c-4 -4 -11
-1 -16 7 -16 25 -11 35 7 17 9 -9 13 -20 9 -24z m-3241 -33 c3 -5 1 -10 -4
-10 -6 0 -11 5 -11 10 0 6 2 10 4 10 3 0 8 -4 11 -10z m-10541 -299 c24 -45
71 -78 128 -91 39 -9 254 -11 791 -8 537 2 737 0 737 -8 0 -6 -8 -22 -19 -35
-10 -13 -90 -148 -178 -299 -88 -151 -225 -381 -303 -510 -79 -129 -200 -329
-270 -445 -70 -115 -197 -322 -282 -460 -162 -261 -198 -324 -198 -349 0 -9
14 -18 36 -22 64 -12 1210 14 1300 30 158 27 216 68 281 196 35 67 42 75 70
78 25 3 35 -2 49 -22 20 -32 16 -57 -37 -231 -45 -147 -62 -189 -88 -224 l-19
-25 -1090 -1 c-600 -1 -1096 1 -1103 5 -19 13 -2 57 66 170 34 58 99 173 143
256 68 127 216 383 460 794 27 47 105 180 173 295 262 448 310 528 330 556
l20 29 -325 0 c-350 0 -495 -12 -622 -51 -77 -24 -154 -60 -199 -94 -17 -12
-50 -26 -74 -30 l-44 -7 6 46 c14 96 174 471 206 479 33 9 41 6 55 -22z
m19811 9 c314 -31 592 -31 769 1 64 11 86 7 86 -16 0 -19 -39 -35 -85 -35 -26
0 -39 -7 -59 -32 -15 -18 -39 -46 -56 -63 -44 -46 -80 -138 -93 -240 -7 -59
-11 -331 -11 -790 -1 -603 1 -715 16 -810 22 -147 46 -207 112 -281 54 -60 56
-61 131 -73 69 -12 75 -14 75 -37 l0 -24 -342 0 c-313 -1 -498 -9 -570 -26
-52 -12 -45 20 19 83 50 49 62 68 77 121 31 112 38 345 33 1127 -4 805 -6 823
-57 926 -41 82 -87 117 -198 153 -63 21 -59 41 7 32 25 -3 91 -10 146 -16z
m-12837 -302 c-3 -112 -9 -211 -13 -220 -24 -60 -135 3 -135 77 0 64 -67 80
-316 73 -130 -3 -147 -5 -160 -23 -11 -15 -14 -72 -14 -286 l0 -266 38 -7 c20
-3 119 -6 220 -6 201 0 196 -1 234 69 19 34 52 51 99 51 43 0 49 -26 49 -226
0 -221 -15 -294 -62 -294 -34 0 -65 42 -73 101 -10 80 -13 86 -48 98 -38 14
-308 33 -392 29 l-60 -3 -8 -290 c-11 -427 -4 -469 80 -508 43 -19 65 -22 193
-22 140 0 147 1 199 29 68 35 161 122 161 150 0 12 7 29 14 39 23 30 118 24
130 -9 3 -8 -10 -61 -29 -117 -19 -57 -39 -134 -45 -172 -6 -37 -13 -72 -16
-77 -3 -4 -275 -8 -605 -8 -566 0 -600 1 -597 18 2 10 29 30 65 47 98 48 129
86 153 195 16 74 8 1358 -10 1440 -25 117 -80 179 -178 202 -29 7 -52 16 -52
20 0 10 -53 9 515 12 331 1 503 6 530 13 24 7 54 28 78 54 27 29 42 38 49 31
7 -7 9 -77 6 -214z m-1821 102 c7 -57 19 -137 28 -178 21 -102 20 -147 -5
-172 -26 -26 -42 -25 -89 4 -47 30 -83 79 -83 113 0 21 -10 29 -52 48 -89 41
-264 55 -679 55 l-367 0 0 -315 0 -316 488 3 c341 2 493 6 506 14 11 7 36 45
56 85 l36 74 44 -3 c25 -2 49 -7 54 -12 5 -5 3 -72 -3 -153 -6 -80 -11 -187
-11 -238 0 -52 -4 -100 -9 -107 -9 -14 -61 -19 -79 -8 -6 4 -28 36 -47 71
l-36 63 -72 6 c-40 3 -266 7 -504 9 l-431 4 -7 -111 c-4 -61 -5 -222 -3 -358
l3 -246 25 -28 c45 -48 71 -53 326 -60 269 -7 571 7 651 31 57 17 110 70 173
173 18 30 39 52 49 52 27 0 121 -30 121 -38 0 -4 -15 -44 -34 -89 -19 -44 -42
-109 -52 -144 -9 -35 -28 -85 -41 -111 l-23 -48 -98 -1 c-53 -1 -101 0 -107 1
-5 1 -359 5 -785 9 -678 5 -775 8 -775 21 0 9 23 23 60 36 42 15 66 30 81 52
47 68 49 110 49 857 0 762 -1 779 -55 854 -29 40 -112 90 -172 105 -18 4 -28
13 -28 24 0 17 43 19 793 30 789 13 1000 21 1021 42 6 6 24 10 41 8 l30 -3 12
-105z m10363 96 c0 -8 -9 -52 -20 -97 -10 -45 -24 -127 -30 -183 -17 -152 -20
-166 -34 -166 -15 0 -54 43 -89 99 -13 21 -34 38 -52 43 -16 4 -130 11 -252
14 l-223 7 0 -669 c0 -390 4 -706 10 -758 19 -160 69 -228 179 -240 55 -6 61
-9 61 -30 l0 -22 -357 1 c-348 2 -437 7 -450 27 -9 16 15 26 78 33 63 7 110
31 134 69 9 13 23 62 32 108 13 70 15 182 13 738 -1 360 -5 673 -9 695 l-6 40
-225 0 c-148 0 -239 -5 -265 -13 -22 -6 -66 -34 -98 -62 -37 -32 -68 -50 -84
-50 -24 0 -25 2 -19 41 4 23 23 81 43 128 19 47 48 122 63 166 22 67 30 81 51
84 18 2 33 -7 61 -40 35 -40 41 -43 105 -50 37 -5 319 -8 626 -8 608 -1 590
-3 659 58 31 27 69 49 91 50 4 1 7 -5 7 -13z m-3680 -58 c0 -29 8 -107 16
-173 29 -227 29 -221 4 -228 -30 -8 -56 11 -105 74 -65 84 -78 90 -207 100
-137 10 -374 11 -417 3 l-31 -6 0 -273 c0 -232 2 -274 15 -285 11 -9 78 -14
230 -18 l215 -5 40 28 c22 15 40 32 40 38 0 5 -7 4 -15 -3 -19 -16 -19 -9 -1
35 13 30 20 35 49 35 39 0 81 -38 93 -84 6 -26 -11 -328 -22 -382 -2 -15 -13
-23 -33 -26 -42 -6 -59 6 -85 66 -27 60 -71 101 -126 116 -22 6 -122 12 -222
13 l-183 2 4 -350 c4 -344 4 -350 27 -386 28 -45 79 -67 193 -81 116 -14 332
-5 396 18 62 21 88 44 128 114 58 101 114 128 156 74 23 -29 22 -34 -39 -159
-21 -44 -41 -95 -45 -114 -4 -19 -13 -49 -21 -67 -23 -55 -63 -59 -486 -45
-200 6 -456 11 -569 11 -231 0 -246 4 -235 57 7 31 8 31 67 30 69 -2 81 8 100
78 23 84 26 240 19 891 -7 629 -9 674 -26 710 -28 58 -191 184 -237 184 -18 0
-43 -53 -28 -58 6 -2 11 -10 11 -18 0 -17 -20 -17 -129 -2 -82 11 -84 11 -103
-11 -10 -13 -18 -37 -18 -55 0 -17 -3 -41 -6 -54 -9 -33 -34 -9 -34 34 0 18
-5 45 -11 61 -8 22 -12 25 -20 13 -8 -11 -9 -6 -5 20 4 19 16 45 29 58 l22 24
275 -5 c151 -3 315 -10 363 -15 48 -6 251 -12 450 -13 395 -3 399 -3 469 56
16 14 34 25 39 25 5 0 9 -24 9 -52z m-4325 -1 c62 -32 340 -329 826 -882 247
-281 503 -555 520 -555 8 0 14 465 14 1047 0 283 3 275 -109 334 -47 25 -63
38 -52 42 71 28 414 32 482 7 65 -25 1066 -1056 1174 -1210 l25 -35 6 275 c3
151 12 338 19 415 9 99 9 151 2 178 -10 37 -10 37 19 37 17 0 39 -4 49 -10 17
-9 18 -36 15 -585 -2 -316 -7 -596 -10 -623 -10 -79 -88 -344 -112 -381 -14
-21 -16 -22 -31 -7 -12 11 -18 49 -24 147 -5 81 -14 143 -23 163 -9 17 -59 78
-112 136 -53 58 -167 193 -253 300 -176 219 -257 311 -566 638 -188 199 -305
312 -325 312 -17 0 -53 -201 -70 -390 -8 -80 -12 -335 -11 -705 0 -319 -2
-588 -4 -598 -3 -10 -10 -14 -17 -10 -6 4 -29 6 -52 5 -48 -2 -50 -1 -145 113
-41 49 -140 157 -220 240 -143 148 -365 395 -530 590 -110 129 -360 414 -427
485 l-51 54 -6 -44 c-3 -25 -8 -196 -11 -380 -3 -184 -10 -364 -15 -400 -15
-98 -12 -376 3 -438 29 -108 69 -142 190 -157 41 -5 47 -9 47 -29 0 -23 -2
-23 -147 -30 -193 -9 -402 -9 -436 -1 -43 11 -16 32 50 41 46 5 62 13 92 43
49 49 66 113 85 322 26 270 19 1073 -10 1301 -8 62 -47 119 -126 183 -34 28
-64 59 -66 69 -4 18 4 19 155 14 116 -4 167 -9 188 -21z m9023 11 c122 2 222
1 222 -2 0 -3 -18 -15 -40 -26 -65 -33 -126 -99 -140 -149 -18 -66 -29 -254
-30 -468 l0 -193 559 0 560 0 7 57 c4 32 4 161 1 288 -8 325 -23 363 -163 431
-41 20 -73 41 -71 47 3 9 100 13 353 14 192 2 368 4 391 5 23 1 48 -3 54 -9
14 -14 12 -15 -61 -34 -56 -14 -123 -78 -140 -134 -17 -53 -35 -1430 -21
-1523 12 -76 43 -145 76 -166 14 -9 49 -22 77 -30 47 -12 53 -16 53 -39 l0
-27 -372 -4 c-205 -3 -373 -3 -373 -1 0 19 19 38 54 54 23 10 59 33 80 52 70
61 71 63 74 452 l3 347 -363 2 c-405 2 -760 -2 -768 -9 -3 -3 -6 -146 -8 -319
l-3 -315 46 -70 c27 -41 66 -84 95 -105 53 -38 56 -58 11 -67 -16 -3 -156 -9
-312 -12 -156 -3 -301 -8 -321 -11 -53 -6 -47 11 14 42 73 37 106 63 131 104
l22 35 -1 765 c-1 689 -3 771 -18 823 -24 81 -68 127 -156 161 -38 15 -70 32
-70 38 0 7 54 7 163 1 89 -4 262 -7 385 -5z m-3161 -13 c1 -5 -40 -39 -92 -74
-83 -57 -97 -70 -108 -105 -9 -31 -12 -223 -12 -786 l0 -745 22 -59 c35 -91
52 -105 171 -136 33 -8 42 -15 42 -32 0 -21 0 -21 -202 -12 -112 5 -292 7
-402 5 -159 -2 -200 0 -207 10 -15 24 -10 27 57 34 80 9 120 39 152 113 44
103 47 149 47 857 l0 670 -30 60 c-35 69 -67 94 -163 126 -85 28 -98 37 -78
57 12 12 57 15 268 14 139 0 298 3 353 7 124 10 178 9 182 -4z m-7907 -2382
c51 -124 99 -231 147 -327 24 -48 42 -90 39 -93 -3 -3 -28 -2 -56 2 -47 7 -51
9 -46 30 4 17 1 24 -17 30 -19 6 -19 8 -4 12 19 5 23 28 6 38 -5 4 -14 17 -19
30 -5 14 -20 24 -40 29 -54 10 -135 7 -154 -7 -10 -8 -29 -45 -41 -83 l-22
-69 -42 -3 c-22 -2 -41 1 -41 7 0 5 28 67 61 138 34 70 77 162 96 203 40 88
73 140 90 140 6 0 25 -35 43 -77z m540 62 c10 -12 16 -13 26 -4 19 15 31 5
121 -109 41 -51 78 -90 83 -87 6 4 37 42 70 85 33 43 70 86 82 94 28 20 62 20
78 1 10 -13 2 -26 -54 -85 -36 -38 -79 -94 -96 -122 -28 -50 -30 -59 -30 -167
l0 -114 -42 7 c-23 4 -45 9 -48 12 -3 3 -5 50 -6 104 l0 98 -41 48 c-22 27
-51 58 -63 69 -12 11 -38 44 -56 73 -19 28 -40 52 -47 52 -19 0 -50 36 -42 49
9 16 51 13 65 -4z m11115 -42 c11 -59 159 -377 194 -416 15 -18 14 -19 -34
-12 -64 10 -68 12 -62 41 2 13 0 24 -4 24 -5 0 -17 17 -28 39 -25 47 -34 51
-126 51 -86 0 -93 -6 -121 -100 l-17 -57 -44 3 c-25 1 -47 5 -49 7 -3 2 5 22
18 43 13 21 60 118 106 214 105 223 148 264 167 163z m-14287 32 c88 -26 129
-81 95 -124 l-18 -22 -39 30 c-86 68 -193 60 -260 -19 -35 -43 -37 -131 -3
-181 32 -47 83 -79 126 -79 41 0 109 29 130 53 18 22 44 21 65 -2 26 -29 7
-54 -69 -92 -58 -28 -72 -31 -129 -27 -141 12 -226 99 -226 232 0 75 27 133
83 181 70 60 153 77 245 50z m871 4 c108 -23 183 -134 167 -248 -16 -119 -63
-188 -143 -210 -61 -17 -172 -13 -219 8 -148 67 -180 284 -57 392 69 60 153
79 252 58z m10988 -14 c28 -12 33 -19 33 -47 0 -57 -11 -64 -62 -39 -60 29
-109 27 -147 -4 -39 -33 -54 -83 -49 -158 4 -52 9 -64 36 -88 27 -24 41 -29
85 -29 35 0 63 7 86 21 40 24 61 19 61 -16 0 -64 -95 -106 -194 -86 -70 15
-66 19 -102 -99 -37 -120 -68 -207 -103 -284 -38 -85 -179 -338 -246 -441 -28
-44 -71 -114 -95 -155 -23 -41 -67 -105 -96 -141 -29 -37 -51 -69 -48 -72 3
-3 -9 -11 -25 -18 -29 -13 -35 -22 -32 -42 0 -4 -4 -6 -11 -5 -7 2 -12 -4 -13
-13 0 -19 -61 -79 -71 -70 -4 3 -5 0 -2 -8 3 -12 -18 -43 -64 -92 -10 -11 -18
-22 -18 -27 0 -9 -42 -37 -52 -34 -4 1 -5 -5 -2 -13 3 -8 -3 -19 -15 -27 -12
-7 -21 -18 -21 -24 0 -15 -29 -28 -55 -25 -16 3 -17 1 -6 -13 14 -17 7 -21
-27 -17 -7 1 -24 -12 -38 -29 -26 -31 -61 -39 -81 -19 -8 8 -18 6 -36 -5 l-25
-17 14 63 c7 35 9 67 5 71 -10 10 -55 -12 -118 -55 -24 -16 -43 -25 -43 -20 0
8 92 93 147 135 15 12 30 24 33 28 15 22 84 68 92 63 6 -4 6 -9 -2 -14 -9 -5
-9 -9 -1 -14 11 -7 131 107 131 125 0 5 6 9 13 9 7 0 34 21 59 48 77 77 148
156 148 163 0 3 14 24 31 45 16 22 42 54 57 73 15 19 41 51 57 71 17 21 55 72
85 115 30 42 73 103 96 134 23 31 55 83 71 116 17 33 40 77 52 98 39 70 110
251 136 347 14 52 30 151 36 220 11 142 27 201 70 260 43 59 98 82 174 75 32
-4 74 -13 92 -20z m3248 -135 c80 -87 150 -162 155 -165 14 -8 23 78 16 153
-8 85 -7 135 2 144 4 3 24 10 45 13 l37 7 0 -241 0 -241 -23 0 c-37 0 -92 46
-224 188 l-123 131 0 -149 0 -150 -40 0 -40 0 0 219 c0 121 3 226 6 235 14 36
47 11 189 -144z m-13583 140 c15 0 133 -183 169 -262 15 -35 23 -35 38 -1 15
33 155 236 173 251 7 5 26 14 42 18 29 7 29 7 23 -32 -4 -21 -7 -128 -7 -236
l0 -198 -35 0 -34 0 -3 147 -3 147 -58 -91 c-31 -50 -69 -116 -83 -148 l-26
-57 -23 40 c-12 22 -49 91 -81 153 l-59 113 -7 -54 c-3 -30 -6 -97 -7 -147
l-1 -93 -40 0 -40 0 0 231 0 231 23 -6 c12 -3 30 -6 39 -6z m9000 -14 c13 -29
5 -56 -17 -56 -11 0 -15 11 -15 40 0 45 15 52 32 16z m2094 0 c128 -59 178
-210 113 -337 -36 -71 -118 -109 -233 -109 -102 1 -173 46 -222 142 -61 120
-5 265 121 315 54 21 164 16 221 -11z m622 -33 c22 -32 65 -104 97 -161 32
-57 61 -100 65 -95 4 4 40 58 80 118 111 167 127 185 162 185 l31 0 -7 -46
c-3 -26 -6 -129 -6 -230 l0 -184 -35 0 -35 0 0 140 c0 77 -4 140 -9 140 -7 0
-113 -187 -142 -252 -7 -16 -15 -28 -19 -28 -4 0 -50 63 -101 140 l-94 141 -5
-138 -5 -138 -37 -3 -38 -3 0 235 0 236 30 0 c25 0 36 -9 68 -57z m2696 -15
c38 -62 114 -154 120 -146 2 1 24 31 49 66 90 123 122 152 169 152 40 0 36
-22 -14 -72 -122 -126 -161 -196 -163 -298 l-2 -75 -37 -8 c-20 -5 -40 -7 -43
-3 -7 7 -4 136 3 148 3 5 -25 44 -63 86 -131 146 -165 193 -152 209 8 9 27 13
52 11 37 -3 42 -7 81 -70z m-9138 -135 c-8 -8 -36 10 -36 23 0 11 4 10 20 -3
11 -9 18 -18 16 -20z m-16 -14 c0 -5 5 -7 11 -4 6 4 22 -4 36 -16 60 -57 273
-360 297 -424 7 -17 10 -14 22 20 7 22 14 41 14 43 0 1 11 0 24 -2 20 -4 25 1
30 25 3 16 10 29 16 29 6 0 4 -15 -6 -37 -9 -21 -16 -45 -15 -53 0 -8 0 -51 0
-95 -2 -111 -2 -105 1 -155 2 -25 0 -55 -4 -67 -5 -14 -3 -23 3 -23 6 0 11 5
11 12 0 6 2 9 5 7 2 -3 -11 -53 -30 -112 -19 -58 -35 -117 -35 -129 0 -13 -11
9 -25 47 -13 39 -40 105 -60 149 -37 82 -44 113 -10 48 11 -20 30 -53 43 -72
l24 -35 -8 30 c-26 108 -184 439 -216 453 -5 2 -8 8 -8 14 0 6 -18 42 -40 80
-22 39 -40 82 -40 98 0 16 -5 30 -12 32 -6 2 -11 18 -11 36 0 18 -5 32 -10 32
-6 0 -7 3 -4 7 4 3 3 11 -2 17 -13 17 -20 56 -10 56 5 0 9 -5 9 -11z m721
-121 c-5 -13 -21 -48 -35 -78 l-25 -55 6 50 c3 28 10 52 15 53 4 2 8 10 8 17
0 8 8 19 18 24 23 14 23 14 13 -11z m2339 -150 c14 -13 26 -21 28 -19 4 4 36
-16 58 -36 7 -7 17 -13 23 -13 6 0 11 -4 11 -9 0 -4 20 -16 45 -25 25 -10 45
-22 45 -27 0 -5 11 -9 23 -9 13 0 35 -12 50 -27 57 -62 100 -114 95 -118 -2
-3 -25 8 -51 25 -25 16 -63 34 -84 39 -54 15 -67 26 -61 49 5 17 0 22 -23 27
-16 4 -49 24 -72 45 -83 75 -112 100 -119 100 -11 0 -10 20 0 20 5 0 19 -10
32 -22z m-2413 -10 c-3 -8 -6 -5 -6 6 -1 11 2 17 5 13 3 -3 4 -12 1 -19z
m1404 -6 c9 -7 34 -30 56 -50 21 -20 58 -52 83 -71 24 -19 56 -45 70 -58 l25
-24 -39 17 c-22 9 -63 31 -90 49 -73 48 -161 139 -150 156 6 10 15 6 45 -19z
m-3023 -52 c-28 -83 -145 -257 -160 -242 -5 5 -11 24 -14 43 -5 27 1 46 23 84
15 28 34 61 41 75 7 14 22 36 32 50 l20 25 0 -23 c0 -12 -7 -39 -15 -59 -24
-58 -10 -50 37 20 24 36 44 64 46 63 1 -2 -3 -18 -10 -36z m2972 -7 c0 -18
-10 -16 -26 5 -22 28 -18 48 6 27 11 -10 20 -24 20 -32z m-5719 -59 c15 -21
64 -113 109 -204 85 -169 118 -220 131 -199 4 8 17 0 38 -22 17 -19 31 -37 31
-40 0 -4 18 -37 41 -75 52 -86 144 -270 153 -308 4 -16 18 -43 32 -61 13 -17
24 -37 24 -44 0 -6 12 -24 28 -40 15 -15 47 -56 72 -91 25 -36 56 -76 70 -90
14 -14 41 -46 61 -72 152 -199 350 -405 524 -544 33 -27 65 -53 71 -59 6 -5
29 -23 50 -40 108 -84 185 -148 191 -159 5 -7 25 -25 46 -41 21 -15 34 -31 28
-34 -5 -4 -7 -11 -3 -16 12 -17 90 -75 101 -75 6 0 11 -3 11 -7 0 -5 27 -28
60 -53 33 -24 60 -48 60 -52 0 -5 5 -8 10 -8 6 0 21 -11 34 -25 13 -14 26 -25
29 -25 8 0 287 -210 287 -216 0 -3 -4 -2 -10 1 -19 12 -50 14 -56 4 -9 -16 8
-31 230 -199 594 -449 722 -562 1008 -889 59 -68 142 -169 183 -225 41 -55
113 -153 160 -216 47 -63 90 -127 97 -143 7 -15 16 -27 20 -27 5 0 8 -7 8 -16
0 -8 6 -21 13 -28 6 -8 19 -24 27 -37 8 -12 26 -34 40 -48 27 -27 42 -56 57
-105 8 -27 13 -20 81 118 79 162 171 308 319 507 204 275 471 537 818 804 43
33 106 83 139 111 122 102 274 212 406 293 166 103 165 102 148 112 -9 6 -3
12 20 21 17 7 32 18 32 25 0 7 7 10 15 7 9 -4 15 0 15 8 0 19 39 50 52 42 6
-4 8 -3 5 3 -4 6 0 13 8 17 8 3 15 12 15 21 0 8 5 15 10 15 6 0 10 6 10 14 0
8 16 20 35 26 19 6 35 15 35 20 0 4 15 14 33 21 17 7 37 15 42 17 6 3 4 -2 -4
-11 -17 -21 2 -23 23 -2 8 8 22 15 31 15 12 0 10 -6 -10 -24 -14 -13 -21 -26
-15 -28 5 -1 -46 -43 -114 -91 -68 -48 -126 -97 -129 -107 -6 -23 -3 -24 24
-10 22 12 27 -3 7 -20 -52 -43 -161 -123 -314 -228 -98 -68 -201 -139 -229
-159 -27 -21 -102 -72 -164 -115 -119 -79 -228 -178 -476 -428 -272 -274 -545
-621 -718 -910 -55 -91 -116 -190 -136 -220 l-37 -56 -34 60 c-299 519 -451
726 -769 1050 -225 229 -477 445 -811 693 -118 87 -304 232 -412 321 -109 89
-202 162 -207 162 -5 0 -11 3 -13 8 -1 4 -21 19 -43 34 -123 83 -170 119 -230
173 -37 33 -76 66 -88 74 -11 8 -28 22 -37 30 -9 9 -68 63 -130 121 -165 152
-200 189 -200 210 0 5 -5 10 -11 10 -5 0 -7 5 -3 12 4 7 3 8 -4 4 -16 -9 -264
240 -322 323 -25 35 -66 92 -92 125 -136 175 -166 217 -242 329 -45 67 -105
165 -132 217 -28 52 -76 142 -107 200 -68 128 -150 318 -176 408 -11 37 -22
98 -26 135 -7 80 4 85 46 21z m5733 20 c3 -8 2 -12 -4 -9 -6 3 -10 10 -10 16
0 14 7 11 14 -7z m1399 -81 c54 -72 61 -83 49 -83 -6 0 -27 24 -49 52 -21 29
-44 61 -51 70 -7 10 -9 18 -3 18 5 0 30 -26 54 -57z m-4228 -80 c-15 -43 -39
-102 -55 -132 -16 -29 -27 -58 -23 -64 3 -6 1 -7 -5 -3 -12 7 -16 -4 -13 -36
1 -9 -14 -28 -33 -43 l-34 -26 -44 21 c-23 11 -56 32 -73 46 -24 20 -27 26
-16 33 9 6 22 6 32 0 10 -5 42 -9 72 -9 55 0 55 0 82 46 23 39 74 166 93 228
3 11 12 26 21 35 15 15 16 15 19 0 2 -10 -9 -52 -23 -96z m2940 107 c3 -6 -1
-7 -9 -4 -18 7 -21 14 -7 14 6 0 13 -4 16 -10z m1255 -137 c0 -7 -39 17 -46
28 -3 6 5 3 20 -6 14 -10 26 -19 26 -22z m-5876 -21 c-5 -4 -24 -27 -42 -51
-18 -25 -32 -41 -32 -35 0 21 69 108 79 98 3 -3 1 -8 -5 -12z m1196 -21 c0
-20 -103 -36 -132 -20 -13 7 -36 15 -53 19 -17 4 15 7 78 8 61 1 107 -2 107
-7z m-237 -8 c-7 -2 -21 -2 -30 0 -10 3 -4 5 12 5 17 0 24 -2 18 -5z m5097
-61 c-7 -3 -19 3 -28 13 -16 15 -15 16 12 4 15 -7 23 -15 16 -17z m-6634 -77
c-3 -9 0 -15 9 -15 18 0 75 -58 75 -77 0 -8 5 -13 12 -11 11 4 34 -28 153
-212 46 -70 59 -88 127 -170 45 -55 49 -25 8 50 -21 39 -35 68 -30 65 6 -3 53
-67 106 -142 197 -277 346 -428 709 -719 138 -110 614 -434 783 -533 75 -43
363 -235 398 -264 10 -9 69 -53 129 -97 126 -93 249 -206 232 -214 -7 -2 -4
-5 6 -5 23 -1 22 -17 -2 -24 -14 -3 -18 -1 -14 10 4 11 1 14 -8 11 -8 -3 -20
2 -27 11 -8 9 -11 10 -7 4 10 -21 6 -19 -140 67 -23 14 -89 52 -146 84 -133
75 -253 151 -306 194 -24 19 -43 31 -43 27 0 -4 -21 8 -47 27 -27 19 -60 40
-75 48 -16 7 -28 17 -28 22 0 4 -9 8 -20 8 -11 0 -20 5 -20 10 0 6 -8 10 -17
10 -10 0 -38 16 -62 35 -24 19 -42 35 -39 35 15 0 88 -42 88 -51 0 -6 7 -9 15
-5 8 3 15 1 15 -4 0 -6 8 -10 17 -10 14 0 12 4 -7 17 -14 9 -27 20 -30 23 -6
7 -101 64 -170 102 -25 14 -86 48 -137 77 -101 57 -203 104 -203 94 0 -3 -9 2
-20 12 -11 10 -20 24 -20 31 0 7 -24 32 -52 56 -29 23 -58 47 -64 53 -6 5 -29
24 -50 40 -180 140 -459 404 -623 590 -163 184 -381 468 -381 494 0 6 -4 11
-9 11 -8 0 -24 37 -22 53 1 4 -3 7 -9 7 -12 0 -42 99 -33 113 4 6 1 7 -7 2
-10 -6 -12 -3 -8 13 4 12 3 20 -2 17 -10 -6 -22 24 -14 36 9 15 17 10 10 -6z
m6899 -56 c-9 -17 -14 -37 -11 -45 3 -7 -2 -21 -11 -29 -8 -9 -13 -18 -10 -22
3 -3 2 -15 -3 -28 -7 -18 -5 -25 7 -29 19 -8 9 -21 -15 -21 -9 0 -16 -6 -14
-12 1 -7 -5 -13 -13 -13 -9 0 -12 -6 -8 -17 4 -10 2 -14 -4 -10 -6 4 -14 0
-17 -8 -8 -23 30 0 44 25 6 11 17 20 25 20 16 0 20 -16 6 -24 -4 -3 -11 -19
-14 -36 -4 -19 -13 -30 -24 -31 -10 0 -13 -3 -6 -5 14 -6 7 -31 -15 -56 -9
-11 -12 -27 -8 -43 4 -17 2 -25 -6 -25 -9 0 -8 -3 2 -10 11 -7 11 -10 2 -10
-7 0 -11 -4 -7 -9 3 -6 -5 -20 -17 -32 -13 -12 -16 -18 -8 -13 8 4 -2 -9 -22
-29 -21 -20 -42 -37 -48 -37 -6 0 -8 -4 -5 -10 3 -5 -1 -10 -10 -10 -9 0 -13
-5 -10 -10 3 -6 0 -13 -8 -16 -8 -3 -17 -14 -20 -25 -3 -11 -11 -18 -19 -17
-7 2 -12 -3 -10 -9 1 -7 -5 -13 -13 -13 -8 0 -15 -5 -15 -11 0 -5 -4 -7 -10
-4 -5 3 -10 2 -10 -4 0 -17 -46 -57 -60 -53 -8 3 -10 0 -6 -7 8 -12 -16 -41
-33 -41 -6 0 -37 -26 -69 -57 -88 -88 -242 -213 -261 -213 -5 0 -11 -3 -13 -8
-1 -4 -39 -34 -83 -66 -108 -80 -120 -93 -104 -112 10 -13 8 -13 -17 -4 -20 8
-30 8 -32 1 -2 -6 -10 -11 -17 -11 -18 0 -75 -51 -75 -67 0 -7 -7 -13 -15 -13
-8 0 -15 -4 -15 -9 0 -12 -206 -148 -299 -198 -114 -62 -202 -114 -263 -155
-31 -21 -60 -38 -63 -38 -4 0 -21 -11 -39 -25 -18 -14 -40 -25 -49 -25 -10 0
-17 -4 -17 -8 0 -5 -16 -14 -35 -22 -19 -7 -31 -18 -28 -23 3 -6 1 -7 -5 -3
-7 4 -33 -7 -60 -25 -26 -18 -59 -41 -75 -51 -15 -10 -32 -16 -37 -13 -6 4 -9
1 -8 -5 3 -11 -33 -34 -157 -99 -103 -54 -173 -98 -282 -178 -40 -29 -77 -53
-81 -53 -5 0 -17 -9 -27 -20 -10 -11 -22 -20 -27 -20 -9 0 -90 -51 -98 -62 -9
-12 -33 9 -25 22 4 6 -1 20 -10 30 -16 17 -15 20 12 44 51 45 356 267 461 334
57 37 199 130 317 207 118 77 303 196 412 264 312 196 333 210 428 274 317
214 661 519 929 822 39 44 74 79 79 77 5 -1 6 2 3 7 -3 5 3 19 13 32 10 13 36
54 58 91 22 37 43 65 46 62 3 -3 4 3 4 13 -1 10 4 17 11 15 8 -1 11 2 7 7 -6
10 30 91 40 91 3 0 -2 -14 -10 -31z m-2795 -341 c0 -18 -2 -20 -9 -8 -6 8 -7
18 -5 22 9 14 14 9 14 -14z m1330 -103 c35 -31 64 -45 97 -45 27 -1 27 -1 8
-16 -14 -10 -31 -13 -53 -9 -21 4 -32 3 -28 -3 7 -11 -24 -26 -33 -16 -3 4 -1
9 5 11 17 6 5 43 -15 45 -9 0 -41 0 -71 -1 -30 -1 -61 3 -69 8 -20 13 -6 41
21 41 13 0 30 4 38 9 21 14 71 2 100 -24z m-3770 -4 c0 -12 -54 -51 -69 -51
-26 0 -8 -29 24 -40 46 -15 50 -25 26 -55 -19 -25 -20 -25 -26 -5 -8 24 -38
55 -79 80 l-28 18 53 25 c88 40 99 43 99 28z m-676 -165 c43 -22 114 -58 157
-82 43 -24 99 -49 124 -55 24 -6 42 -15 40 -19 -3 -5 4 -10 15 -12 14 -2 17
-7 11 -17 -6 -10 -13 -10 -28 -3 -10 6 -37 13 -60 15 -22 3 -50 10 -62 16 -11
7 -21 9 -21 6 0 -8 -144 67 -148 77 -2 5 -9 8 -15 8 -19 0 -127 90 -127 105 0
16 0 16 114 -39z m4946 -8 c-34 -29 -87 -55 -102 -50 -5 1 -7 -3 -5 -10 1 -7
-11 -14 -27 -17 -17 -3 -29 -9 -28 -13 1 -5 0 -8 -3 -8 -3 0 -31 -13 -62 -29
-32 -16 -69 -32 -83 -36 -14 -4 -41 -16 -61 -26 -20 -10 -47 -20 -60 -23 -13
-3 -43 -12 -66 -20 -23 -9 -58 -17 -78 -19 -21 -3 -40 -9 -44 -15 -3 -5 -31
-13 -61 -16 -30 -3 -56 -10 -58 -16 -5 -15 -48 -12 -61 4 -9 11 -9 15 1 19 7
2 -11 4 -39 3 -51 -1 -67 -9 -40 -19 6 -3 3 -6 -8 -6 -12 -1 -27 -7 -33 -13
-10 -10 -17 -10 -34 1 -18 11 -23 11 -33 -2 -6 -8 -31 -18 -56 -22 -36 -5 -48
-3 -59 10 -11 13 -11 21 -2 36 7 10 12 25 12 32 0 7 16 19 35 26 19 7 35 17
35 22 0 6 3 8 8 6 4 -3 13 1 20 9 11 12 10 14 -3 14 -8 0 -15 9 -15 19 0 19 1
19 43 -2 58 -29 154 -34 201 -12 34 16 45 17 106 5 117 -22 325 14 450 79 41
21 100 52 130 67 30 16 58 34 63 41 4 7 14 10 22 7 8 -4 15 -1 15 7 0 7 3 9 8
5 4 -5 -9 -21 -28 -38z m-1827 -13 c4 -8 2 -17 -3 -20 -6 -4 -10 3 -10 14 0
25 6 27 13 6z m980 -136 c37 -6 67 -13 67 -16 0 -9 -134 10 -166 23 -39 16
-68 56 -52 72 9 9 21 1 47 -28 32 -34 44 -41 104 -51z m-3073 -83 c0 -2 3 -11
6 -19 7 -18 -52 -51 -62 -35 -4 6 -9 6 -14 -3 -5 -7 -33 -13 -70 -15 -53 -2
-59 0 -49 12 15 18 72 45 114 55 37 8 75 10 75 5z m3093 -67 c-6 -6 -17 -8
-24 -3 -9 5 -8 9 7 14 23 9 31 3 17 -11z m1452 -149 c-3 -5 -12 -10 -18 -10
-7 0 -6 4 3 10 19 12 23 12 15 0z m-44 -41 c-13 -11 -27 -17 -30 -13 -7 7 28
34 43 34 6 -1 0 -10 -13 -21z m279 -6 c0 -10 -72 -83 -83 -83 -5 0 -15 -7 -23
-15 -17 -17 -44 -20 -44 -5 0 6 6 10 13 10 12 0 41 37 42 53 0 10 64 46 83 47
6 0 12 -3 12 -7z m-185 -167 c-27 -25 -52 -43 -56 -41 -3 3 -15 -6 -26 -18
-26 -29 -64 -61 -100 -84 -15 -9 -30 -20 -33 -24 -10 -11 -73 -39 -78 -34 -3
3 -1 5 5 5 5 0 30 20 56 45 26 24 47 42 47 39 0 -5 18 9 55 44 13 12 29 22 35
22 5 0 10 5 10 10 0 6 7 10 14 10 8 0 27 11 42 25 15 14 33 25 40 25 8 0 14 5
14 10 0 6 6 10 12 10 7 0 -9 -20 -37 -44z m-2461 -58 c-5 -8 -1 -9 12 -4 30
12 38 12 39 1 0 -5 11 -32 24 -60 22 -48 51 -123 51 -132 0 -2 -4 -2 -9 2 -6
3 -6 -7 0 -27 5 -18 7 -39 4 -48 -5 -16 -46 -46 -44 -33 2 14 -13 53 -21 53
-4 0 -24 31 -43 68 -42 79 -54 136 -48 216 1 19 2 19 22 -2 11 -12 17 -27 13
-34z m636 1 c0 -5 4 -8 9 -5 5 4 11 1 13 -5 3 -9 10 -9 27 0 35 19 61 22 61 5
0 -8 -4 -14 -8 -14 -5 0 -19 -9 -32 -20 -23 -20 -119 -60 -144 -60 -8 0 -16 7
-20 15 -3 8 -11 15 -18 15 -14 0 -58 39 -58 52 0 4 21 8 48 9 26 1 58 5 72 9
36 12 50 11 50 -1z m-2220 -74 c0 -8 -15 -47 -34 -86 -19 -39 -32 -79 -28 -87
18 -49 130 -155 466 -442 61 -52 158 -139 216 -195 58 -55 129 -120 158 -144
l53 -43 49 34 c27 19 131 113 232 210 101 97 239 225 307 284 68 60 146 128
172 152 27 24 49 38 50 30 0 -7 4 -4 9 7 l9 20 1 -20 c1 -11 3 -24 5 -30 1 -5
3 -13 3 -17 1 -4 15 -3 30 1 23 7 28 5 29 -10 1 -10 -7 -25 -18 -32 -10 -8
-16 -16 -13 -19 3 -4 -5 -9 -18 -13 -13 -4 -32 -16 -43 -27 -11 -10 -51 -42
-90 -71 -99 -73 -231 -178 -294 -234 -55 -49 -80 -66 -66 -43 5 8 4 11 -3 6
-6 -4 -8 -14 -5 -23 5 -13 2 -15 -12 -9 -12 4 -24 0 -37 -14 -11 -11 -24 -18
-29 -14 -5 3 -9 2 -8 -3 1 -4 -1 -16 -5 -25 -8 -18 -26 -15 -26 3 0 6 5 7 10
4 6 -3 10 -1 10 4 0 16 -16 13 -35 -5 -13 -14 -14 -19 -3 -26 9 -6 5 -7 -11
-3 -16 5 -21 4 -17 -4 4 -6 4 -11 -1 -10 -15 4 -43 -13 -37 -22 3 -5 -2 -9
-10 -9 -8 0 -18 -9 -21 -20 -4 -11 -10 -18 -14 -16 -4 3 -24 -11 -45 -30 -24
-22 -32 -34 -21 -34 9 0 14 -4 10 -9 -7 -12 -55 -7 -83 8 -11 6 -22 8 -25 5
-3 -4 -21 8 -39 25 -18 17 -37 31 -41 31 -4 0 -13 5 -20 10 -7 6 -26 21 -43
33 -17 12 -75 55 -128 96 -54 40 -131 95 -171 122 -79 53 -268 226 -260 239 3
4 -4 10 -15 13 -11 3 -20 13 -20 22 0 9 -4 14 -9 11 -5 -3 -12 1 -15 10 -3 8
-2 13 3 10 5 -3 14 1 21 9 7 8 9 15 5 15 -4 0 -2 7 5 15 7 8 8 15 3 15 -6 0
-15 -10 -22 -22 -6 -13 -9 -15 -7 -5 3 9 2 17 -3 17 -4 0 -8 7 -8 15 0 11 6
13 20 9 20 -6 20 -6 1 12 -10 11 -30 28 -43 39 -21 17 -24 18 -18 3 5 -15 4
-16 -13 -5 -22 13 -26 27 -9 27 8 0 8 4 0 14 -9 11 -9 15 0 18 8 3 9 9 5 17
-6 10 -15 6 -33 -15 -20 -24 -26 -26 -34 -14 -13 20 -4 74 21 121 11 22 20 52
20 67 0 21 2 24 10 12 8 -13 10 -13 10 0 0 17 42 59 53 53 4 -2 7 -11 7 -18z
m350 -91 c0 -6 -42 -107 -47 -114 -2 -2 -8 2 -14 10 -10 17 -3 65 15 92 10 16
46 26 46 12z m1397 -58 c0 -8 -6 -12 -14 -9 -7 3 -13 9 -13 14 0 5 6 9 13 9 8
0 14 -6 14 -14z m-300 -62 c6 -17 -52 -83 -99 -114 -24 -16 -72 -55 -108 -87
-36 -32 -90 -78 -120 -103 -89 -72 -223 -191 -251 -222 l-26 -29 -34 33 c-19
18 -57 52 -83 76 -27 23 -46 45 -43 48 4 4 12 2 19 -4 7 -5 46 -28 87 -50 l73
-40 45 34 c127 97 372 335 423 412 19 28 41 52 48 52 16 0 16 -4 -8 -53 l-21
-42 36 39 c19 22 35 46 35 53 0 16 22 13 27 -3z m1160 -380 c-3 -3 -12 -7 -21
-8 -8 -1 -29 -14 -46 -29 -16 -15 -34 -27 -39 -27 -5 0 -11 -7 -15 -15 -3 -8
-18 -21 -33 -27 -15 -7 -45 -25 -65 -41 -21 -16 -38 -26 -38 -24 0 3 -17 -11
-37 -31 -21 -20 -47 -44 -59 -52 -35 -25 -388 -290 -406 -305 -9 -7 -27 -19
-40 -26 -13 -6 -25 -15 -28 -18 -16 -22 -69 -50 -75 -41 -5 8 -11 8 -19 1 -7
-6 -17 -7 -21 -3 -5 4 -4 1 0 -7 6 -11 4 -13 -11 -7 -15 6 -16 5 -7 -5 10 -10
17 -9 34 7 l22 19 -18 -27 c-15 -24 -38 -34 -67 -29 -4 0 -4 -7 -1 -16 4 -11
3 -14 -5 -9 -7 4 -12 2 -12 -4 0 -6 -4 -8 -10 -5 -10 6 -14 -7 -11 -32 1 -7
-5 -13 -12 -13 -8 0 -17 -7 -21 -15 -3 -8 -12 -15 -21 -15 -8 0 -15 -6 -15
-14 0 -13 -16 -30 -109 -115 -18 -17 -38 -31 -45 -31 -7 0 -7 -3 1 -8 9 -6
-14 -36 -77 -103 -50 -51 -90 -95 -90 -97 0 -9 -28 -30 -34 -25 -3 4 -7 -5 -7
-18 -1 -16 -3 -18 -6 -7 -2 9 3 30 11 46 14 26 14 31 0 48 -15 18 -15 18 -10
-6 3 -14 1 -32 -5 -40 -8 -11 -9 -9 -3 10 6 21 5 23 -8 13 -12 -10 -15 -10
-15 2 0 8 4 12 9 9 4 -3 8 1 8 9 0 7 12 24 27 38 14 13 23 18 18 10 -5 -9 -4
-12 3 -7 6 4 9 12 6 19 -5 13 194 213 362 364 150 134 198 169 670 473 72 47
181 119 242 160 61 42 120 76 132 77 12 1 20 0 17 -3z m-3462 -35 c-7 -10 -35
-1 -35 11 0 5 9 6 20 3 11 -3 17 -9 15 -14z m73 -40 c2 -5 9 -6 14 -3 7 4 8 2
4 -4 -7 -12 -21 -7 -56 18 -12 9 -10 10 10 4 14 -4 27 -11 28 -15z m3594 -7
c-13 -4 -22 -11 -20 -17 2 -5 -7 -11 -20 -13 -23 -4 -23 -3 -5 16 10 11 29 20
43 20 25 0 25 0 2 -6z m202 -27 c-4 -8 -14 -15 -23 -15 -14 1 -13 3 3 15 25
19 27 19 20 0z m-56 -35 c-14 -22 -24 -19 -15 5 4 8 11 15 17 15 6 0 6 -7 -2
-20z m-3396 -133 c393 -263 601 -430 874 -702 175 -174 304 -319 293 -329 -2
-2 -15 -7 -28 -11 -18 -5 -22 -4 -16 6 6 9 3 10 -11 5 -10 -5 -23 -9 -29 -9
-17 -1 -14 -45 5 -62 18 -16 17 -55 -1 -55 -5 0 -8 3 -7 8 2 4 -9 23 -24 42
-160 205 -208 263 -259 312 -32 32 -59 59 -59 61 0 2 -42 46 -92 98 -51 52
-124 128 -161 167 -38 40 -71 72 -74 72 -3 0 -32 28 -65 63 -108 114 -126 132
-157 159 -17 14 -31 24 -31 20 0 -3 -10 4 -22 15 -13 12 -49 35 -80 52 -31 16
-65 37 -75 45 -10 8 -39 31 -65 50 -97 73 -139 106 -154 121 -14 13 -13 15 5
15 11 0 116 -64 233 -143z m3088 79 c0 -2 -7 -7 -16 -10 -8 -3 -12 -2 -9 4 6
10 25 14 25 6z m-1490 -20 c0 -3 -4 -8 -10 -11 -5 -3 -10 -1 -10 4 0 6 5 11
10 11 6 0 10 -2 10 -4z m334 -91 c-5 -11 -1 -14 12 -9 11 3 7 -2 -8 -11 -16
-8 -28 -20 -28 -26 0 -6 -7 -8 -16 -5 -14 5 -15 4 -5 -7 9 -12 7 -14 -11 -13
-14 0 -22 -4 -20 -11 1 -7 -2 -13 -7 -13 -5 0 -28 -18 -51 -41 -31 -30 -39
-44 -31 -52 8 -8 11 -6 11 8 0 10 3 15 7 12 3 -4 16 4 27 16 12 13 29 26 38
30 23 8 13 -20 -19 -52 -13 -13 -23 -28 -23 -33 0 -5 -4 -6 -10 -3 -5 3 -10 1
-10 -5 0 -14 -30 -45 -52 -53 -10 -4 -18 -13 -18 -22 0 -8 -7 -15 -15 -15 -8
0 -15 -4 -15 -10 0 -5 -37 -47 -82 -93 -94 -97 -211 -232 -276 -321 l-45 -60
-22 28 c-16 20 -24 24 -28 15 -3 -8 -6 -5 -6 8 -1 23 -32 83 -43 83 -4 0 -5 7
-2 15 4 9 0 15 -9 15 -9 0 -19 5 -23 12 -5 7 -3 8 6 3 7 -4 -7 19 -31 51 -59
79 -166 203 -172 198 -2 -2 -4 3 -4 11 0 16 1 16 34 20 29 3 45 -16 31 -35 -8
-13 -9 -12 -5 2 4 11 -2 18 -16 22 -32 8 -33 -1 -4 -30 15 -15 27 -31 27 -37
0 -5 7 -4 15 3 12 10 13 15 3 28 -12 14 -10 14 10 1 12 -8 18 -15 12 -17 -6
-2 -7 -9 -4 -14 5 -7 2 -8 -7 -3 -8 4 -1 -6 15 -23 16 -18 32 -30 34 -27 3 2
-6 13 -18 23 -14 11 -19 21 -13 25 6 4 23 -5 39 -18 16 -14 26 -25 22 -25 -4
0 26 -34 67 -75 41 -41 81 -75 89 -75 8 0 59 46 113 102 127 132 340 340 376
368 15 12 48 42 73 66 26 24 50 41 55 38 5 -3 9 1 9 8 0 8 5 19 12 26 16 16
19 15 12 -3z m-1244 -59 c0 -4 -9 -1 -19 6 -11 7 -17 16 -15 20 5 8 34 -15 34
-26z m26 -33 c-4 -4 -12 -1 -19 7 -9 10 -9 11 1 6 7 -4 12 -2 13 6 0 11 2 11
6 0 3 -7 2 -16 -1 -19z m714 18 c0 -5 -7 -11 -15 -15 -15 -5 -20 5 -8 17 9 10
23 9 23 -2z m-660 -42 c0 -10 -27 -19 -34 -12 -3 4 -6 15 -6 25 0 16 3 16 20
6 11 -7 20 -16 20 -19z m57 -50 c51 -46 64 -65 32 -47 -13 7 -29 19 -35 27 -6
8 -16 11 -22 7 -6 -3 -13 3 -17 13 -4 12 -12 18 -21 14 -7 -3 -14 -1 -14 5 0
10 19 22 31 19 4 -1 25 -18 46 -38z m-44 -79 c9 -11 13 -20 8 -20 -4 0 -16 9
-26 20 -10 11 -14 20 -9 20 5 0 17 -9 27 -20z m472 -529 c3 -5 2 -12 -3 -15
-5 -3 -9 1 -9 9 0 17 3 19 12 6z m245 -166 c0 -2 -6 -8 -13 -14 -10 -8 -14 -7
-14 2 0 8 6 14 14 14 7 0 13 -1 13 -2z m-390 -95 c0 -11 -7 -20 -15 -20 -8 0
-15 5 -15 11 0 5 4 7 10 4 6 -3 7 1 4 9 -3 9 -1 16 5 16 6 0 11 -9 11 -20z
m287 -5 c0 -8 -4 -12 -9 -9 -5 3 -6 10 -3 15 9 13 12 11 12 -6z m-23 -23 c3
-5 -1 -9 -9 -9 -8 0 -12 4 -9 9 3 4 7 8 9 8 2 0 6 -4 9 -8z m86 -51 c0 -26
-33 -86 -135 -243 -54 -84 -75 -97 -75 -47 0 20 -14 53 -37 88 -21 31 -37 59
-36 62 1 4 -7 15 -17 24 -11 10 -20 24 -20 32 0 7 -4 13 -8 13 -5 0 -14 12
-21 28 l-12 27 21 -25 c11 -14 38 -49 60 -79 22 -30 40 -51 40 -46 0 5 5 4 12
-3 7 -7 17 -8 29 -1 25 13 69 58 69 69 0 6 5 10 11 10 5 0 7 6 3 13 -5 7 0 6
11 -3 17 -14 18 -13 13 7 -4 13 0 27 8 34 8 6 14 19 14 27 0 13 2 13 13 -3 11
-14 16 -15 22 -5 5 9 4 11 -3 6 -7 -4 -12 -1 -12 7 0 22 12 28 28 14 13 -10
14 -9 3 10 -10 19 -9 22 4 17 8 -4 15 -18 15 -33z m-140 5 c0 -2 -8 -10 -17
-17 -16 -13 -17 -12 -4 4 13 16 21 21 21 13z"/>
<path d="M13766 12864 c-11 -8 -16 -14 -10 -14 13 0 39 18 34 24 -3 2 -14 -2
-24 -10z"/>
<path d="M13803 12831 c2 -11 7 -24 12 -28 4 -5 5 -3 2 4 -4 6 -3 13 2 15 5 1
3 9 -5 16 -12 11 -13 9 -11 -7z"/>
<path d="M13273 12728 c-39 -46 -92 -107 -118 -135 -25 -29 -43 -53 -39 -53 3
0 14 8 23 18 9 11 46 52 83 93 65 72 134 159 126 159 -2 0 -36 -37 -75 -82z"/>
<path d="M14000 12588 c0 -3 6 -11 14 -17 10 -9 17 -7 27 6 12 16 12 17 -2 6
-12 -10 -18 -10 -27 -1 -7 7 -12 9 -12 6z"/>
<path d="M14745 11860 c-3 -6 1 -7 9 -4 18 7 21 14 7 14 -6 0 -13 -4 -16 -10z"/>
<path d="M10935 11199 c-12 -19 5 -23 22 -6 16 16 16 17 1 17 -9 0 -20 -5 -23
-11z"/>
<path d="M16033 11105 c0 -8 4 -12 9 -9 5 3 6 10 3 15 -9 13 -12 11 -12 -6z"/>
<path d="M16011 11094 c0 -11 3 -14 6 -6 3 7 2 16 -1 19 -3 4 -6 -2 -5 -13z"/>
<path d="M16060 11096 c0 -2 7 -6 15 -10 8 -3 15 -1 15 4 0 6 -7 10 -15 10 -8
0 -15 -2 -15 -4z"/>
<path d="M14126 11955 c4 -8 11 -15 16 -15 6 0 5 6 -2 15 -7 8 -14 15 -16 15
-2 0 -1 -7 2 -15z"/>
<path d="M14200 11867 c0 -2 6 -10 14 -16 11 -9 16 -9 22 1 4 7 4 10 -1 6 -4
-4 -14 -3 -22 3 -7 6 -13 9 -13 6z"/>
<path d="M13630 11946 c0 -2 8 -10 18 -17 15 -13 16 -12 3 4 -13 16 -21 21
-21 13z"/>
<path d="M15888 10753 c7 -3 16 -2 19 1 4 3 -2 6 -13 5 -11 0 -14 -3 -6 -6z"/>
<path d="M16100 10678 c47 -24 112 -61 145 -83 85 -56 85 -57 85 -51 0 16
-238 157 -290 171 -14 4 13 -13 60 -37z"/>
<path d="M11125 10743 c-75 -15 -152 -38 -160 -46 -11 -11 3 -8 105 19 36 9
69 21 75 25 5 5 7 8 5 8 -3 -1 -14 -3 -25 -6z"/>
<path d="M10875 10670 c-7 -12 2 -12 30 0 19 8 19 9 -2 9 -12 1 -25 -3 -28 -9z"/>
<path d="M8405 6170 l-35 -70 75 0 c73 0 74 0 66 23 -21 55 -54 117 -62 117
-5 0 -25 -31 -44 -70z"/>
<path d="M20104 6239 c-15 -18 -49 -88 -58 -116 -7 -22 -5 -23 59 -23 l67 0
-7 28 c-3 15 -16 49 -28 76 -18 39 -25 46 -33 35z"/>
<path d="M6563 6260 c-42 -25 -63 -68 -63 -125 0 -122 109 -195 225 -150 62
23 97 71 103 138 5 62 -23 112 -78 139 -49 25 -145 24 -187 -2z"/>
<path d="M18290 6273 c-78 -41 -106 -151 -57 -223 65 -97 223 -106 282 -17 22
34 30 117 15 161 -25 77 -159 121 -240 79z"/>
<path d="M21903 5955 c0 -22 2 -30 4 -17 2 12 2 30 0 40 -3 9 -5 -1 -4 -23z"/>
<path d="M9425 4810 c-3 -5 -1 -10 4 -10 6 0 11 5 11 10 0 6 -2 10 -4 10 -3 0
-8 -4 -11 -10z"/>
<path d="M9350 4781 c0 -21 13 -41 26 -41 15 0 17 10 8 34 -7 17 -34 22 -34 7z"/>
<path d="M14931 3104 c0 -11 3 -14 6 -6 3 7 2 16 -1 19 -3 4 -6 -2 -5 -13z"/>
<path d="M14897 3084 c-4 -4 -7 -14 -7 -23 0 -11 3 -12 11 -4 6 6 10 16 7 23
-2 6 -7 8 -11 4z"/>
<path d="M9681 5244 c0 -11 3 -14 6 -6 3 7 2 16 -1 19 -3 4 -6 -2 -5 -13z"/>
<path d="M12250 3050 c0 -5 7 -10 16 -10 8 0 12 5 9 10 -3 6 -10 10 -16 10 -5
0 -9 -4 -9 -10z"/>
<path d="M16360 5040 c-13 -8 -12 -10 3 -10 9 0 17 5 17 10 0 12 -1 12 -20 0z"/>
<path d="M14770 4460 c0 -5 4 -10 9 -10 6 0 13 5 16 10 3 6 -1 10 -9 10 -9 0
-16 -4 -16 -10z"/>
<path d="M14735 4410 c-3 -5 -1 -10 4 -10 6 0 11 5 11 10 0 6 -2 10 -4 10 -3
0 -8 -4 -11 -10z"/>
<path d="M13776 3581 c-4 -5 -2 -12 3 -15 5 -4 12 -2 15 3 4 5 2 12 -3 15 -5
4 -12 2 -15 -3z"/>
<path d="M13297 2213 c-8 -12 12 -22 31 -16 6 3 12 9 12 15 0 7 -5 6 -14 -1
-11 -9 -15 -9 -18 1 -3 8 -6 9 -11 1z"/>
<path d="M13385 2761 c-73 -72 -109 -111 -102 -111 3 0 17 10 31 23 14 12 52
46 85 76 56 50 72 71 54 71 -5 0 -35 -27 -68 -59z"/>
</g>
</svg>
