<?xml version="1.0" standalone="no"?>
<!DOCTYPE svg PUBLIC "-//W3C//DTD SVG 20010904//EN"
 "http://www.w3.org/TR/2001/REC-SVG-20010904/DTD/svg10.dtd">
<svg version="1.0" xmlns="http://www.w3.org/2000/svg"
 width="2688.000000pt" height="1536.000000pt" viewBox="0 0 2688.000000 1536.000000"
 preserveAspectRatio="xMidYMid meet">

<g transform="translate(0.000000,1536.000000) scale(0.100000,-0.100000)"
fill="#000000" stroke="none">
<path d="M0 7680 l0 -7680 13440 0 13440 0 0 7680 0 7680 -3437 0 c-3201 0
-3436 -1 -3421 -17 15 -14 15 -19 3 -44 -9 -17 -21 -26 -32 -25 -10 2 -12 1
-5 -1 6 -3 12 -9 12 -14 0 -5 7 -9 15 -9 9 0 18 -7 21 -15 4 -10 13 -13 25
-10 11 4 19 2 19 -4 0 -6 -8 -11 -17 -11 -15 0 -16 -2 -3 -9 8 -6 18 -7 22 -5
4 3 8 -4 8 -16 0 -12 -5 -18 -10 -15 -6 3 -10 1 -10 -6 0 -18 32 -38 61 -39
27 0 49 -28 52 -68 1 -21 17 -32 17 -12 0 6 10 10 22 10 l22 0 -22 -16 c-31
-21 -28 -32 14 -40 19 -4 38 -13 41 -20 3 -8 19 -14 37 -15 l31 -1 -31 -13
c-17 -8 -34 -21 -37 -30 -4 -8 -13 -15 -21 -15 -7 0 -16 -6 -19 -13 -3 -9 6
-11 36 -8 27 2 38 0 33 -8 -4 -6 -2 -11 3 -11 6 0 11 5 11 10 0 6 5 10 10 10
6 0 10 -14 10 -31 0 -28 2 -30 16 -18 13 10 17 10 25 -2 13 -20 11 -27 -8 -32
-17 -4 -17 -4 1 -12 12 -5 21 -3 27 6 7 11 9 9 7 -6 -3 -43 3 -65 17 -65 17 0
55 -35 55 -50 0 -5 6 -10 13 -10 8 0 7 -3 -3 -9 -8 -6 -18 -7 -22 -5 -4 3 -8
-2 -8 -10 0 -8 5 -18 10 -21 5 -3 10 1 10 9 0 9 4 16 10 16 5 0 9 -5 7 -12 -1
-7 12 -15 28 -19 l30 -7 -29 -1 c-28 -1 -28 -2 -11 -14 13 -10 15 -16 6 -21
-6 -4 -9 -12 -5 -17 4 -6 11 -6 20 2 7 6 12 15 9 19 -3 5 0 12 6 16 9 5 10 -5
6 -39 -4 -26 -3 -46 1 -45 14 5 54 -30 42 -37 -7 -4 -1 -17 16 -38 l27 -32
-24 -6 -24 -5 23 -8 c12 -4 22 -12 22 -17 0 -5 7 -9 15 -9 8 0 16 -7 16 -15 1
-8 2 -21 3 -27 1 -7 13 -13 28 -13 15 1 24 -3 22 -7 -3 -4 -17 -8 -32 -8 -20
0 -23 -3 -12 -9 8 -6 27 -7 42 -4 31 6 37 -7 13 -31 -14 -13 -13 -16 2 -25 17
-10 17 -10 1 -11 -34 0 -18 -19 20 -23 l37 -4 -37 -1 c-21 -1 -38 -6 -38 -12
0 -10 14 -14 38 -11 6 1 12 -3 12 -9 0 -5 -7 -10 -15 -10 -8 0 -15 -4 -15 -10
0 -5 11 -10 25 -10 18 0 25 5 25 20 0 13 6 20 18 19 10 0 12 -3 5 -6 -7 -2
-13 -15 -13 -28 0 -12 -7 -26 -16 -29 -13 -5 -13 -9 3 -31 10 -13 25 -25 34
-25 9 0 23 -7 30 -16 12 -15 10 -16 -16 -12 -17 3 -25 3 -19 1 6 -2 15 -21 21
-41 l10 -37 2 33 c1 31 14 42 26 22 4 -6 2 -16 -3 -23 -22 -28 -9 -52 26 -48
6 1 12 -8 12 -20 0 -15 -5 -19 -15 -15 -8 3 -15 2 -15 -2 0 -9 49 -32 67 -32
7 0 13 -5 13 -11 0 -6 -9 -9 -20 -6 -21 5 -29 -16 -10 -28 5 -3 7 -12 4 -19
-3 -8 0 -17 7 -22 7 -4 15 -2 17 4 6 18 39 15 46 -4 3 -9 6 -37 6 -62 0 -51
15 -89 24 -62 3 8 7 24 10 35 2 11 4 -4 3 -33 0 -29 5 -58 11 -64 17 -17 15
-26 -15 -54 -20 -19 -24 -27 -15 -36 9 -9 12 -8 12 5 0 23 27 21 42 -3 7 -11
18 -20 25 -20 20 0 15 -20 -4 -21 -14 0 -13 -2 5 -9 12 -5 22 -12 22 -15 0 -4
-4 -3 -10 0 -5 3 -18 1 -27 -4 -16 -9 -16 -10 5 -11 32 0 27 -20 -5 -21 -22
-2 -19 -3 12 -9 l40 -7 -44 -2 c-49 -1 -52 -9 -5 -13 24 -1 29 -7 30 -27 1
-14 -1 -20 -3 -13 -5 13 -33 17 -33 4 0 -13 21 -31 34 -28 6 2 8 1 4 -1 -13
-7 -9 -33 5 -33 6 0 13 -11 13 -25 1 -14 -3 -25 -8 -25 -6 0 -5 -6 2 -15 15
-18 -1 -20 -18 -3 -9 9 -12 9 -12 0 0 -6 8 -16 19 -21 22 -12 26 -61 4 -61
-10 0 -13 6 -8 18 5 14 4 15 -6 5 -17 -17 2 -37 38 -39 34 -1 39 -38 10 -65
-21 -19 -21 -19 6 -19 15 0 27 5 27 12 0 6 2 9 5 6 4 -3 3 -17 -1 -32 -4 -17
-13 -26 -28 -27 -19 -1 -18 -2 4 -8 20 -6 24 -12 22 -35 -3 -25 -2 -26 17 -14
11 7 24 9 28 5 4 -5 1 -12 -7 -17 -13 -8 -12 -10 2 -10 20 0 34 -38 19 -53 -8
-8 -11 -6 -11 7 0 10 -5 14 -11 10 -11 -6 -8 -35 6 -80 5 -18 1 -24 -22 -32
-16 -6 -21 -11 -11 -11 11 -1 15 -6 12 -16 -4 -8 -1 -15 5 -15 6 0 11 7 11 15
0 19 14 19 29 1 8 -10 9 -16 1 -21 -16 -10 -12 -36 5 -33 10 2 23 -13 35 -42
l20 -45 -20 24 c-12 13 -25 31 -30 40 -5 9 -12 12 -17 7 -4 -5 -2 -11 5 -13 6
-3 12 -13 12 -24 0 -10 4 -19 8 -19 5 0 8 -22 6 -50 l-2 -50 34 0 c19 0 34 -4
34 -10 0 -5 -7 -10 -15 -10 -9 0 -20 -12 -26 -27 -6 -15 -16 -31 -22 -35 -9
-6 -9 -12 1 -28 6 -11 12 -29 12 -40 0 -11 5 -20 10 -20 6 0 10 11 10 25 0 14
-4 25 -10 25 -5 0 -10 9 -10 20 0 11 5 20 10 20 6 0 10 -9 10 -20 0 -11 5 -20
10 -20 6 0 10 -9 10 -21 0 -13 4 -18 13 -13 6 4 3 -3 -8 -16 -14 -16 -16 -24
-7 -27 6 -3 12 -12 12 -21 -1 -15 -2 -15 -14 1 -16 20 -36 23 -36 4 0 -8 11
-19 25 -25 28 -13 34 -32 10 -32 -8 0 -15 -4 -15 -10 0 -5 13 -10 30 -10 22 0
28 -4 24 -15 -4 -10 -14 -14 -28 -10 -11 4 -16 3 -11 -2 6 -4 11 -23 13 -41 3
-27 -1 -35 -17 -39 -12 -3 -21 -8 -21 -11 0 -9 49 -50 54 -45 2 3 10 -5 16
-17 9 -17 9 -24 0 -30 -11 -7 -40 -56 -40 -68 0 -3 9 3 20 13 19 18 20 17 20
-4 0 -12 6 -37 14 -55 13 -32 13 -33 -5 -29 -13 4 -19 0 -19 -11 0 -12 7 -16
22 -14 11 2 23 -3 26 -10 3 -9 -4 -13 -19 -12 -39 3 -51 1 -43 -11 3 -6 15 -9
25 -6 10 3 22 1 25 -4 3 -5 0 -9 -5 -9 -6 0 -11 -16 -11 -36 0 -19 -7 -42 -16
-51 -8 -9 -13 -22 -9 -31 3 -8 0 -21 -6 -28 -9 -11 -7 -14 10 -14 25 0 26 -3
5 -35 -9 -14 -14 -31 -11 -40 4 -8 2 -17 -3 -20 -4 -3 -10 -1 -12 5 -2 6 -9 1
-16 -10 -10 -17 -10 -20 3 -20 8 0 15 -9 15 -20 0 -12 7 -20 18 -21 10 0 12
-3 5 -6 -7 -2 -13 -13 -13 -24 0 -10 -6 -19 -13 -19 -7 0 -21 -10 -31 -21 -18
-21 -18 -22 7 -15 16 4 27 1 29 -6 3 -9 6 -9 12 0 4 7 2 12 -3 12 -6 0 -11 4
-11 9 0 4 11 6 25 3 14 -2 22 -8 19 -13 -3 -5 0 -9 5 -9 6 0 11 -5 11 -12 0
-6 -3 -8 -7 -5 -11 11 -32 -14 -26 -30 5 -12 2 -15 -10 -10 -9 3 -17 2 -17 -2
0 -5 5 -11 12 -13 9 -3 9 -6 0 -12 -7 -4 -12 -2 -12 3 0 6 -10 11 -22 11 l-21
0 21 -19 c12 -10 22 -28 22 -40 0 -12 6 -21 15 -21 12 0 14 -4 5 -20 -6 -10
-9 -23 -8 -27 0 -4 -2 -20 -6 -35 -6 -19 -15 -28 -29 -28 -28 0 -10 -17 23
-22 23 -4 23 -5 -10 -15 -26 -8 -29 -11 -12 -12 12 -1 22 -6 22 -12 0 -6 -7
-8 -16 -5 -17 7 -58 -17 -47 -27 3 -4 11 -3 17 2 22 18 60 17 64 -2 3 -15 0
-18 -16 -13 -14 5 -24 1 -30 -10 -6 -11 -17 -15 -31 -11 -11 3 -19 1 -15 -4 3
-5 20 -9 39 -9 18 0 35 -6 38 -13 3 -9 -5 -12 -29 -9 -35 4 -43 -5 -22 -26 7
-7 8 -12 3 -12 -6 -1 4 -7 20 -15 l30 -15 -27 3 c-24 4 -26 2 -17 -14 5 -11
16 -19 24 -19 8 0 15 -4 15 -10 0 -13 -12 -13 -44 0 -17 6 -24 14 -20 25 3 8
2 15 -4 15 -5 0 -12 -11 -14 -24 -4 -18 0 -26 14 -29 15 -4 17 -11 12 -34 -4
-15 -10 -35 -15 -43 -7 -12 -8 -10 -9 8 0 12 -5 22 -11 22 -5 0 -7 -5 -4 -10
4 -6 2 -17 -4 -24 -9 -10 -7 -15 9 -19 30 -8 24 -26 -12 -42 -18 -8 -26 -15
-18 -15 10 -1 9 -4 -5 -10 -19 -8 -19 -9 -1 -9 15 -1 16 -4 7 -15 -10 -11 -8
-15 6 -19 13 -3 8 -7 -15 -12 -49 -11 -46 -20 6 -18 38 1 41 0 17 -5 -23 -6
-29 -13 -28 -30 2 -14 -3 -22 -12 -22 -8 0 -15 -4 -15 -10 0 -5 9 -10 20 -10
11 0 20 -5 20 -11 0 -6 -9 -8 -20 -4 -14 4 -20 2 -20 -9 0 -8 10 -17 23 -19
l22 -4 -22 -2 c-27 -1 -31 -21 -5 -22 14 0 14 -2 -3 -8 -17 -7 -15 -9 15 -16
l35 -8 -30 -8 c-18 -5 -31 -5 -33 1 -5 13 -22 13 -22 0 0 -5 15 -14 33 -19
l32 -9 -32 -1 c-43 -1 -53 -21 -11 -22 l33 -1 -35 -13 c-19 -7 -27 -14 -17
-14 23 -1 23 -48 0 -54 -17 -4 -17 -5 0 -6 13 -1 17 -10 16 -43 0 -36 -2 -39
-9 -20 -5 12 -13 22 -18 22 -14 0 -33 -48 -22 -55 6 -4 10 -17 10 -31 0 -18
-6 -24 -22 -25 -22 0 -22 -1 -3 -9 17 -7 17 -9 3 -9 -23 -1 -23 -10 0 -28 16
-13 15 -14 -5 -10 -30 7 -30 -11 0 -23 17 -7 18 -9 5 -9 -10 -1 -18 -7 -18
-14 0 -7 -10 -17 -22 -22 -13 -6 -24 -20 -26 -33 -2 -13 -10 -26 -18 -29 -18
-7 -18 -39 1 -46 11 -5 12 -12 4 -37 -6 -16 -8 -37 -5 -45 3 -9 0 -15 -9 -15
-9 0 -12 6 -9 18 4 10 3 13 -3 6 -4 -7 -17 -14 -28 -17 -18 -4 -18 -5 3 -6 12
0 22 -6 22 -12 0 -6 -9 -8 -20 -4 -18 6 -20 2 -18 -29 3 -38 18 -51 18 -15 0
25 15 17 23 -11 3 -12 1 -20 -6 -19 -42 5 -57 -2 -57 -25 0 -18 7 -26 23 -29
19 -4 18 -4 -5 -6 -22 -1 -28 3 -28 21 0 34 -9 15 -11 -23 -1 -30 -21 -132
-35 -181 -3 -10 -13 -18 -23 -18 -9 0 -26 -7 -37 -15 -20 -16 -21 -16 65 1 21
5 22 3 8 -11 -9 -8 -25 -15 -36 -15 -11 0 -19 -6 -17 -12 1 -7 1 -10 -1 -5 -7
11 -33 9 -33 -3 0 -5 5 -10 10 -10 6 0 10 -9 10 -20 0 -22 -16 -27 -23 -7 -6
16 -14 8 -19 -18 -3 -17 2 -19 32 -17 l35 2 -39 -17 c-28 -11 -41 -13 -44 -5
-4 12 -32 5 -32 -8 0 -5 15 -12 33 -16 l32 -7 -26 -11 c-14 -6 -24 -17 -22
-23 3 -7 0 -13 -6 -13 -6 0 -11 5 -11 10 0 6 -5 10 -11 10 -11 0 -9 -28 6 -62
4 -10 3 -18 -3 -18 -5 0 -13 10 -17 23 -21 59 -24 61 -22 15 2 -35 6 -48 17
-48 12 -1 12 -3 -3 -14 -11 -8 -15 -20 -11 -32 5 -16 4 -16 -5 -4 -7 10 -11
11 -11 3 0 -7 -9 -22 -21 -34 -11 -11 -18 -27 -15 -35 3 -8 9 -21 12 -29 5
-11 -1 -15 -20 -15 -14 0 -26 -4 -26 -9 0 -5 -8 -12 -17 -14 -10 -2 -3 -2 15
0 22 3 32 1 27 -6 -3 -6 -23 -11 -43 -11 -20 0 -44 -5 -52 -10 -11 -7 -4 -10
25 -10 38 0 65 -13 65 -32 0 -4 -4 -8 -10 -8 -5 0 -10 7 -10 15 0 8 -9 15 -20
15 -13 0 -18 -5 -14 -15 7 -18 -17 -20 -34 -3 -8 8 -12 9 -12 1 0 -6 5 -13 12
-15 20 -7 0 -38 -24 -39 -23 0 -23 0 -2 -9 17 -7 21 -15 18 -39 -2 -16 0 -33
5 -36 5 -3 4 -16 -2 -29 -8 -17 -15 -21 -23 -15 -8 6 -17 1 -28 -16 -9 -14
-12 -25 -7 -25 6 0 2 -13 -7 -30 l-17 -30 -6 28 c-5 20 -7 15 -6 -20 0 -46 1
-47 17 -28 9 11 20 17 23 14 7 -8 -14 -54 -25 -54 -4 0 -8 -10 -8 -22 0 -21 0
-21 -16 -2 -15 19 -15 19 -11 -2 4 -18 0 -20 -22 -16 -21 4 -24 2 -13 -9 17
-18 15 -44 -4 -60 -13 -10 -17 -10 -24 2 -6 9 -12 10 -19 4 -13 -14 5 -55 24
-55 9 0 15 -9 14 -22 0 -13 -3 -17 -6 -10 -2 6 -12 12 -22 12 -9 0 -22 5 -28
11 -7 7 -20 8 -34 3 -13 -4 -35 -6 -48 -5 -18 2 -22 -1 -18 -13 4 -9 3 -16 -1
-17 -4 0 -23 -2 -42 -4 -29 -3 -31 -2 -12 5 17 8 22 17 21 47 0 35 -1 36 -11
16 -13 -28 -25 -29 -33 -4 -3 11 -12 22 -20 25 -23 8 -18 26 7 26 21 0 21 0 3
14 -16 11 -17 17 -7 29 9 10 10 17 2 22 -5 3 -10 1 -10 -5 0 -29 -18 5 -24 45
-4 24 -11 47 -16 50 -4 3 -6 15 -2 27 4 16 2 20 -10 15 -12 -4 -17 6 -22 50
-7 63 -28 133 -38 133 -5 0 -8 16 -8 35 0 19 -5 35 -11 35 -5 0 -7 5 -4 10 4
6 2 16 -3 23 -16 19 -52 119 -52 144 0 12 -4 25 -10 28 -5 3 -10 16 -10 29 0
12 -11 49 -24 82 -31 80 -38 99 -34 100 2 0 -3 8 -11 18 -8 9 -11 19 -8 23 3
3 0 18 -8 33 -8 15 -16 43 -18 61 -2 19 -9 45 -15 59 -18 41 -72 218 -72 235
0 9 -5 13 -11 10 -6 -4 -9 -1 -7 6 1 8 -5 32 -14 54 -9 22 -15 42 -15 45 1 3
-6 19 -15 35 -22 40 -32 67 -29 83 1 6 -3 12 -9 12 -6 0 -10 6 -9 13 3 15 -50
131 -62 135 -4 2 -5 10 -2 18 3 8 -1 14 -8 14 -7 0 -10 3 -7 6 4 3 -16 56 -44
117 -27 62 -51 120 -54 131 -4 21 -12 32 -19 25 -2 -3 9 -39 26 -80 59 -144
188 -497 218 -600 91 -306 186 -794 231 -1184 11 -99 25 -216 30 -260 5 -44
12 -127 14 -185 5 -102 5 -103 -4 -30 -6 41 -19 158 -31 260 -42 376 -100 735
-158 988 -47 204 -49 212 -68 205 -12 -5 -15 -2 -10 10 3 9 2 17 -3 17 -6 0
-10 4 -10 9 0 18 -64 120 -72 115 -4 -3 -8 4 -8 15 0 12 -3 21 -7 21 -5 0 -21
18 -37 40 -16 21 -33 37 -37 34 -5 -3 -6 2 -3 10 4 9 -1 18 -10 22 -9 3 -16
14 -16 24 0 11 -4 22 -10 25 -6 4 -7 -1 -3 -12 3 -10 3 -15 0 -12 -4 3 -18 41
-31 85 -47 156 -183 498 -288 724 -161 345 -558 959 -809 1250 -559 648 -1023
1051 -1639 1422 -125 76 -576 306 -745 380 -301 134 -879 329 -1133 383 -57
13 -79 21 -70 27 9 7 4 8 -14 4 -34 -8 -89 4 -82 16 4 6 27 7 58 3 28 -4 62
-9 76 -10 14 -2 49 -8 79 -14 30 -6 56 -9 58 -7 4 4 -54 17 -257 60 -81 17
-120 21 -133 14 -10 -5 -21 -7 -25 -4 -3 3 1 6 9 7 8 0 -2 6 -21 13 -29 11
-39 10 -59 -2 -27 -16 -104 -10 -129 11 -13 9 -14 9 -8 0 6 -10 1 -11 -21 -2
-15 6 -29 9 -30 7 -1 -2 -5 0 -9 5 -4 4 -2 7 4 7 5 0 18 3 28 7 10 4 15 2 11
-3 -3 -6 12 -8 36 -5 l42 5 -40 6 c-22 4 -62 10 -90 14 -47 6 -49 5 -27 -9 12
-9 22 -21 22 -28 0 -8 -3 -8 -11 0 -6 6 -18 9 -25 6 -8 -3 -14 -1 -14 5 0 6
-9 8 -20 5 -11 -3 -20 0 -20 6 0 6 5 11 10 11 19 0 10 16 -10 17 -14 1 -20 -4
-20 -18 0 -13 -7 -19 -21 -19 -18 0 -19 2 -9 15 17 21 8 27 -37 29 -21 0 -41
5 -44 9 -9 13 -61 -11 -53 -25 5 -8 0 -9 -17 -5 -13 4 -31 7 -39 7 -13 0 -13
1 0 10 24 15 6 20 -34 9 -21 -6 -40 -8 -42 -6 -3 2 16 10 41 16 25 6 45 12 45
14 0 1 -29 4 -65 5 -36 1 -73 6 -83 11 -18 9 -539 25 -747 22 -116 -1 -292
-14 -346 -25 -14 -3 -42 -7 -62 -8 -34 -3 -35 -4 -20 -17 19 -14 19 -14 -47 6
-13 4 -13 4 0 -7 12 -9 3 -10 -37 -5 -30 4 -53 3 -53 -2 0 -5 -44 -11 -97 -12
-53 -1 -104 -6 -113 -11 -9 -5 -42 -11 -73 -14 -31 -2 -61 -7 -66 -11 -6 -3
-27 -8 -48 -11 -20 -2 -53 -9 -72 -14 -20 -5 -85 -21 -146 -35 -93 -21 -281
-66 -335 -79 -126 -32 -301 -87 -400 -126 -30 -12 -71 -26 -90 -32 -19 -6 -39
-17 -43 -24 -5 -8 -13 -12 -18 -8 -13 8 -61 -24 -54 -36 4 -6 12 -10 18 -10 8
0 8 3 -1 9 -11 7 -10 10 3 15 24 9 27 8 19 -6 -4 -7 2 -5 13 5 11 10 29 19 39
21 11 2 33 7 49 10 30 6 30 6 5 -6 -65 -31 -130 -58 -142 -58 -8 0 -23 -7 -34
-15 -10 -8 -24 -15 -30 -15 -23 0 -432 -179 -580 -253 -638 -318 -1270 -781
-1715 -1259 -456 -490 -608 -694 -913 -1222 -243 -421 -406 -755 -553 -1131
-53 -138 -148 -404 -163 -458 -7 -26 -16 -50 -21 -53 -4 -2 -6 -12 -3 -22 5
-16 5 -16 -9 1 -20 24 -24 22 -32 -13 -4 -16 -11 -30 -16 -30 -5 0 -17 -16
-26 -35 -9 -19 -21 -35 -26 -35 -5 0 -7 -7 -4 -15 4 -8 2 -17 -3 -20 -13 -8
-60 -95 -60 -112 0 -8 -5 -11 -12 -7 -8 5 -9 0 -6 -14 4 -13 1 -22 -5 -22 -7
0 -13 -14 -14 -31 -1 -17 -8 -37 -14 -45 -6 -8 -9 -14 -6 -14 3 0 1 -15 -4
-32 -31 -99 -74 -335 -98 -538 -52 -427 -52 -1067 -1 -1350 6 -30 12 -71 15
-90 12 -99 86 -532 119 -700 2 -14 10 -50 16 -80 20 -104 73 -290 81 -290 5 0
9 10 10 23 0 14 7 5 20 -28 11 -27 24 -59 29 -70 5 -11 32 -93 61 -182 28 -90
55 -163 60 -163 5 0 5 10 0 23 -11 29 -40 130 -41 140 0 4 -6 20 -13 35 -8 15
-12 32 -10 39 2 6 0 14 -6 17 -6 4 -8 13 -4 21 3 8 0 15 -7 15 -6 0 -9 4 -6 8
2 4 -18 104 -45 222 -60 261 -103 476 -119 590 -6 47 -14 93 -17 103 -2 9 -1
17 4 17 4 0 16 -51 26 -112 54 -329 167 -803 259 -1088 85 -263 235 -626 363
-880 74 -148 277 -498 383 -660 222 -341 475 -661 758 -955 93 -97 168 -181
167 -186 -2 -5 0 -8 5 -7 12 4 52 -26 52 -39 0 -7 4 -13 10 -13 5 0 7 -7 4
-15 -4 -10 -2 -13 7 -10 8 3 24 -9 37 -29 66 -96 280 -285 465 -409 63 -42
140 -103 183 -144 7 -7 15 -13 19 -13 3 0 11 -5 18 -10 7 -6 26 -22 42 -35 17
-14 58 -41 92 -61 60 -34 77 -56 51 -67 -7 -3 2 -3 20 0 20 3 32 1 32 -6 0 -6
6 -11 13 -11 7 0 23 -9 35 -20 12 -11 25 -20 29 -20 5 0 32 -16 61 -35 29 -20
56 -34 60 -31 5 3 15 -4 22 -15 8 -10 24 -19 37 -19 12 0 25 -4 28 -10 3 -5
13 -10 22 -10 9 0 30 -10 47 -23 17 -13 51 -33 76 -45 62 -30 101 -57 94 -65
-4 -4 24 -21 62 -38 38 -17 87 -39 109 -49 38 -18 234 -90 245 -90 3 0 -2 -5
-10 -11 -12 -9 -11 -10 4 -5 14 5 26 -1 41 -18 14 -16 26 -22 35 -16 17 11 40
2 34 -14 -3 -7 17 -19 51 -30 30 -11 55 -22 55 -25 0 -4 11 -8 23 -9 13 -1 37
-8 53 -17 16 -8 44 -18 62 -21 17 -3 32 -10 32 -15 0 -5 3 -8 8 -8 27 5 52 -2
46 -13 -5 -8 -2 -9 10 -5 23 9 68 -2 60 -15 -4 -6 2 -8 15 -3 11 3 26 3 33 -1
7 -5 19 -9 28 -10 8 -1 71 -16 139 -33 134 -35 178 -44 583 -126 439 -89 646
-114 1029 -122 265 -6 369 0 664 33 72 8 150 17 175 19 134 13 474 76 674 126
87 21 162 36 167 34 4 -3 10 -1 14 5 3 5 11 10 16 10 6 0 7 -4 4 -10 -3 -5 -1
-10 4 -10 6 0 11 4 11 9 0 5 7 12 16 15 9 4 13 2 8 -5 -4 -8 0 -7 15 0 12 7
26 9 31 6 6 -3 10 -1 10 6 0 7 3 9 6 6 4 -3 14 -2 23 2 9 5 35 11 59 15 24 3
125 30 225 61 186 56 200 61 347 115 47 18 92 33 100 34 21 3 73 26 80 34 9
12 49 32 65 32 8 0 15 5 15 11 0 5 5 7 10 4 6 -3 10 -1 10 5 0 6 11 8 23 6 20
-3 23 0 20 17 -4 19 6 26 64 51 102 44 341 164 398 200 28 18 71 43 97 56 26
13 46 27 45 32 -3 13 82 60 95 52 7 -4 8 -2 4 5 -5 8 0 10 17 7 18 -3 24 0 23
12 -1 11 6 16 17 16 10 -1 16 1 13 4 -12 11 191 135 206 126 6 -4 8 -2 5 3 -6
10 38 47 56 48 4 0 11 5 15 11 8 12 43 28 55 25 5 -1 6 3 3 8 -3 4 31 32 77
61 45 29 101 67 123 84 23 17 52 38 64 46 12 8 28 20 35 27 7 7 15 9 19 6 3
-4 6 -1 6 6 0 7 3 10 8 8 4 -3 15 3 24 12 12 12 14 21 7 31 -8 13 -11 13 -20
-2 -5 -10 -15 -18 -22 -18 -8 0 -8 3 1 9 11 7 10 9 -3 14 -9 4 -14 3 -11 -1 2
-4 -2 -16 -10 -27 -8 -10 -14 -15 -14 -11 0 9 -74 -42 -114 -80 -18 -17 -90
-61 -98 -60 -4 1 -13 -6 -20 -15 -18 -22 -290 -201 -296 -194 -3 2 -13 -5 -23
-17 -11 -11 -19 -17 -19 -12 0 5 -4 2 -10 -6 -5 -8 -12 -11 -16 -7 -9 9 -20 1
136 102 171 111 366 252 449 323 l64 56 17 -22 c10 -11 20 -19 23 -15 4 3 -3
13 -15 22 -20 17 -19 19 86 104 58 48 110 87 116 87 5 0 14 9 20 20 6 11 15
18 21 15 5 -4 8 -2 7 3 -2 5 42 49 97 98 255 227 627 613 801 829 94 118 454
650 551 815 44 74 97 170 197 355 79 144 299 673 371 890 116 350 215 755 255
1045 21 146 50 446 50 515 0 39 3 80 6 92 8 29 24 20 19 -9 -3 -12 0 -27 6
-35 6 -7 9 -22 6 -33 -3 -11 -1 -20 3 -20 5 0 10 -12 12 -27 2 -19 8 -27 18
-24 8 2 21 4 28 4 6 0 12 10 12 21 0 17 2 18 10 6 10 -17 16 -7 24 45 13 87
-8 -223 -25 -355 -36 -285 -87 -539 -185 -918 -101 -393 -265 -806 -514 -1297
-219 -432 -639 -1066 -902 -1361 -555 -623 -1005 -1018 -1569 -1377 -305 -194
-431 -263 -734 -402 -535 -246 -885 -368 -1470 -510 -539 -132 -847 -169
-1395 -169 -380 0 -507 9 -965 70 -595 79 -847 142 -1425 356 -293 108 -755
335 -1065 521 -391 236 -885 619 -1219 947 -255 250 -600 655 -762 895 -412
610 -722 1230 -934 1872 -31 95 -60 170 -63 167 -3 -4 1 -23 9 -42 8 -20 12
-42 10 -49 -3 -7 -1 -13 5 -13 6 0 8 -9 4 -20 -3 -11 -2 -20 3 -20 5 0 10 -6
9 -12 0 -7 1 -26 2 -43 1 -23 3 -27 11 -15 8 12 10 10 10 -10 0 -14 14 -74 30
-135 17 -60 35 -140 41 -177 6 -37 15 -65 20 -63 4 3 8 -3 7 -12 -1 -27 61
-256 72 -267 6 -6 10 -20 10 -33 0 -12 9 -38 19 -57 21 -37 46 -113 44 -134 0
-7 2 -11 5 -8 6 6 52 -101 52 -122 0 -12 20 -53 31 -62 3 -3 11 -27 18 -55 7
-27 18 -56 24 -64 14 -16 38 -80 39 -101 0 -8 5 -21 11 -28 6 -7 27 -47 48
-89 29 -57 35 -80 27 -90 -8 -10 -6 -13 6 -13 9 0 16 -8 17 -17 3 -79 10 -109
29 -125 13 -10 18 -22 14 -29 -4 -7 -3 -9 4 -5 14 8 34 -28 26 -48 -4 -10 7
-28 30 -51 21 -21 36 -44 36 -58 0 -14 11 -36 25 -50 16 -15 22 -28 15 -32
-18 -11 -11 -35 10 -35 25 0 26 -17 1 -25 -20 -6 -22 -20 -7 -43 16 -27 -4
-23 -28 4 -19 22 -25 25 -26 12 0 -9 4 -20 10 -23 17 -10 11 -25 -10 -25 -10
0 -30 -12 -44 -27 l-24 -26 -7 39 c-11 63 -13 63 -14 -3 -1 -35 -5 -63 -11
-63 -5 0 -10 14 -10 30 0 22 -5 30 -17 30 -17 1 -17 2 0 14 12 10 15 16 7 21
-6 4 -18 -1 -25 -11 -13 -18 -14 -18 -15 -1 0 22 -19 22 -27 0 -9 -25 -23 -33
-56 -33 -17 0 -26 4 -22 10 4 7 -2 9 -19 4 -21 -5 -26 -3 -26 12 -1 18 -1 18
-14 2 -7 -10 -23 -18 -35 -18 -12 0 -19 -4 -16 -10 3 -5 -1 -10 -9 -10 -9 0
-16 7 -16 16 0 15 -2 15 -24 0 -15 -10 -27 -12 -31 -6 -3 6 -3 10 2 10 4 0 1
5 -7 10 -12 7 -12 12 -3 21 9 9 15 9 26 0 11 -9 17 -8 27 4 11 13 10 14 -4 9
-9 -3 -22 -1 -30 5 -7 6 -16 8 -19 5 -3 -4 -21 -10 -39 -14 -31 -8 -32 -8 -5
-9 41 -2 32 -18 -13 -23 -28 -2 -40 0 -40 9 0 7 -7 13 -16 13 -8 0 -22 7 -30
15 -14 14 -41 20 -72 16 -8 -1 -20 3 -28 10 -11 9 -14 8 -14 -7 -1 -18 -1 -18
-11 -1 -5 9 -19 17 -29 17 -11 0 -20 5 -20 10 0 6 -11 8 -25 4 -14 -4 -32 -1
-40 6 -8 7 -21 10 -29 7 -10 -4 -13 -1 -9 9 6 15 25 14 67 -2 9 -4 16 -1 16 6
0 10 3 10 15 0 19 -16 19 -1 0 24 -13 17 -15 18 -15 3 0 -9 -7 -17 -15 -17 -9
0 -15 7 -13 16 2 10 -3 19 -11 22 -8 3 -11 0 -7 -7 4 -6 1 -11 -6 -12 -7 0
-25 -3 -41 -5 -15 -3 -35 -1 -45 4 -10 6 -26 6 -42 -1 -25 -10 -25 -10 -2 -14
24 -5 31 -23 8 -23 -15 0 -38 23 -35 36 4 26 -3 44 -17 44 -10 0 -14 -6 -11
-14 4 -10 1 -13 -9 -9 -9 3 -12 12 -8 25 4 14 2 19 -7 16 -14 -5 -21 -48 -7
-48 4 0 8 -5 8 -11 0 -7 -11 -8 -29 -4 -23 5 -30 2 -34 -12 -4 -15 -5 -14 -6
3 0 12 6 24 14 28 30 11 16 28 -17 22 -18 -3 -40 -1 -48 4 -11 7 -6 10 22 10
20 0 39 3 41 8 3 4 -16 7 -41 6 -26 0 -51 5 -55 10 -6 8 -10 7 -14 -1 -6 -17
-23 -16 -23 1 0 7 -8 20 -17 27 -15 12 -16 12 -11 -2 5 -13 2 -16 -13 -12 -14
4 -19 0 -19 -16 0 -11 -4 -21 -10 -21 -5 0 -10 9 -10 20 0 11 -7 20 -15 20 -9
0 -12 -6 -8 -17 6 -15 5 -16 -9 -3 -9 8 -12 17 -7 18 14 6 11 22 -4 22 -23 0
-81 32 -99 54 -15 18 -20 19 -37 9 -12 -7 -37 -13 -57 -13 -31 0 -35 2 -24 15
10 12 16 12 26 4 18 -15 44 -4 44 17 0 13 -3 14 -15 4 -12 -10 -16 -9 -21 4
-8 20 -30 21 -38 1 -7 -19 -26 -19 -26 0 0 18 -16 20 -23 3 -3 -9 -10 -7 -21
7 -8 11 -16 15 -16 8 0 -20 -80 -17 -80 2 0 11 -11 15 -39 15 -22 0 -41 -3
-43 -8 -1 -4 -39 -4 -83 -1 -77 5 -73 7 30 13 31 2 24 21 -8 21 -16 1 -32 7
-37 15 -7 10 -10 11 -10 3 0 -7 -9 -13 -19 -13 -11 0 -22 -6 -25 -12 -3 -7 -3
-1 0 15 5 22 3 27 -14 27 -15 0 -19 -5 -15 -19 7 -27 -17 -38 -33 -16 -12 15
-11 20 4 31 23 17 6 34 -39 38 -19 2 -24 1 -11 -1 33 -6 27 -18 -10 -18 -29 0
-33 3 -32 28 0 15 -4 27 -9 27 -5 0 -4 7 3 15 8 10 9 15 2 15 -6 0 -10 6 -8
13 1 6 1 9 -1 5 -6 -11 -113 -10 -113 1 0 5 -11 11 -25 13 -14 3 -25 1 -25 -3
0 -10 -31 -12 -54 -3 -9 3 -16 14 -16 24 0 13 -6 16 -25 12 -30 -5 -65 6 -48
16 8 5 7 11 -3 20 -12 10 -14 10 -14 -3 0 -8 -4 -15 -10 -15 -5 0 -10 4 -10 9
0 5 -17 7 -37 4 -34 -4 -39 -1 -50 23 -7 16 -13 34 -13 41 0 7 -4 13 -10 13
-5 0 -10 -7 -10 -15 0 -21 -18 -19 -23 3 -4 16 -5 16 -6 0 0 -10 -8 -18 -16
-18 -11 0 -15 11 -15 43 0 42 -1 44 -32 45 -28 1 -39 8 -52 37 -3 6 -14 -1
-26 -15 -19 -22 -22 -22 -18 -5 2 13 -3 20 -12 20 -8 0 -14 -6 -12 -13 6 -28
-24 -4 -35 29 -7 19 -12 26 -12 16 -1 -24 -30 -19 -45 8 -6 11 -17 24 -24 28
-6 4 -12 18 -12 29 0 16 -3 19 -11 11 -8 -8 -8 -17 0 -31 14 -26 15 -54 1 -32
-5 8 -22 15 -37 15 -26 0 -28 4 -33 45 -5 41 -6 43 -17 25 -13 -20 -13 -20
-28 -1 -17 23 -19 36 -5 36 6 0 10 7 10 15 0 8 -4 15 -10 15 -5 0 -10 -7 -10
-15 0 -18 -16 -20 -23 -2 -4 10 -6 10 -6 0 -1 -7 -8 -13 -16 -13 -18 0 -17 -3
-6 37 8 26 7 31 -5 26 -8 -3 -13 -12 -12 -21 4 -22 -19 -27 -24 -5 -3 10 3 27
11 37 15 18 15 19 -1 13 -9 -3 -19 -1 -22 6 -2 7 -5 2 -5 -10 -1 -28 -21 -31
-21 -3 0 11 -4 20 -10 20 -5 0 -10 -9 -10 -20 0 -11 -4 -20 -10 -20 -10 0 -14
18 -12 60 1 23 1 23 -8 5 -6 -14 -9 -15 -10 -5 0 12 -3 12 -14 -2 -17 -23 -26
-23 -26 1 0 22 -38 35 -57 20 -14 -12 -36 -2 -27 12 8 13 -30 49 -51 49 -18 0
-20 16 -3 23 7 3 3 6 -9 6 -12 1 -28 -5 -36 -13 -9 -9 -19 -11 -28 -5 -12 8
-12 10 0 18 11 7 11 10 0 16 -9 6 -8 10 7 16 14 6 9 8 -18 8 -24 1 -46 9 -59
22 -14 14 -28 19 -45 15 -14 -4 -24 -2 -24 4 0 5 5 10 10 10 6 0 10 14 10 30
0 35 -17 40 -23 8 -4 -23 -4 -23 -12 -2 -3 12 -18 27 -31 35 -17 8 -24 19 -21
31 3 9 -1 25 -9 35 -12 17 -13 16 -7 -5 5 -21 3 -22 -21 -12 -15 5 -38 10 -51
10 -12 0 -23 6 -22 13 0 6 -1 25 -1 41 -2 25 -4 27 -18 15 -13 -10 -17 -10
-24 1 -5 8 -6 18 -4 22 3 4 -1 14 -8 22 -9 10 -17 11 -30 3 -9 -6 -21 -8 -25
-4 -4 5 -1 12 7 17 8 5 11 12 7 17 -4 4 -17 2 -28 -5 -22 -14 -39 -8 -39 14 0
8 -13 20 -30 25 -19 7 -30 18 -30 29 0 13 -9 20 -27 23 l-28 4 28 2 c15 0 27
6 27 12 0 7 -10 9 -27 5 -20 -5 -24 -4 -13 3 12 8 12 13 2 23 -10 10 -15 10
-22 -2 -5 -8 -13 -11 -17 -6 -4 5 -2 11 5 13 20 8 13 26 -8 20 -11 -3 -21 0
-22 6 0 7 -2 17 -2 22 -2 13 -12 16 -30 9 -8 -3 -25 1 -38 10 -28 20 -42 20
-62 0 -15 -14 -16 -14 -16 5 0 14 5 19 14 15 9 -3 20 3 28 15 7 12 20 21 28
21 13 0 13 1 0 10 -12 8 -10 10 10 10 15 0 21 3 14 10 -11 11 -84 2 -84 -11 0
-5 -7 -9 -15 -9 -8 0 -15 5 -15 10 0 6 5 10 11 10 6 0 17 7 26 15 14 14 13 15
-11 9 -16 -4 -26 -2 -26 5 0 6 8 11 18 11 13 0 14 2 4 9 -8 4 -13 11 -13 15 3
19 0 18 -15 -2 -19 -27 -39 -28 -41 -2 -1 11 2 20 8 20 5 0 9 5 9 10 0 17 -27
11 -35 -7 -6 -16 -8 -15 -24 6 -18 23 -19 23 -29 5 -10 -17 -11 -17 -12 -1 0
9 -4 17 -10 17 -5 0 -10 -7 -10 -15 0 -8 -7 -15 -15 -15 -8 0 -15 9 -15 19 0
12 -9 21 -25 25 -14 4 -24 12 -22 18 1 7 -14 18 -33 24 l-35 13 30 1 c17 0 37
5 45 11 11 7 5 8 -22 3 -27 -4 -42 -2 -53 10 -9 9 -31 16 -48 16 -29 1 -30 2
-12 12 11 6 22 14 25 18 3 4 14 12 25 18 18 10 17 11 -12 12 -25 0 -31 4 -27
15 4 8 2 15 -4 15 -6 0 -13 -6 -15 -12 -3 -7 -6 7 -8 32 -1 25 -4 35 -6 23 -6
-32 -21 -29 -25 5 -2 19 -9 28 -25 30 -13 2 -23 10 -23 19 0 12 -3 13 -14 4
-10 -9 -16 -9 -21 -1 -4 6 1 18 11 25 17 13 17 14 2 15 -9 0 -25 16 -37 35
-14 25 -27 35 -45 35 -14 0 -28 5 -32 11 -5 9 7 10 42 5 l49 -7 -42 20 c-23
11 -51 17 -61 14 -21 -5 -39 12 -22 22 5 3 10 1 10 -4 0 -15 11 -13 35 5 17
13 18 16 5 24 -8 5 -22 10 -30 10 -13 0 -13 -2 0 -11 12 -9 12 -10 -3 -5 -10
3 -21 6 -23 6 -10 0 -3 79 9 83 6 3 1 6 -12 6 -19 1 -22 -3 -18 -22 7 -27 -6
-52 -23 -42 -7 4 -9 17 -6 31 5 20 3 24 -16 24 -15 0 -27 9 -33 23 -6 12 -20
23 -31 25 -19 3 -21 7 -14 39 5 19 5 45 0 57 -7 17 -9 18 -9 4 -1 -10 -8 -18
-17 -18 -12 0 -15 6 -11 23 8 29 -6 52 -27 44 -9 -4 -16 -2 -16 3 0 5 -7 7
-15 4 -10 -4 -15 0 -15 11 0 9 6 15 12 13 20 -7 43 21 29 35 -8 8 -11 7 -11
-6 0 -24 -15 -21 -37 7 -17 22 -20 22 -30 8 -17 -27 -24 -9 -8 21 13 25 12 28
-8 42 -12 8 -27 15 -34 15 -7 0 -10 6 -7 14 6 15 -51 40 -69 29 -6 -3 -7 -1
-3 6 8 13 -14 81 -26 81 -5 0 -18 -9 -30 -20 -12 -11 -25 -20 -30 -20 -15 0
-8 15 12 28 20 12 28 52 10 52 -5 0 -10 -9 -10 -20 0 -11 -4 -20 -8 -20 -5 0
-8 20 -8 45 1 38 -2 44 -16 39 -10 -3 -18 -1 -18 4 0 6 -10 8 -22 4 -23 -5
-23 -5 -4 16 18 21 18 22 0 29 -11 5 -19 17 -19 28 0 12 -9 21 -24 25 -33 7
-38 28 -10 38 l23 9 -23 6 c-19 5 -22 10 -17 31 4 15 2 26 -4 26 -5 0 -10 -9
-10 -20 0 -44 -18 -16 -23 36 -3 31 -11 62 -16 67 -8 8 -11 7 -11 -3 0 -8 -12
-1 -29 18 -17 17 -35 32 -40 32 -16 0 -13 26 4 40 18 15 20 31 3 29 -50 -6
-80 13 -38 24 11 3 20 1 20 -5 0 -5 4 -6 10 -3 18 11 11 24 -17 31 -16 4 -38
18 -50 31 -26 27 -32 53 -8 33 8 -7 15 -9 15 -4 -1 17 -25 42 -44 45 -27 6
-32 29 -7 29 12 0 21 6 21 15 0 11 -7 14 -24 9 -16 -4 -25 -1 -29 10 -7 17 8
30 23 21 6 -3 10 1 10 10 0 9 -4 13 -10 10 -5 -3 -15 3 -22 14 -8 14 -16 17
-24 10 -8 -7 -15 -6 -19 2 -4 6 -1 15 6 20 9 7 5 7 -13 3 -27 -6 -39 8 -18 21
17 10 11 25 -9 25 -11 0 -22 -6 -24 -12 -3 -7 -6 17 -6 54 -1 44 3 68 11 71 7
3 -3 6 -22 6 -26 1 -31 -2 -20 -9 12 -7 12 -12 3 -21 -10 -10 -14 -9 -19 4 -3
9 -14 17 -23 18 -12 0 -12 2 4 9 18 8 17 10 -12 21 -37 15 -41 23 -15 39 13 9
8 10 -25 7 -24 -3 -43 -1 -43 4 0 5 15 9 33 10 31 0 32 0 7 11 -24 10 -24 10
-5 18 16 6 11 10 -30 22 -46 14 -48 16 -27 27 14 7 22 8 22 1 0 -5 5 -10 10
-10 7 0 7 6 0 20 -6 11 -19 20 -30 20 -24 0 -46 36 -27 43 9 4 9 6 0 6 -18 1
-16 21 2 21 8 0 15 5 15 10 0 6 -11 10 -24 10 -19 0 -26 -6 -29 -27 -3 -20 -4
-16 -6 14 -1 35 2 41 15 36 14 -5 14 -3 2 16 -12 19 -14 20 -25 5 -10 -14 -14
-11 -32 24 -19 38 -19 41 -3 46 9 3 5 4 -9 2 -24 -2 -26 1 -27 35 -2 32 1 36
17 32 11 -3 28 0 38 7 15 10 13 10 -14 6 -18 -3 -33 -1 -33 4 0 5 -11 12 -24
16 -17 4 -25 14 -28 33 -4 24 -1 27 16 23 28 -6 9 13 -21 22 -15 5 -22 2 -25
-8 -2 -10 -8 -13 -16 -7 -10 6 -5 14 20 29 l33 21 -35 15 c-19 8 -29 15 -22
16 17 0 15 20 -3 20 -8 0 -15 5 -15 10 0 6 -7 10 -15 10 -8 0 -15 5 -15 10 0
6 5 10 11 10 7 0 9 9 6 22 -4 13 0 26 8 32 10 7 12 16 6 25 -7 11 -10 9 -16
-8 -8 -26 -17 -27 -40 -1 -16 17 -16 20 -2 20 8 0 17 -4 19 -9 2 -5 11 2 21
15 l18 24 -41 0 c-42 0 -56 16 -17 22 17 2 22 10 24 33 1 20 0 23 -4 8 -4 -20
-10 -23 -46 -22 l-42 2 35 7 35 7 -45 3 c-43 2 -44 3 -17 13 26 11 37 27 17
27 -19 0 -10 21 12 29 l22 8 -21 12 c-28 14 -34 14 -32 -1 4 -31 -2 -48 -17
-48 -8 0 -12 5 -9 10 3 6 -1 10 -9 10 -12 0 -16 11 -16 44 0 25 5 48 12 52 7
5 4 10 -11 16 -12 4 -20 12 -16 17 3 5 1 12 -5 16 -5 3 -10 17 -10 30 0 13 -4
25 -9 27 -5 2 -20 31 -34 66 -22 55 -23 64 -10 77 8 8 10 15 4 15 -5 0 -16 -7
-25 -15 -16 -16 -31 -20 -22 -6 3 4 0 35 -6 67 -6 32 -11 71 -11 87 0 20 -6
29 -23 33 -13 4 -24 12 -24 19 0 8 -8 16 -17 18 -13 3 -12 5 5 6 35 2 24 34
-13 42 -29 6 -27 8 15 22 8 3 0 6 -18 6 -29 1 -33 4 -30 23 2 13 11 24 22 26
15 3 18 0 13 -17 -3 -14 0 -21 9 -21 8 0 14 10 14 23 0 17 -9 26 -35 36 -19 7
-38 10 -42 8 -5 -3 -14 1 -21 9 -11 12 -10 14 3 14 8 0 15 5 15 10 0 7 -15 9
-37 5 -21 -3 -32 -2 -26 1 20 9 15 24 -7 24 -11 0 -20 5 -20 10 0 6 9 10 19
10 14 0 18 5 14 20 -3 11 -9 20 -14 20 -14 0 -11 38 3 43 10 4 10 6 1 6 -7 1
-13 8 -13 16 0 8 -6 24 -13 35 -10 17 -9 22 3 30 8 5 11 12 7 16 -4 4 -13 2
-19 -4 -19 -19 -30 -14 -23 9 9 26 -4 119 -16 119 -5 0 -9 -9 -9 -21 0 -11 -4
-17 -10 -14 -12 8 -3 46 14 57 6 4 8 8 4 9 -9 2 -25 6 -35 9 -5 1 3 6 17 10
l25 8 -22 7 c-27 9 -30 22 -5 28 16 4 16 5 0 6 -14 1 -18 10 -18 40 0 28 -5
41 -17 46 -17 6 -17 7 1 21 19 13 18 14 -15 15 l-34 1 40 12 39 13 -32 6 c-23
5 -30 11 -26 22 3 8 1 15 -5 15 -6 0 -11 11 -11 25 0 14 5 25 11 25 6 0 9 -6
6 -14 -3 -8 0 -17 8 -19 7 -3 15 3 18 14 3 10 1 19 -4 19 -5 0 -9 6 -9 14 0 7
-7 19 -15 26 -15 13 -15 23 2 96 3 13 -1 23 -9 27 -11 4 -13 -3 -10 -27 5 -28
3 -30 -12 -17 -12 10 -16 30 -16 77 0 36 -4 64 -10 64 -5 0 -10 9 -10 20 0 10
-8 24 -17 29 -17 10 -17 10 0 11 17 0 25 34 10 43 -5 3 -8 35 -8 71 0 62 -1
65 -21 60 -12 -3 -24 -1 -28 4 -3 5 8 12 25 16 26 5 29 8 19 21 -6 8 -8 20 -4
26 5 9 1 10 -14 7 -22 -6 -30 6 -12 17 5 3 6 13 3 22 -5 12 -2 15 10 10 11 -4
14 -2 10 9 -3 8 -11 13 -18 10 -8 -3 -11 2 -8 14 3 10 0 21 -6 24 -6 4 -11 16
-11 26 0 10 -6 21 -12 23 -7 3 -3 6 8 6 29 1 41 41 12 41 -10 0 -16 -4 -13
-10 3 -5 -1 -10 -10 -10 -29 0 -12 35 19 40 16 3 31 11 32 18 1 7 0 8 -3 2 -7
-14 -30 -13 -36 3 -4 9 -8 8 -16 -3 -5 -8 -13 -11 -18 -7 -4 5 -1 12 6 16 16
10 23 103 9 112 -15 10 0 29 17 22 8 -3 15 0 15 7 0 8 -9 11 -25 8 -22 -5 -24
-3 -18 20 4 18 1 29 -13 40 -18 13 -16 14 16 9 30 -5 32 -4 12 5 -26 13 -32
68 -8 68 8 0 17 4 21 9 3 6 -13 8 -40 5 -29 -2 -44 0 -40 6 3 6 17 10 31 10
14 0 24 6 24 15 0 9 -6 12 -18 8 -14 -5 -15 -3 -5 7 10 11 9 16 -5 26 -9 7
-13 16 -9 20 4 5 12 2 16 -5 6 -8 11 3 15 32 8 50 -1 97 -16 94 -6 -1 -13 4
-16 12 -3 10 0 12 14 7 15 -6 17 -5 7 5 -18 18 -16 32 3 25 12 -5 15 -2 10 10
-3 8 -6 28 -6 42 0 20 -3 23 -9 13 -5 -8 -7 -20 -4 -28 3 -7 -2 -13 -11 -13
-26 0 -18 32 16 69 l32 34 -26 -6 c-23 -6 -38 5 -38 29 0 10 29 3 33 -8 3 -7
6 -3 6 10 1 12 -3 22 -7 22 -4 0 -14 21 -21 48 -13 43 -14 45 -21 22 -9 -27
-10 -26 -14 8 -2 17 4 27 21 35 16 7 20 14 13 22 -5 7 -7 15 -3 18 3 4 1 7 -6
7 -7 0 -10 4 -6 9 3 5 1 12 -5 16 -7 4 -7 12 0 25 5 10 7 26 4 34 -4 11 0 16
14 16 12 0 24 5 27 10 3 6 -1 10 -9 10 -16 0 -20 10 -17 43 1 9 -4 17 -13 17
-9 0 -16 5 -16 10 0 6 12 10 28 10 24 1 25 2 10 14 -10 7 -18 20 -18 28 0 8
-5 19 -12 26 -8 8 -8 15 1 26 14 17 7 36 -15 36 -24 0 -16 30 9 31 16 1 18 2
5 6 -22 5 -24 23 -3 23 8 0 15 5 15 10 0 6 -7 10 -15 10 -18 0 -20 17 -2 23 6
2 -1 3 -18 1 l-30 -3 26 14 c42 23 49 75 11 75 -13 0 -12 3 4 15 15 11 16 15
4 15 -9 0 -6 6 9 14 l24 14 -23 12 c-18 10 -20 14 -9 21 11 7 11 9 -3 9 -9 0
-19 -6 -21 -12 -3 -7 -6 -1 -6 14 -1 26 0 26 35 17 19 -6 41 -8 47 -5 7 2 3 5
-8 6 -11 0 -28 7 -39 15 -17 13 -17 14 10 20 52 12 50 15 -6 10 -52 -5 -53 -5
-30 9 14 8 28 12 32 10 5 -3 8 0 8 5 0 6 -7 11 -15 11 -8 0 -15 5 -15 11 0 6
9 8 20 4 11 -4 20 -2 20 4 0 6 -9 11 -19 11 -11 0 -23 5 -26 10 -3 6 1 10 9
10 22 0 20 17 -1 23 -14 4 -12 5 5 6 28 1 28 19 -1 31 l-22 9 23 0 c19 1 22 6
22 41 0 22 -5 40 -11 40 -5 0 -8 4 -4 10 3 5 11 7 18 5 7 -3 20 8 29 25 9 16
14 29 10 29 -19 -3 -25 2 -12 11 12 8 10 10 -10 10 l-25 1 25 14 c14 8 19 14
11 15 -7 0 -11 6 -7 15 3 10 -1 15 -12 15 -13 0 -12 3 6 16 19 13 21 18 10 32
-10 12 -10 16 -1 19 23 8 15 32 -9 25 -14 -3 -19 -2 -14 6 4 7 14 12 22 12 20
0 18 26 -3 34 -15 6 -15 8 -3 16 13 8 12 10 -3 10 -10 0 -15 5 -12 10 4 6 12
10 18 9 7 -1 21 -1 32 0 19 2 19 2 2 15 -9 7 -17 21 -17 31 0 10 -8 24 -17 31
-17 12 -16 13 5 14 14 0 22 6 21 18 -1 21 -17 62 -18 45 -1 -7 -5 -13 -11 -13
-18 0 -10 24 15 49 14 13 23 26 19 30 -4 3 -9 0 -11 -7 -3 -6 -9 -9 -14 -6 -6
3 -17 0 -25 -7 -12 -10 -13 -9 -8 4 3 9 15 17 27 19 11 2 22 9 25 16 2 7 -2
10 -11 6 -24 -9 -32 17 -11 34 13 10 15 16 7 19 -18 7 -16 21 7 51 11 14 17
28 13 31 -13 10 -13 75 0 83 9 6 9 8 0 8 -17 0 -17 82 -1 98 9 9 9 12 0 12 -7
0 -12 6 -12 14 0 8 -6 17 -12 19 -7 3 -4 6 8 6 20 1 21 6 18 72 -2 39 -7 75
-10 81 -4 6 3 4 17 -5 30 -22 36 -21 42 3 6 22 -8 37 -18 20 -10 -17 -25 -11
-25 10 0 13 7 20 20 20 27 0 25 28 -2 41 l-23 10 22 -5 c13 -2 26 0 29 5 3 5
-6 9 -20 9 -14 0 -28 5 -31 10 -3 6 -2 10 4 10 6 0 8 7 5 15 -4 11 1 15 17 15
14 0 19 3 13 8 -6 4 -13 26 -16 50 -3 35 -1 42 14 42 9 0 20 5 23 10 6 10 -7
14 -34 11 -7 -2 -11 4 -9 11 3 7 12 12 22 10 23 -4 20 15 -4 21 -11 3 -20 11
-19 19 0 10 2 10 6 1 10 -26 23 -12 23 26 0 23 5 41 12 44 10 3 10 7 0 20 -11
13 -10 17 7 27 27 14 27 30 0 30 -18 0 -19 2 -9 15 7 8 18 15 24 15 6 0 4 -5
-4 -11 -13 -9 -13 -10 0 -6 21 5 19 42 -3 41 -9 -1 -17 5 -17 12 0 10 8 13 28
8 15 -3 23 -2 17 3 -12 10 -15 123 -3 123 4 0 8 9 8 19 0 10 7 22 17 25 14 6
14 8 -3 21 -18 13 -18 14 -1 15 10 0 22 -10 27 -22 6 -16 7 -6 3 33 -5 51 -3
57 16 62 28 7 28 77 -1 77 -10 0 -18 5 -18 10 0 6 5 10 11 10 6 0 8 7 5 16 -5
13 -1 15 19 12 13 -3 22 -1 19 3 -3 5 -6 38 -8 73 -3 62 -2 65 23 72 l26 7
-25 7 c-16 5 -19 8 -7 9 13 1 17 10 17 41 0 22 -4 40 -10 40 -24 0 -7 21 21
27 25 5 28 8 15 15 -9 5 -21 6 -26 3 -6 -3 -10 -1 -10 4 0 6 8 11 18 11 9 0
13 3 7 8 -6 4 -11 19 -12 34 -1 24 1 25 18 15 21 -13 38 -2 21 15 -8 8 -4 16
16 32 14 12 30 21 35 21 4 0 11 6 16 13 4 7 15 10 24 6 10 -4 17 -1 17 6 0 6
-9 14 -20 17 -21 6 -22 30 -1 25 6 -1 14 5 17 13 3 8 10 12 15 9 5 -3 6 2 3
10 -4 11 0 16 13 16 12 0 25 13 36 35 12 24 24 35 39 36 19 0 16 3 -12 15 -19
8 -25 12 -12 10 15 -3 22 1 22 12 0 10 3 27 6 40 l6 22 -331 0 -331 0 0 -7680z
m640 7650 c0 -5 -4 -10 -9 -10 -6 0 -13 5 -16 10 -3 6 1 10 9 10 9 0 16 -4 16
-10z m19446 -75 c9 -8 11 -15 6 -15 -5 0 -15 7 -22 15 -7 8 -9 15 -6 15 4 0
14 -7 22 -15z m-19529 -42 c-3 -10 -5 -2 -5 17 0 19 2 27 5 18 2 -10 2 -26 0
-35z m19566 0 c-7 -2 -19 -2 -25 0 -7 3 -2 5 12 5 14 0 19 -2 13 -5z m-19593
-23 c0 -5 -2 -10 -4 -10 -3 0 -8 5 -11 10 -3 6 -1 10 4 10 6 0 11 -4 11 -10z
m19600 -45 c0 -8 -4 -15 -10 -15 -5 0 -10 7 -10 15 0 8 5 15 10 15 6 0 10 -7
10 -15z m-19643 -27 c-3 -8 -6 -5 -6 6 -1 11 2 17 5 13 3 -3 4 -12 1 -19z
m19848 -208 c3 -5 1 -10 -4 -10 -6 0 -11 5 -11 10 0 6 2 10 4 10 3 0 8 -4 11
-10z m125 -170 c0 -5 -2 -10 -4 -10 -3 0 -8 5 -11 10 -3 6 -1 10 4 10 6 0 11
-4 11 -10z m80 -100 c0 -5 -5 -10 -11 -10 -5 0 -7 5 -4 10 3 6 8 10 11 10 2 0
4 -4 4 -10z m-20205 -70 c3 -5 1 -10 -4 -10 -6 0 -11 5 -11 10 0 6 2 10 4 10
3 0 8 -4 11 -10z m20312 -147 c-3 -10 -5 -2 -5 17 0 19 2 27 5 18 2 -10 2 -26
0 -35z m23 -44 c0 -5 -7 -9 -15 -9 -15 0 -20 12 -9 23 8 8 24 -1 24 -14z m40
-19 c0 -5 -4 -10 -10 -10 -5 0 -10 5 -10 10 0 6 5 10 10 10 6 0 10 -4 10 -10z
m-20470 -29 c0 -5 -7 -12 -16 -15 -14 -5 -15 -4 -4 9 14 17 20 19 20 6z
m13573 -48 c-7 -2 -19 -2 -25 0 -7 3 -2 5 12 5 14 0 19 -2 13 -5z m252 -11
l-20 -5 20 -8 c18 -7 18 -8 -5 -8 -14 0 -38 5 -53 12 -27 11 -26 12 25 13 29
0 44 -1 33 -4z m-13828 -18 c-3 -3 -12 -4 -19 -1 -8 3 -5 6 6 6 11 1 17 -2 13
-5z m14253 -58 c-10 -13 -40 -12 -40 1 0 3 7 3 15 -1 8 -3 15 -1 15 4 0 6 5
10 11 10 8 0 8 -4 -1 -14z m103 -33 c-7 -2 -19 -2 -25 0 -7 3 -2 5 12 5 14 0
19 -2 13 -5z m44 -9 c-3 -3 -12 -4 -19 -1 -8 3 -5 6 6 6 11 1 17 -2 13 -5z
m6236 -111 c-7 -2 -21 -2 -30 0 -10 3 -4 5 12 5 17 0 24 -2 18 -5z m-7014 -69
c2 -2 -6 -22 -17 -46 -11 -24 -32 -110 -47 -193 -32 -177 -80 -421 -95 -476
-10 -36 -13 -39 -48 -39 -20 0 -43 4 -51 9 -16 11 -17 7 34 396 19 148 35 291
35 317 l0 49 93 -7 c50 -4 94 -8 96 -10z m-2709 -11 c0 -9 -48 -33 -64 -33 -6
0 5 9 24 19 41 23 40 23 40 14z m1614 -70 c-6 -56 11 -266 42 -537 8 -71 13
-130 11 -132 -2 -2 -25 11 -53 30 -27 18 -71 45 -99 60 -27 14 -58 40 -67 56
-10 17 -43 46 -75 66 -288 175 -325 196 -331 189 -16 -15 13 -317 44 -475 6
-29 5 -30 -30 -30 -29 0 -37 4 -41 23 -3 12 -17 76 -30 141 -14 66 -28 122
-30 125 -3 2 -5 -12 -5 -32 0 -62 -17 -41 -29 36 -6 39 -20 132 -31 205 -23
156 -30 172 -70 172 -17 0 -30 4 -30 9 0 15 61 30 124 30 75 0 103 -14 283
-148 154 -114 323 -224 331 -216 7 7 -31 118 -43 127 -7 5 -6 8 1 8 11 0 11
67 -1 120 -4 16 -5 32 -3 34 2 3 -5 11 -14 18 -11 8 -22 40 -29 86 -15 91 -14
92 98 92 l83 0 -6 -57z m1686 10 c58 -13 191 -42 295 -64 219 -46 237 -52 229
-74 -3 -8 -10 -15 -15 -15 -4 0 -24 -11 -44 -24 -22 -15 -43 -22 -56 -19 -12
3 -24 1 -28 -6 -6 -9 -16 -8 -42 3 -19 8 -63 19 -99 25 -36 6 -76 13 -90 16
-24 4 -24 4 3 -9 15 -6 25 -15 22 -18 -3 -3 -16 -50 -30 -104 -40 -165 -114
-427 -132 -467 -14 -33 -20 -37 -49 -35 -22 1 -37 9 -45 25 -11 21 -13 21 -25
5 -38 -52 -20 23 80 328 92 281 94 290 67 290 -11 0 -25 8 -30 18 -6 9 -11 11
-11 5 0 -14 -50 -19 -50 -5 0 4 -12 7 -27 8 -161 2 -162 3 -133 89 l22 66 41
-7 c23 -3 89 -17 147 -31z m6540 -103 c0 -5 -7 -10 -15 -10 -8 0 -15 5 -15 10
0 6 7 10 15 10 8 0 15 -4 15 -10z m47 -82 c-3 -8 -6 -5 -6 6 -1 11 2 17 5 13
3 -3 4 -12 1 -19z m-20887 -163 c0 -8 -4 -15 -10 -15 -5 0 -10 7 -10 15 0 8 5
15 10 15 6 0 10 -7 10 -15z m15649 -37 c36 -18 66 -39 69 -46 3 -10 -2 -10
-23 0 -25 11 -29 10 -51 -17 -12 -16 -21 -32 -18 -36 2 -5 -16 -48 -41 -96
-25 -48 -45 -96 -45 -105 0 -9 -7 -21 -17 -26 -14 -8 -13 -11 8 -17 13 -4 123
-50 243 -102 l219 -95 18 23 c43 55 112 208 111 243 -2 45 12 46 93 7 89 -44
123 -76 73 -69 -20 3 -31 -11 -77 -92 -29 -52 -85 -142 -124 -200 -128 -190
-172 -257 -203 -310 l-31 -53 -24 27 c-13 15 -39 34 -57 43 -32 15 -32 16 -16
42 9 14 40 55 69 91 86 108 97 127 80 134 -8 3 -15 11 -15 18 0 8 -9 21 -20
31 -11 9 -20 14 -20 11 0 -3 -21 9 -47 28 -27 18 -68 43 -93 55 -83 39 -145
66 -195 85 -61 22 -54 30 -138 -143 l-62 -126 -30 16 c-16 9 -43 25 -60 36
-16 10 -31 20 -33 21 -5 3 63 135 114 221 73 124 159 300 205 422 8 20 14 23
42 17 17 -3 61 -21 96 -38z m-4777 -22 c15 -11 48 -73 48 -89 0 -7 -54 5 -65
14 -6 4 -24 2 -40 -6 -67 -30 -312 -125 -323 -125 -6 0 -23 -11 -39 -24 -15
-12 -34 -25 -41 -27 -20 -7 114 -185 136 -181 9 2 55 24 102 48 47 24 111 54
142 68 l58 25 15 -22 c28 -40 19 -56 -47 -86 -59 -26 -232 -93 -271 -105 -17
-6 -8 -28 69 -163 18 -32 34 -43 34 -24 0 5 8 7 19 4 23 -6 305 100 351 132
19 14 47 35 63 47 l27 22 33 -32 c34 -33 44 -62 21 -62 -7 0 -14 -3 -16 -7 -6
-15 -123 -76 -268 -139 -30 -13 -62 -28 -70 -33 -69 -43 -222 -112 -235 -108
-16 7 -76 123 -112 219 -12 31 -43 90 -70 130 -27 40 -66 109 -88 153 -21 44
-51 90 -65 102 -29 25 -23 33 35 52 22 8 101 41 175 74 135 60 376 156 395
156 6 0 18 -6 27 -13z m-10862 -26 c0 -5 -5 -10 -11 -10 -5 0 -7 5 -4 10 3 6
8 10 11 10 2 0 4 -4 4 -10z m-10 -81 c0 -5 -4 -9 -10 -9 -5 0 -10 7 -10 16 0
8 5 12 10 9 6 -3 10 -10 10 -16z m9992 -33 c-69 -37 -92 -48 -92 -41 0 6 132
74 145 74 6 0 -18 -15 -53 -33z m-9992 -6 c0 -5 -4 -10 -10 -10 -5 0 -10 5
-10 10 0 6 5 10 10 10 6 0 10 -4 10 -10z m0 -45 c0 -8 -4 -17 -10 -20 -6 -4
-10 5 -10 20 0 15 4 24 10 20 6 -3 10 -12 10 -20z m21030 -125 c0 -5 -5 -10
-11 -10 -5 0 -7 5 -4 10 3 6 8 10 11 10 2 0 4 -4 4 -10z m8 -55 c0 -14 -4 -25
-9 -25 -5 0 -9 11 -9 25 0 14 4 25 9 25 5 0 9 -11 9 -25z m-9064 -1 c3 -8 2
-12 -4 -9 -6 3 -10 10 -10 16 0 14 7 11 14 -7z m-11964 -104 c0 -5 -7 -10 -16
-10 -8 0 -12 5 -9 10 3 6 10 10 16 10 5 0 9 -4 9 -10z m9389 -26 c-13 -14 -49
-42 -79 -62 -30 -20 -61 -42 -68 -49 -8 -8 -30 -26 -50 -40 -21 -15 -81 -63
-134 -106 -54 -43 -98 -73 -98 -68 0 12 230 197 325 261 37 25 79 55 94 67 35
30 40 29 10 -3z m-9399 -49 c0 -8 -4 -15 -10 -15 -5 0 -10 7 -10 15 0 8 5 15
10 15 6 0 10 -7 10 -15z m13565 -15 c401 -29 854 -120 1237 -249 288 -97 363
-128 623 -255 384 -188 541 -288 850 -540 218 -178 371 -319 457 -419 38 -45
18 -29 -73 58 -178 170 -488 406 -738 563 -236 146 -660 360 -881 444 -630
238 -1164 346 -1810 364 -600 17 -1114 -67 -1799 -296 -275 -91 -439 -160
-726 -305 -160 -80 -195 -97 -195 -91 0 4 108 76 116 76 3 0 12 7 20 15 19 18
140 105 147 105 3 0 34 17 68 38 111 66 258 129 459 196 634 211 1018 287
1580 310 125 5 504 -3 665 -14z m-4605 -275 c0 -2 -10 -10 -22 -16 -21 -11
-22 -11 -9 4 13 16 31 23 31 12z m12227 -21 c-3 -3 -12 -4 -19 -1 -8 3 -5 6 6
6 11 1 17 -2 13 -5z m-21207 -24 c0 -5 -7 -10 -15 -10 -8 0 -15 5 -15 10 0 6
7 10 15 10 8 0 15 -4 15 -10z m13460 -19 c23 -44 12 -69 -47 -112 -83 -60
-220 -184 -351 -316 -137 -139 -232 -275 -232 -333 0 -47 36 -80 87 -80 38 0
97 -22 108 -40 5 -8 -16 -33 -56 -68 -148 -132 -316 -318 -480 -532 -89 -115
-471 -661 -704 -1007 -332 -493 -447 -662 -549 -807 -158 -226 -972 -1444
-1095 -1640 -62 -98 -192 -298 -290 -445 -98 -146 -237 -362 -311 -479 -73
-118 -139 -216 -146 -219 -8 -3 -14 -10 -14 -17 0 -8 120 -10 477 -8 263 3
599 1 748 -3 l271 -7 36 -57 c20 -31 64 -105 99 -166 34 -60 117 -202 184
-315 67 -113 137 -232 155 -265 51 -92 299 -504 333 -555 17 -25 138 -216 268
-425 959 -1539 944 -1515 1075 -1655 43 -45 58 -67 44 -63 -25 7 -112 90 -167
160 -22 29 -44 49 -48 45 -5 -4 -5 -2 -1 5 3 6 -4 21 -16 32 -12 12 -18 21
-14 21 5 0 3 7 -4 15 -7 8 -17 12 -23 8 -6 -3 -7 -1 -3 5 4 7 3 12 -2 12 -6 0
-13 11 -16 25 -3 13 -16 34 -29 46 -12 12 -16 18 -8 14 10 -6 12 -4 7 4 -5 7
-15 10 -23 7 -9 -4 -17 1 -20 13 -3 13 -11 18 -21 15 -10 -3 -6 1 7 9 15 9 20
17 12 21 -6 4 -11 2 -11 -3 0 -6 -4 -11 -9 -11 -6 0 -8 9 -6 20 2 11 0 20 -6
20 -18 0 -24 2 -36 12 -7 6 -13 16 -12 22 0 7 2 6 6 -1 2 -7 10 -13 16 -13 17
1 -32 40 -49 40 -8 0 -14 -4 -14 -10 0 -5 7 -7 15 -4 17 7 21 -21 5 -31 -6 -3
-7 1 -4 10 5 11 2 14 -10 9 -9 -3 -23 0 -32 7 -14 12 -14 14 3 20 17 7 17 8
-2 8 -27 1 -49 -14 -41 -28 4 -6 2 -11 -4 -11 -6 0 -13 7 -16 15 -7 16 -74 22
-74 6 0 -4 12 -6 28 -3 32 5 20 -12 -16 -23 -19 -5 -25 -2 -29 14 -3 12 -9 21
-14 21 -14 0 -11 -38 4 -43 10 -4 10 -7 0 -18 -10 -9 -13 -10 -13 -1 0 7 -6
12 -14 12 -7 0 -19 7 -26 15 -15 18 -44 20 -37 2 3 -9 -5 -13 -28 -14 -20 -1
-36 5 -39 13 -7 17 -43 18 -49 2 -4 -8 -6 -7 -6 3 -1 18 -43 30 -62 18 -7 -4
-17 -5 -22 -2 -5 3 -3 9 4 13 7 5 -4 7 -26 5 -35 -3 -66 -26 -46 -33 5 -2 3
-15 -4 -29 -8 -15 -12 -30 -10 -33 2 -4 -2 -7 -10 -7 -9 0 -11 4 -6 11 15 19
21 51 12 65 -8 12 -12 11 -27 -4 -17 -17 -17 -17 4 -11 13 5 22 3 22 -3 0 -6
-8 -11 -17 -11 -15 0 -16 -2 -3 -10 18 -11 6 -25 -15 -16 -9 3 -13 11 -9 17 4
8 3 9 -5 5 -15 -10 -43 13 -34 28 3 6 2 8 -2 3 -11 -9 -76 53 -69 65 3 5 0 7
-8 6 -7 -2 -12 3 -10 10 1 8 -1 11 -6 8 -27 -16 -399 431 -561 673 -60 91
-137 197 -187 256 -106 127 -243 391 -349 670 -62 165 -110 416 -139 725 l-11
125 -1009 3 c-555 1 -1053 -1 -1106 -6 l-96 -7 93 125 c51 69 168 235 260 370
336 494 872 1291 1008 1498 376 573 658 992 1040 1547 109 160 272 396 360
525 157 229 365 526 575 820 57 80 135 190 174 245 197 279 441 591 599 766
94 105 291 281 457 410 155 121 318 218 435 260 65 23 72 23 85 0z m-4660 -91
c-24 -33 -174 -173 -193 -179 -7 -2 38 44 98 102 61 58 111 106 113 107 2 0
-6 -13 -18 -30z m12473 -419 c-5 -3 -13 -15 -18 -26 -7 -18 -8 -19 -12 -2 -5
21 15 49 29 41 6 -4 6 -9 1 -13z m52 9 c3 -5 1 -10 -4 -10 -6 0 -11 5 -11 10
0 6 2 10 4 10 3 0 8 -4 11 -10z m-21375 -54 c0 -3 -4 -8 -10 -11 -5 -3 -10 -1
-10 4 0 6 5 11 10 11 6 0 10 -2 10 -4z m21367 -68 c-3 -8 -6 -5 -6 6 -1 11 2
17 5 13 3 -3 4 -12 1 -19z m-27 -8 c0 -5 -2 -10 -4 -10 -3 0 -8 5 -11 10 -3 6
-1 10 4 10 6 0 11 -4 11 -10z m40 -314 c0 -3 -4 -8 -10 -11 -5 -3 -10 -1 -10
4 0 6 5 11 10 11 6 0 10 -2 10 -4z m-40 -22 c0 -8 -5 -12 -10 -9 -6 4 -8 11
-5 16 9 14 15 11 15 -7z m-6662 -229 c77 -112 523 -775 659 -980 160 -242 286
-426 302 -442 11 -12 183 -13 1070 -10 581 3 1075 8 1099 12 30 5 42 4 42 -5
0 -7 44 -114 99 -239 54 -124 101 -235 105 -246 6 -21 6 -21 -549 -17 -594 5
-1525 -6 -1525 -17 0 -10 46 -82 264 -408 110 -164 250 -377 311 -473 61 -96
224 -346 362 -555 137 -209 289 -445 338 -525 48 -80 209 -327 358 -550 244
-366 314 -466 449 -639 38 -48 41 -54 25 -66 -9 -6 -15 -14 -12 -17 3 -2 -2
-5 -9 -5 -11 0 -12 5 -5 18 6 11 6 20 0 24 -6 3 -18 -14 -29 -37 -10 -24 -49
-113 -87 -198 -79 -181 -100 -228 -149 -332 -20 -42 -36 -79 -36 -82 0 -3 -13
-33 -29 -68 -62 -135 -80 -176 -111 -255 -40 -105 -111 -235 -186 -341 -32
-46 -66 -94 -74 -106 -80 -117 -161 -224 -218 -289 -19 -22 -31 -45 -28 -53 4
-10 -25 -48 -82 -106 -48 -49 -114 -120 -147 -156 -114 -126 -311 -318 -290
-283 5 9 4 12 -3 7 -7 -4 -12 -14 -12 -23 0 -9 -3 -13 -6 -10 -4 4 -14 -2 -23
-12 -9 -10 -26 -21 -39 -25 -12 -4 -20 -11 -17 -15 2 -5 -7 -13 -21 -20 -14
-6 -22 -16 -19 -21 3 -6 -1 -7 -9 -4 -9 3 -16 2 -16 -4 0 -13 -135 -114 -189
-141 -23 -12 -45 -29 -48 -37 -3 -8 -10 -13 -17 -12 -6 1 -24 -5 -41 -15 -16
-9 -24 -16 -16 -17 26 0 -30 -49 -93 -80 -34 -17 -70 -36 -81 -43 -11 -6 -31
-18 -45 -26 -14 -9 -29 -15 -35 -16 -5 0 -21 -8 -35 -18 -104 -75 -381 -226
-535 -291 -357 -151 -649 -241 -1260 -384 -425 -100 -1058 -128 -1535 -66
-425 54 -907 177 -1289 328 -63 25 -116 44 -118 42 -2 -2 15 -11 39 -20 90
-36 158 -71 158 -83 0 -7 6 -11 13 -9 6 1 9 1 4 -1 -4 -3 -5 -8 -2 -13 3 -4
-4 -6 -15 -3 -11 3 -17 10 -13 16 4 6 0 8 -10 4 -9 -3 -19 -2 -22 4 -4 5 -11
7 -16 4 -5 -4 -9 -2 -9 2 0 5 -8 9 -18 10 -32 3 -193 73 -342 150 -149 77
-224 120 -440 253 -69 42 -152 91 -185 110 -75 41 -83 47 -584 434 -255 197
-643 635 -912 1031 -239 352 -459 772 -589 1125 -34 95 -113 360 -108 365 2 2
27 -73 56 -166 63 -203 102 -305 195 -504 188 -405 482 -873 754 -1201 32 -39
68 -84 80 -100 l23 -29 -21 40 c-13 27 -15 32 -3 17 9 -12 21 -22 28 -22 17 0
116 -112 109 -123 -3 -6 -1 -7 4 -4 10 6 36 -15 30 -24 -1 -2 -1 -4 0 -3 2 0
69 -66 150 -148 231 -233 426 -388 816 -649 185 -125 345 -223 419 -259 52
-24 48 -22 -151 103 -313 198 -722 497 -906 664 -181 164 -409 412 -577 628
-214 274 -496 745 -523 873 -3 17 -11 32 -16 32 -6 0 -8 4 -5 9 8 12 -7 55
-72 206 -30 72 -56 144 -56 162 -1 17 -4 29 -8 26 -5 -2 -8 3 -8 12 0 33 26 8
57 -56 18 -35 69 -137 113 -226 175 -358 454 -789 689 -1068 300 -355 631
-656 1051 -956 310 -221 390 -269 675 -403 666 -314 1274 -458 1990 -473 576
-12 1076 56 1675 228 221 64 423 146 735 299 294 145 439 228 660 377 313 212
480 350 745 614 373 371 542 590 855 1114 168 280 214 366 207 384 -2 8 0 11
5 8 6 -4 26 30 46 75 36 78 40 111 12 85 -8 -8 -10 -16 -3 -24 6 -8 3 -15 -12
-23 -12 -6 -19 -18 -16 -25 2 -7 -1 -16 -8 -18 -8 -3 -12 -17 -11 -31 3 -26
-8 -35 -20 -16 -3 6 -12 10 -18 10 -8 0 -8 -3 -2 -8 6 -4 12 -17 12 -30 2 -18
-1 -21 -11 -13 -7 6 -15 8 -19 5 -7 -8 3 -37 17 -46 7 -5 7 -8 1 -9 -5 0 -20
-2 -32 -3 -14 -2 -23 3 -23 11 0 8 -4 11 -10 8 -5 -3 -10 -2 -10 3 0 4 -8 17
-17 28 -38 41 -145 193 -250 354 -31 47 -79 121 -108 165 -29 44 -76 118 -105
165 -29 47 -87 137 -128 200 -160 245 -392 616 -547 875 -175 292 -386 630
-562 900 -60 94 -210 330 -333 525 -267 425 -603 943 -739 1140 -67 97 -528
792 -571 860 -29 47 -114 173 -188 280 -74 107 -137 202 -140 212 -4 17 10 18
298 16 l303 -3 55 -80z m6669 39 c-3 -3 -12 -4 -19 -1 -8 3 -5 6 6 6 11 1 17
-2 13 -5z m-7 -34 c0 -5 -4 -10 -10 -10 -5 0 -10 5 -10 10 0 6 5 10 10 10 6 0
10 -4 10 -10z m10 -100 c0 -5 -4 -10 -10 -10 -5 0 -10 5 -10 10 0 6 5 10 10
10 6 0 10 -4 10 -10z m-21 -149 c-15 -5 -22 6 -14 19 6 9 10 9 16 -1 5 -8 4
-15 -2 -18z m38 -3 c-3 -7 -5 -2 -5 12 0 14 2 19 5 13 2 -7 2 -19 0 -25z
m-21272 -347 c3 -5 1 -12 -5 -16 -5 -3 -10 1 -10 9 0 18 6 21 15 7z m21125
-155 c0 -8 -6 -16 -14 -19 -10 -4 -12 0 -9 14 6 22 23 26 23 5z m-20 -106 c0
-5 -4 -10 -10 -10 -5 0 -10 5 -10 10 0 6 5 10 10 10 6 0 10 -4 10 -10z
m-21043 -202 c-2 -13 -4 -3 -4 22 0 25 2 35 4 23 2 -13 2 -33 0 -45z m21013
-87 c0 -6 -4 -13 -10 -16 -5 -3 -10 1 -10 9 0 9 5 16 10 16 6 0 10 -4 10 -9z
m-21013 -63 c-3 -8 -6 -5 -6 6 -1 11 2 17 5 13 3 -3 4 -12 1 -19z m20963 -64
c0 -8 -5 -12 -10 -9 -6 4 -8 11 -5 16 9 14 15 11 15 -7z m-20930 -14 c0 -5 -2
-10 -4 -10 -3 0 -8 5 -11 10 -3 6 -1 10 4 10 6 0 11 -4 11 -10z m8361 -23
c-10 -9 -11 -8 -5 6 3 10 9 15 12 12 3 -3 0 -11 -7 -18z m-20 -40 c-10 -9 -11
-8 -5 6 3 10 9 15 12 12 3 -3 0 -11 -7 -18z m-25 -54 c-8 -15 -15 -25 -16 -21
0 12 23 58 27 54 3 -2 -2 -17 -11 -33z m12611 1 c-3 -3 -12 -4 -19 -1 -8 3 -5
6 6 6 11 1 17 -2 13 -5z m-87 -59 c0 -8 -4 -15 -10 -15 -5 0 -10 7 -10 15 0 8
5 15 10 15 6 0 10 -7 10 -15z m17 -17 c-3 -8 -6 -5 -6 6 -1 11 2 17 5 13 3 -3
4 -12 1 -19z m-17 -87 c0 -6 -4 -13 -10 -16 -5 -3 -10 1 -10 9 0 9 5 16 10 16
6 0 10 -4 10 -9z m-12619 -48 c-12 -20 -14 -14 -5 12 4 9 9 14 11 11 3 -2 0
-13 -6 -23z m-8131 -63 c0 -22 -4 -40 -10 -40 -5 0 -10 18 -10 40 0 22 5 40
10 40 6 0 10 -18 10 -40z m8111 13 c-12 -20 -14 -14 -5 12 4 9 9 14 11 11 3
-2 0 -13 -6 -23z m-30 -70 c-12 -20 -14 -14 -5 12 4 9 9 14 11 11 3 -2 0 -13
-6 -23z m-40 -100 c-12 -20 -14 -14 -5 12 4 9 9 14 11 11 3 -2 0 -13 -6 -23z
m12586 -9 c-3 -3 -12 -4 -19 -1 -8 3 -5 6 6 6 11 1 17 -2 13 -5z m-6207 -55
c0 -6 -98 -156 -218 -333 -121 -176 -241 -355 -268 -396 -27 -41 -92 -136
-144 -210 -53 -74 -163 -234 -245 -355 -81 -121 -196 -290 -255 -375 -191
-278 -464 -672 -575 -830 -60 -85 -198 -282 -307 -438 -109 -156 -198 -287
-198 -293 0 -10 97 -12 385 -10 423 4 908 49 1132 106 232 59 301 138 641 736
l72 126 172 7 c95 4 337 2 538 -4 201 -5 489 -10 640 -11 297 -2 412 -8 417
-24 2 -6 -22 -53 -54 -105 -78 -131 -395 -750 -439 -857 -20 -49 -43 -94 -52
-100 -10 -9 -54 -13 -128 -13 -62 0 -123 -4 -136 -9 -14 -5 -47 -49 -87 -117
-36 -60 -135 -215 -220 -344 -85 -129 -179 -275 -209 -325 -76 -125 -462 -699
-473 -703 -5 -2 -9 -10 -9 -17 0 -7 -17 -35 -38 -62 -21 -26 -60 -81 -87 -121
-26 -39 -52 -72 -56 -72 -5 0 -9 -6 -9 -12 -1 -24 -85 -145 -97 -141 -7 3 -17
-7 -22 -21 -6 -13 -20 -30 -32 -36 -15 -8 -19 -9 -15 -1 4 6 5 11 2 11 -3 0
-12 -13 -20 -29 -12 -22 -12 -31 -3 -42 10 -11 9 -11 -6 0 -9 8 -21 10 -25 6
-4 -4 -1 -10 6 -12 6 -3 12 -9 12 -14 0 -6 -8 -5 -20 1 -14 7 -20 7 -20 0 0
-5 6 -10 13 -11 9 0 9 -2 -1 -6 -6 -2 -10 -9 -7 -14 4 -5 -1 -6 -9 -3 -12 5
-16 -1 -16 -23 0 -17 -8 -34 -20 -43 -11 -8 -20 -21 -20 -28 0 -8 -6 -12 -14
-9 -8 3 -28 -7 -45 -24 -17 -16 -35 -29 -41 -29 -5 0 -7 -7 -3 -15 5 -13 2
-14 -21 -4 -19 9 -29 9 -39 0 -8 -6 -21 -10 -28 -8 -8 2 -10 2 -5 -1 4 -2 2
-8 -5 -13 -11 -7 -9 -9 5 -9 30 0 9 -13 -42 -26 -31 -8 -49 -9 -53 -2 -4 6
-24 8 -45 4 -22 -3 -40 -5 -42 -6 -2 0 -1 -4 2 -9 3 -5 -5 -12 -19 -15 -19 -5
-25 -13 -25 -33 0 -26 -1 -26 -15 -7 -14 18 -16 18 -19 -8 0 -7 -10 -14 -21
-17 -17 -3 -49 -36 -50 -50 0 -2 10 -5 22 -6 13 -1 26 -5 30 -9 5 -4 -28 -7
-72 -6 -44 1 -115 -2 -157 -5 -43 -3 -78 -3 -78 0 0 14 28 56 107 162 46 61
147 206 226 322 78 116 214 318 302 449 88 130 273 410 410 621 138 211 340
519 450 685 110 166 237 358 281 426 45 69 147 217 228 329 141 197 164 236
152 248 -8 9 -341 -15 -466 -33 -283 -40 -516 -141 -577 -249 -37 -65 -170
-384 -250 -600 -41 -110 -81 -210 -89 -223 l-15 -22 -1344 0 c-1078 1 -1348
-2 -1365 -12 -17 -11 -22 -11 -30 1 -13 21 0 42 217 366 351 523 461 685 642
939 236 334 342 487 435 631 43 66 149 221 235 345 263 377 333 479 424 620
47 74 118 178 156 230 70 95 128 196 118 206 -6 6 -162 -10 -357 -37 -291 -40
-515 -104 -735 -208 -227 -108 -389 -231 -595 -451 -223 -239 -279 -295 -285
-288 -4 4 2 19 13 35 11 15 38 71 60 123 171 406 223 513 402 840 62 113 137
250 166 304 30 55 56 102 60 105 18 18 2314 28 2314 10z m-14321 -138 c-15 -5
-22 6 -14 19 6 9 10 9 16 -1 5 -8 4 -15 -2 -18z m181 -301 c0 -5 -8 -10 -17
-10 -15 0 -16 2 -3 10 19 12 20 12 20 0z m4 -89 c4 -5 -3 -7 -14 -4 -23 6 -26
13 -6 13 8 0 17 -4 20 -9z m19996 -141 c0 -5 -2 -10 -4 -10 -3 0 -8 5 -11 10
-3 6 -1 10 4 10 6 0 11 -4 11 -10z m-20 -80 c0 -5 -4 -10 -10 -10 -5 0 -10 5
-10 10 0 6 5 10 10 10 6 0 10 -4 10 -10z m-19830 -120 c0 -5 -4 -10 -9 -10 -6
0 -13 5 -16 10 -3 6 1 10 9 10 9 0 16 -4 16 -10z m19507 -307 c-9 -2 -15 -9
-12 -14 4 -5 -1 -9 -9 -9 -8 0 -22 -7 -31 -16 -9 -9 -19 -14 -22 -11 -11 12
51 56 77 55 10 0 9 -2 -3 -5z m66 -10 c-7 -2 -21 -2 -30 0 -10 3 -4 5 12 5 17
0 24 -2 18 -5z m-28 -31 c-3 -3 -11 0 -18 7 -9 10 -8 11 6 5 10 -3 15 -9 12
-12z m-15 -52 c0 -5 -2 -10 -4 -10 -3 0 -8 5 -11 10 -3 6 -1 10 4 10 6 0 11
-4 11 -10z m-19304 -80 c13 0 24 -4 24 -10 0 -16 -43 -11 -65 7 -18 14 -18 15
-2 9 10 -3 30 -6 43 -6z m18962 -267 l-2 -128 -6 120 c-3 66 -4 123 -2 128 10
22 12 -5 10 -120z m-18868 17 c0 -5 -5 -10 -11 -10 -5 0 -7 5 -4 10 3 6 8 10
11 10 2 0 4 -4 4 -10z m18867 -182 c-3 -8 -6 -5 -6 6 -1 11 2 17 5 13 3 -3 4
-12 1 -19z m0 -105 c-2 -16 -4 -3 -4 27 0 30 2 43 4 28 2 -16 2 -40 0 -55z
m-18697 37 c0 -5 -11 -10 -25 -10 -14 0 -25 5 -25 10 0 6 11 10 25 10 14 0 25
-4 25 -10z m80 -150 c0 -5 -5 -10 -11 -10 -5 0 -7 5 -4 10 3 6 8 10 11 10 2 0
4 -4 4 -10z m18576 -137 c-11 -11 -17 4 -9 23 7 18 8 18 11 1 2 -10 1 -21 -2
-24z m-18499 -35 c-3 -7 -5 -2 -5 12 0 14 2 19 5 13 2 -7 2 -19 0 -25z m43 -3
c0 -8 -4 -17 -10 -20 -6 -4 -10 5 -10 20 0 15 4 24 10 20 6 -3 10 -12 10 -20z
m41 -48 c-8 -8 -11 -7 -11 4 0 20 13 34 18 19 3 -7 -1 -17 -7 -23z m6516 -459
c-3 -8 -6 -5 -6 6 -1 11 2 17 5 13 3 -3 4 -12 1 -19z m-6250 -24 c-3 -3 -12
-4 -19 -1 -8 3 -5 6 6 6 11 1 17 -2 13 -5z m53 -64 c0 -5 -5 -10 -11 -10 -5 0
-7 5 -4 10 3 6 8 10 11 10 2 0 4 -4 4 -10z m6228 -65 c0 -16 -2 -15 -8 5 -4
14 -8 36 -8 50 0 22 1 22 8 -5 4 -16 8 -39 8 -50z m-6142 -40 c10 -26 -1 -35
-13 -10 -6 14 -7 25 -2 25 5 0 12 -7 15 -15z m6151 -17 c-3 -7 -5 -2 -5 12 0
14 2 19 5 13 2 -7 2 -19 0 -25z m40 -163 c-4 -11 -37 118 -36 137 0 7 9 -18
20 -57 10 -38 17 -74 16 -80z m-6117 55 c0 -5 -2 -10 -4 -10 -3 0 -8 5 -11 10
-3 6 -1 10 4 10 6 0 11 -4 11 -10z m157 -106 c-3 -3 -12 -4 -19 -1 -8 3 -5 6
6 6 11 1 17 -2 13 -5z m33 -84 c0 -5 -4 -10 -9 -10 -6 0 -13 5 -16 10 -3 6 1
10 9 10 9 0 16 -4 16 -10z m-5 -40 c3 -5 1 -10 -4 -10 -6 0 -11 5 -11 10 0 6
2 10 4 10 3 0 8 -4 11 -10z m64 -44 c0 -7 -2 -6 -6 2 -2 6 -11 12 -19 12 -9 0
-12 5 -9 10 8 13 35 -6 34 -24z m15891 -48 c-44 -111 -69 -158 -75 -148 -4 7
-2 16 4 20 7 4 14 13 15 21 9 45 21 77 38 102 23 33 31 35 18 5z m-15543 -414
c-3 -3 -12 -4 -19 -1 -8 3 -5 6 6 6 11 1 17 -2 13 -5z m73 -24 c0 -11 -4 -20
-10 -20 -5 0 -10 9 -10 20 0 11 5 20 10 20 6 0 10 -9 10 -20z m135 -220 c-3
-5 -12 -10 -18 -10 -7 0 -6 4 3 10 19 12 23 12 15 0z m295 -164 c0 -3 -4 -8
-10 -11 -5 -3 -10 -1 -10 4 0 6 5 11 10 11 6 0 10 -2 10 -4z m47 -2 c-3 -3
-12 -4 -19 -1 -8 3 -5 6 6 6 11 1 17 -2 13 -5z m14497 -276 c-40 -78 -329
-479 -397 -552 -21 -22 -40 -36 -43 -33 -4 3 6 19 22 35 16 16 63 75 104 131
41 57 80 108 85 114 6 7 31 41 55 77 25 36 48 67 51 70 3 3 34 47 68 98 64 95
84 117 55 60z m-14130 -43 c-6 -16 -24 -21 -24 -7 0 11 11 22 21 22 5 0 6 -7
3 -15z m36 -55 c0 -11 -7 -20 -15 -20 -18 0 -19 12 -3 28 16 16 18 15 18 -8z
m-40 -10 c0 -5 -4 -10 -10 -10 -5 0 -10 5 -10 10 0 6 5 10 10 10 6 0 10 -4 10
-10z m90 -50 c0 -5 -4 -10 -9 -10 -6 0 -13 5 -16 10 -3 6 1 10 9 10 9 0 16 -4
16 -10z m120 -60 c0 -11 -4 -20 -10 -20 -5 0 -10 9 -10 20 0 11 5 20 10 20 6
0 10 -9 10 -20z m280 -195 c0 -9 -6 -12 -15 -9 -8 4 -15 10 -15 15 0 5 7 9 15
9 8 0 15 -7 15 -15z m87 -87 c-3 -8 -6 -5 -6 6 -1 11 2 17 5 13 3 -3 4 -12 1
-19z m233 -118 c0 -5 -7 -10 -15 -10 -8 0 -15 5 -15 10 0 6 7 10 15 10 8 0 15
-4 15 -10z m0 -40 c0 -5 -2 -10 -4 -10 -3 0 -8 5 -11 10 -3 6 -1 10 4 10 6 0
11 -4 11 -10z m317 -162 c-3 -7 -5 -2 -5 12 0 14 2 19 5 13 2 -7 2 -19 0 -25z
m104 9 c-1 -12 -15 -9 -19 4 -3 6 1 10 8 8 6 -3 11 -8 11 -12z m-1 -41 c0 -8
-4 -18 -10 -21 -5 -3 -10 3 -10 14 0 12 5 21 10 21 6 0 10 -6 10 -14z m160
-86 c0 -5 -4 -10 -10 -10 -5 0 -10 5 -10 10 0 6 5 10 10 10 6 0 10 -4 10 -10z
m-43 -6 c-3 -3 -12 -4 -19 -1 -8 3 -5 6 6 6 11 1 17 -2 13 -5z m183 -34 c0 -5
-2 -10 -4 -10 -3 0 -8 5 -11 10 -3 6 -1 10 4 10 6 0 11 -4 11 -10z m125 -23
c24 -18 11 -39 -21 -31 -16 4 -24 2 -24 -7 0 -7 -2 -10 -5 -7 -8 7 13 58 23
58 4 0 16 -6 27 -13z m115 -17 c0 -5 -18 -10 -40 -10 -22 0 -40 5 -40 10 0 6
18 10 40 10 22 0 40 -4 40 -10z m0 -30 c0 -12 -24 -12 -60 0 -21 7 -19 8 18 9
23 1 42 -3 42 -9z m-7 -27 c-7 -2 -19 -2 -25 0 -7 3 -2 5 12 5 14 0 19 -2 13
-5z m-109 -18 c3 -9 0 -15 -9 -15 -8 0 -15 7 -15 15 0 8 4 15 9 15 5 0 11 -7
15 -15z m66 -11 c0 -2 -7 -4 -15 -4 -8 0 -15 4 -15 10 0 5 7 7 15 4 8 -4 15
-8 15 -10z m50 6 c0 -5 -4 -10 -10 -10 -5 0 -10 5 -10 10 0 6 5 10 10 10 6 0
10 -4 10 -10z m40 -40 c0 -5 -4 -10 -10 -10 -5 0 -10 5 -10 10 0 6 5 10 10 10
6 0 10 -4 10 -10z m720 -180 c12 -8 11 -10 -7 -10 -12 0 -25 5 -28 10 -8 13
15 13 35 0z m37 -47 c-8 -7 -37 9 -31 19 3 5 12 4 20 -3 8 -6 13 -14 11 -16z
m84 -14 c-9 -23 -10 -22 -10 11 -1 23 2 31 9 24 7 -7 7 -19 1 -35z m3419 -5
c153 -45 279 -150 344 -286 19 -40 37 -87 41 -104 8 -39 -12 -90 -56 -145 -32
-41 -53 -48 -26 -9 16 23 15 39 -5 158 -7 43 -22 80 -48 120 -42 64 -105 126
-120 117 -6 -3 -10 -1 -10 4 0 6 -14 11 -31 11 -17 0 -40 5 -52 12 -12 6 -29
13 -37 14 -8 1 -48 8 -88 14 -77 13 -212 1 -239 -22 -7 -6 -16 -8 -19 -5 -12
12 -76 -47 -116 -106 -68 -101 -90 -167 -96 -290 -5 -121 5 -173 49 -243 40
-62 36 -66 -13 -14 -118 127 -154 371 -78 527 63 128 196 236 322 263 59 13
211 4 278 -16z m-3286 -19 c-6 -16 -24 -21 -24 -7 0 11 11 22 21 22 5 0 6 -7
3 -15z m-44 -4 c0 -4 -11 -6 -25 -3 -14 2 -25 6 -25 8 0 2 11 4 25 4 14 0 25
-4 25 -9z m10610 -68 c0 -32 7 -134 15 -228 8 -93 15 -199 15 -235 0 -72 2
-76 45 -109 17 -12 81 -73 143 -134 l113 -111 -23 -18 c-13 -9 -35 -22 -49
-27 -24 -8 -26 -7 -22 10 4 13 -3 28 -16 40 -12 11 -18 25 -15 31 4 6 3 8 -3
5 -9 -6 -76 66 -127 137 -47 65 -43 63 -50 29 -17 -75 -55 -72 -307 20 -205
74 -372 127 -405 127 -14 0 -15 2 -3 17 20 23 139 100 194 123 l45 19 68 -42
c76 -49 190 -102 241 -112 l34 -7 -5 78 c-3 44 -16 106 -27 139 -12 33 -28 80
-36 104 l-14 45 37 33 c20 18 60 53 87 77 28 25 53 46 58 46 4 0 7 -26 7 -57z
m-10080 -68 c0 -8 -2 -15 -4 -15 -2 0 -6 7 -10 15 -3 8 -1 15 4 15 6 0 10 -7
10 -15z m180 -25 c0 -5 -6 -10 -14 -10 -8 0 -18 5 -21 10 -3 6 3 10 14 10 12
0 21 -4 21 -10z m178 -18 c-10 -2 -18 -8 -18 -13 0 -5 -5 -9 -11 -9 -5 0 -7 5
-4 10 3 6 -2 10 -12 10 -17 1 -17 1 1 15 15 11 23 12 40 3 19 -11 19 -13 4
-16z m142 13 c0 -8 -7 -15 -15 -15 -16 0 -20 12 -8 23 11 12 23 8 23 -8z m157
-7 c-3 -8 -6 -5 -6 6 -1 11 2 17 5 13 3 -3 4 -12 1 -19z m73 2 c0 -5 -4 -10
-10 -10 -5 0 -10 5 -10 10 0 6 5 10 10 10 6 0 10 -4 10 -10z m-480 -14 c0 -3
-4 -8 -10 -11 -5 -3 -10 -1 -10 4 0 6 5 11 10 11 6 0 10 -2 10 -4z m190 -4 c0
-8 -43 -32 -55 -32 -3 0 -5 7 -5 16 0 11 6 15 20 11 11 -3 20 -1 20 4 0 5 5 9
10 9 6 0 10 -4 10 -8z m-155 -12 c-3 -5 -10 -10 -16 -10 -5 0 -9 5 -9 10 0 6
7 10 16 10 8 0 12 -4 9 -10z m355 0 c0 -5 -7 -10 -15 -10 -8 0 -15 5 -15 10 0
6 7 10 15 10 8 0 15 -4 15 -10z m50 -10 c0 -5 -4 -10 -10 -10 -5 0 -10 5 -10
10 0 6 5 10 10 10 6 0 10 -4 10 -10z m2250 -25 c19 -19 32 -35 29 -35 -3 0
-20 16 -39 35 -19 19 -32 35 -29 35 3 0 20 -16 39 -35z m-2353 -7 c-3 -7 -5
-2 -5 12 0 14 2 19 5 13 2 -7 2 -19 0 -25z m-187 8 c0 -3 -4 -8 -10 -11 -5 -3
-10 -1 -10 4 0 6 5 11 10 11 6 0 10 -2 10 -4z m103 -11 c-3 -9 -8 -14 -10 -11
-3 3 -2 9 2 15 9 16 15 13 8 -4z m4891 -25 c-6 -6 -10 -3 -10 10 0 13 4 16 10
10 7 -7 7 -13 0 -20z m-4837 -12 c-3 -8 -6 -5 -6 6 -1 11 2 17 5 13 3 -3 4
-12 1 -19z m2462 -88 c0 -10 -3 -8 -9 5 -12 27 -12 43 0 25 5 -8 9 -22 9 -30z
m50 -166 c13 8 24 -25 12 -37 -10 -10 -42 41 -40 65 0 7 4 3 10 -10 5 -13 13
-21 18 -18z m-735 -76 c16 -82 96 -133 246 -159 93 -15 95 -16 104 -47 6 -22
5 -36 -4 -47 -13 -16 -25 -12 -25 8 0 7 -10 12 -23 11 -12 0 -20 2 -17 4 6 7
-63 32 -88 32 -10 0 -29 7 -43 16 -13 9 -27 14 -30 11 -3 -3 -16 4 -29 15 -13
11 -34 26 -47 32 -27 14 -67 89 -67 129 -1 37 15 34 23 -5z m6671 -108 c3 -11
4 -24 1 -29 -9 -13 84 -224 155 -354 34 -61 64 -116 67 -122 3 -5 -7 1 -21 14
-15 14 -27 31 -27 38 0 8 -4 12 -9 9 -8 -5 -25 21 -23 34 0 3 -9 17 -20 30
-11 14 -16 19 -12 11 5 -10 3 -12 -5 -7 -7 5 -10 15 -6 23 4 13 3 14 -10 3
-13 -11 -14 -10 -9 6 6 15 4 17 -6 7 -14 -13 -13 -15 64 -172 11 -24 31 -50
43 -59 13 -8 23 -22 23 -31 0 -14 -2 -14 -11 -1 -9 13 -10 13 -6 0 2 -8 11
-14 20 -12 19 3 57 -44 57 -70 0 -11 -4 -17 -9 -14 -5 3 -8 -2 -7 -12 1 -13
-5 -16 -24 -14 -32 4 -159 51 -185 69 -23 16 -7 17 31 3 18 -7 31 -7 37 -1 15
15 -12 35 -76 55 -31 10 -55 21 -52 25 4 8 -12 11 -52 11 -13 0 -23 5 -23 10
0 6 -6 9 -12 8 -7 -2 -12 3 -10 10 1 8 -2 11 -7 7 -6 -3 -7 -13 -4 -21 5 -14
3 -14 -17 -2 -17 9 -24 10 -27 1 -3 -8 -30 -2 -86 19 -45 17 -89 31 -97 32 -8
0 -18 5 -21 9 -3 5 -9 1 -12 -8 -4 -9 -3 -13 3 -10 6 3 10 1 10 -5 0 -6 -10
-8 -26 -4 -26 7 -27 5 -20 -22 9 -37 173 -324 243 -427 29 -43 53 -82 53 -86
0 -8 -109 -56 -114 -50 -12 13 -47 92 -43 96 3 2 20 -12 38 -31 18 -20 34 -34
36 -32 6 6 -46 117 -121 258 -10 20 -24 34 -29 31 -6 -3 -7 -1 -3 5 11 19 -25
72 -49 72 -6 0 -5 -3 1 -8 6 -4 17 -25 24 -47 7 -22 25 -58 40 -80 28 -43 59
-104 58 -119 0 -5 6 -12 12 -16 8 -5 7 -9 -5 -13 -9 -4 -13 -3 -10 3 3 6 1 10
-4 10 -6 0 -11 8 -11 18 0 9 -9 28 -20 42 -11 14 -63 97 -116 185 -52 88 -92
149 -89 136 5 -17 4 -22 -5 -16 -9 5 -11 4 -6 -4 4 -6 12 -9 17 -6 5 4 9 -3 9
-14 0 -11 5 -23 10 -26 6 -4 8 -10 5 -15 -3 -5 3 -18 15 -30 11 -11 20 -30 20
-42 l0 -23 -13 21 c-38 67 -47 84 -40 84 4 0 0 6 -9 13 -18 14 -128 223 -128
243 0 8 -5 14 -10 14 -6 0 -14 8 -17 18 -4 9 -20 35 -35 56 -22 31 -26 42 -15
47 32 18 173 50 196 44 15 -3 144 -65 289 -136 145 -72 270 -129 278 -127 20
4 -31 100 -145 273 -102 155 -102 155 -18 190 23 9 53 23 67 31 35 19 58 17
65 -6z m-5071 -33 c106 -50 166 -96 222 -170 76 -100 107 -177 107 -261 1 -75
-23 -175 -48 -199 -8 -8 -11 -17 -8 -21 4 -3 1 -6 -6 -6 -7 0 -9 -5 -5 -12 4
-7 3 -8 -4 -4 -8 5 -9 13 -2 25 5 10 6 22 2 26 -4 5 -2 5 4 2 17 -10 25 18 11
33 -9 9 -9 11 -1 7 15 -8 28 23 16 35 -5 5 -15 -5 -22 -24 -18 -44 -81 -138
-92 -138 -5 0 -6 -4 -3 -10 3 -5 2 -10 -4 -10 -6 0 -26 -13 -44 -30 -19 -16
-37 -27 -41 -23 -3 3 -6 1 -6 -5 0 -6 -19 -21 -42 -33 -24 -12 -45 -25 -48
-28 -3 -4 -24 -13 -48 -20 -47 -13 -264 -13 -256 1 3 4 -1 8 -10 8 -8 0 -17
-6 -20 -12 -3 -7 -3 -3 0 9 4 18 1 21 -16 18 -18 -4 -20 -2 -9 11 10 12 9 13
-6 8 -12 -5 -16 -4 -11 4 3 6 0 15 -9 19 -8 5 -16 17 -18 28 -4 30 -17 46 -30
39 -7 -4 -9 -4 -5 1 4 4 -10 30 -31 59 -21 28 -41 62 -45 76 -15 54 -17 80 -6
80 6 0 9 -4 6 -8 -3 -5 12 -42 32 -83 30 -60 47 -81 92 -111 98 -69 189 -83
303 -48 75 23 148 74 196 136 43 57 60 105 61 177 0 32 4 56 9 53 17 -11 4 70
-18 113 -52 101 -161 180 -266 194 -22 3 -34 3 -28 0 10 -4 10 -7 0 -18 -15
-14 -97 -25 -97 -13 0 5 -10 2 -22 -6 -13 -7 -43 -17 -68 -20 -25 -4 -61 -17
-80 -29 -19 -12 -48 -29 -63 -37 -40 -20 -65 -75 -91 -199 -17 -79 -20 -116
-14 -146 5 -22 7 -48 4 -57 -2 -10 -1 -18 2 -18 11 0 43 -61 37 -70 -3 -4 2
-10 10 -14 8 -3 15 -11 15 -17 0 -7 -10 -3 -23 9 -13 12 -28 19 -32 15 -5 -5
-3 0 4 10 12 15 9 21 -11 18 -4 0 -5 5 -2 13 3 7 -2 16 -10 19 -9 4 -16 19
-17 34 0 24 -1 25 -9 8 -7 -18 -8 -18 -15 8 -8 30 -23 37 -21 10 0 -10 -3 -19
-9 -20 -5 -1 -9 5 -7 14 2 8 -1 12 -6 9 -20 -12 -35 117 -23 194 22 140 64
224 157 311 110 102 186 130 345 126 109 -3 119 -5 193 -40z m736 -10 c0 -2
-9 -3 -20 -4 -12 -1 -20 4 -20 13 0 12 4 12 20 4 11 -6 20 -12 20 -13z m-2320
-31 c0 -3 -4 -8 -10 -11 -5 -3 -10 -1 -10 4 0 6 5 11 10 11 6 0 10 -2 10 -4z
m95 -61 c71 -32 92 -38 125 -39 19 -1 40 1 45 5 6 4 22 -1 35 -11 l25 -20 -35
0 c-79 0 -283 64 -264 82 7 7 23 3 69 -17z m2419 -301 c9 -8 19 -27 22 -42 4
-15 40 -111 80 -213 41 -103 80 -209 86 -235 l12 -49 69 70 c38 38 119 125
180 193 l110 122 56 -1 c93 -2 116 -10 113 -39 -6 -46 -131 -517 -158 -591
-14 -41 -36 -92 -49 -114 -12 -22 -30 -64 -39 -93 -10 -28 -22 -50 -27 -47 -5
4 -6 -1 -3 -9 4 -10 1 -16 -7 -16 -11 0 -11 -3 1 -10 13 -8 12 -10 -2 -10 -12
0 -18 8 -18 25 0 13 -8 28 -17 33 -15 9 -15 15 1 93 10 46 40 153 67 237 53
163 69 242 51 242 -6 0 -28 -15 -49 -32 -20 -18 -34 -28 -30 -22 4 7 -1 15
-10 19 -13 4 -47 -24 -134 -112 l-117 -118 -6 38 c-6 33 -9 37 -21 27 -12 -10
-15 -9 -15 6 0 17 -1 17 -15 -2 -9 -12 -13 -13 -10 -4 4 11 -1 16 -16 17 -12
1 -32 12 -45 24 -20 19 -24 20 -24 6 0 -9 -5 -17 -11 -17 -6 0 -9 9 -6 20 3
11 1 20 -4 20 -5 0 -9 4 -9 9 0 5 -5 22 -12 38 -6 15 -10 32 -9 36 1 5 -3 6
-9 2 -5 -3 -13 1 -16 9 -3 9 -10 13 -15 10 -5 -3 -9 -1 -9 4 0 15 -28 23 -36
10 -5 -7 -2 -8 6 -3 9 6 11 4 5 -5 -6 -10 -11 -9 -21 4 -14 20 -34 13 -35 -12
0 -10 -3 -12 -6 -5 -3 10 -8 10 -19 -1 -8 -8 -14 -19 -14 -24 0 -5 -9 -19 -20
-32 -11 -13 -20 -28 -20 -34 0 -6 5 -4 10 4 7 10 10 11 10 2 0 -7 -6 -15 -14
-18 -8 -3 -12 -14 -9 -27 4 -18 3 -19 -6 -7 -9 13 -11 13 -11 -2 0 -24 -69
-187 -97 -228 -13 -19 -19 -36 -13 -38 18 -6 11 -22 -9 -22 -25 0 -36 16 -18
27 8 4 17 21 21 37 7 27 6 27 -10 12 -32 -33 -26 -5 24 106 59 133 127 319
172 473 18 61 40 136 50 167 12 39 13 59 6 61 -7 3 -4 12 8 26 23 26 87 29
110 5z m-1447 -16 c-3 -8 -6 -5 -6 6 -1 11 2 17 5 13 3 -3 4 -12 1 -19z m-10
-80 c-3 -7 -5 -2 -5 12 0 14 2 19 5 13 2 -7 2 -19 0 -25z m5841 -13 c-3 -3 -9
2 -12 12 -6 14 -5 15 5 6 7 -7 10 -15 7 -18z m-1736 -48 c76 -76 206 -228 351
-412 69 -88 158 -198 197 -244 39 -46 68 -86 65 -90 -4 -3 -11 2 -16 12 -12
21 -45 23 -52 3 -9 -23 -46 -8 -40 15 3 10 9 19 14 19 15 0 10 20 -6 27 -9 3
-22 -2 -29 -12 -12 -17 -13 -17 -20 1 -5 13 -1 24 13 35 20 16 20 17 -11 48
-17 17 -35 31 -41 31 -6 0 -7 3 -4 7 9 9 -23 43 -40 43 -8 0 -11 5 -8 10 3 6
1 10 -5 10 -6 0 -9 4 -6 8 3 5 -11 14 -30 21 -18 7 -34 17 -34 22 0 6 5 7 12
3 7 -4 8 -3 4 5 -6 9 -11 9 -22 0 -12 -10 -13 -9 -8 4 7 18 -17 47 -39 47 -16
0 -50 34 -42 42 3 2 -1 5 -7 6 -7 0 -31 4 -53 7 -22 4 -48 8 -57 8 -10 1 -18
4 -18 7 0 8 -88 70 -99 70 -18 0 -102 -242 -89 -255 3 -3 52 3 109 15 152 30
223 37 217 19 -3 -8 -27 -19 -54 -25 -27 -6 -103 -24 -169 -39 -66 -14 -126
-32 -133 -37 -7 -6 -22 -34 -34 -61 -12 -28 -24 -45 -26 -39 -2 6 2 20 8 32
11 20 10 21 -9 10 -12 -6 -21 -15 -21 -21 0 -6 -4 -8 -9 -5 -10 7 -19 -30 -31
-139 -18 -153 -13 -143 -75 -142 -42 1 -52 4 -43 14 6 7 14 10 20 7 19 -12 47
38 52 94 7 65 33 182 82 357 18 66 51 191 74 278 69 267 74 273 162 184z
m-1279 -67 c146 -11 213 -38 285 -114 58 -61 76 -110 69 -180 -6 -57 -50 -166
-67 -166 -6 0 -8 -5 -4 -12 4 -6 3 -8 -4 -4 -7 4 1 27 23 65 29 52 31 59 15
58 -10 -1 -18 -6 -17 -11 1 -6 -4 -10 -12 -11 -8 0 -16 -7 -18 -15 -4 -13 -3
-13 7 0 10 13 11 13 7 0 -2 -8 -9 -16 -15 -16 -7 -1 -18 -2 -26 -3 -7 0 -16
-10 -19 -21 -3 -11 -9 -20 -14 -19 -4 1 -17 1 -28 0 -17 -1 -18 -3 -5 -11 13
-9 13 -10 0 -10 -8 0 -27 -11 -42 -25 -28 -25 -44 -33 -33 -15 9 15 -2 12 -19
-6 -9 -9 -16 -11 -16 -4 0 6 -4 8 -10 5 -24 -15 -65 -18 -239 -22 -102 -2
-188 -8 -191 -13 -3 -5 -7 -42 -8 -82 -3 -101 -30 -299 -42 -313 -11 -13 -70
-6 -122 14 -30 11 -39 48 -13 48 8 0 15 -5 15 -11 0 -5 7 -1 15 10 9 12 14 14
15 6 0 -8 5 -10 12 -6 7 5 9 2 6 -8 -4 -8 -3 -20 1 -27 5 -7 15 12 25 46 26
89 74 303 67 303 -4 0 -17 -39 -30 -87 -46 -174 -56 -204 -66 -203 -6 1 -9 7
-7 13 1 7 -3 5 -10 -3 -7 -8 -20 -16 -30 -16 -18 -2 -17 2 34 166 11 36 22 90
24 120 11 123 81 553 95 581 7 13 27 15 141 12 73 -2 186 -8 251 -13z m-3484
-106 c14 -12 -19 -1 -35 12 -18 14 -18 14 6 3 14 -6 27 -13 29 -15z m36 -22
c-3 -3 -11 0 -18 7 -9 10 -8 11 6 5 10 -3 15 -9 12 -12z m685 -34 c0 -6 -6 -5
-15 2 -8 7 -15 14 -15 16 0 2 7 1 15 -2 8 -4 15 -11 15 -16z m80 -73 c14 -19
14 -19 -2 -6 -10 7 -18 18 -18 24 0 6 1 8 3 6 1 -2 9 -13 17 -24z m350 -46
c12 -9 11 -10 -7 -6 -13 3 -23 1 -23 -4 0 -5 -10 -9 -22 -9 -23 1 -23 1 2 15
30 17 31 17 50 4z m-100 -23 c8 -2 -13 -4 -47 -5 -35 0 -63 2 -63 7 0 7 76 5
110 -2z m1097 -138 c-3 -8 -6 -5 -6 6 -1 11 2 17 5 13 3 -3 4 -12 1 -19z
m3843 2 c0 -5 -4 -10 -10 -10 -5 0 -10 5 -10 10 0 6 5 10 10 10 6 0 10 -4 10
-10z m-1025 -25 c-16 -7 -101 -27 -188 -45 -141 -29 -183 -33 -164 -14 8 9
317 72 352 72 l30 0 -30 -13z m-2575 2 c0 -2 -14 -16 -32 -33 l-31 -29 22 33
c18 26 41 42 41 29z m-463 -109 c-3 -8 -6 -5 -6 6 -1 11 2 17 5 13 3 -3 4 -12
1 -19z m-23 -70 c-10 -30 -22 -48 -36 -51 -20 -6 -20 -6 1 17 11 12 26 37 32
54 6 18 13 31 15 29 2 -2 -3 -24 -12 -49z m-79 12 c3 -6 -1 -7 -9 -4 -18 7
-21 14 -7 14 6 0 13 -4 16 -10z m15 -70 c0 -5 -6 -10 -14 -10 -8 0 -18 5 -21
10 -3 6 3 10 14 10 12 0 21 -4 21 -10z m2674 -25 c3 -8 1 -15 -4 -15 -6 0 -10
7 -10 15 0 8 2 15 4 15 2 0 6 -7 10 -15z"/>
<path d="M14500 13780 c0 -5 5 -10 10 -10 6 0 10 5 10 10 0 6 -4 10 -10 10 -5
0 -10 -4 -10 -10z"/>
<path d="M12060 3540 c0 -5 5 -12 10 -15 6 -4 8 -10 5 -15 -7 -12 8 -20 22
-12 8 5 3 15 -13 29 -13 12 -24 18 -24 13z"/>
<path d="M12145 3537 c-12 -9 -14 -16 -7 -21 6 -3 16 3 22 14 13 24 10 25 -15
7z"/>
<path d="M12605 3540 c-3 -5 -1 -10 4 -10 6 0 11 5 11 10 0 6 -2 10 -4 10 -3
0 -8 -4 -11 -10z"/>
<path d="M12640 3540 c0 -5 5 -10 10 -10 6 0 10 5 10 10 0 6 -4 10 -10 10 -5
0 -10 -4 -10 -10z"/>
<path d="M12358 3523 c7 -3 16 -2 19 1 4 3 -2 6 -13 5 -11 0 -14 -3 -6 -6z"/>
<path d="M12400 3509 c0 -5 5 -7 10 -4 6 3 10 8 10 11 0 2 -4 4 -10 4 -5 0
-10 -5 -10 -11z"/>
<path d="M12475 3510 c4 -6 11 -8 16 -5 14 9 11 15 -7 15 -8 0 -12 -5 -9 -10z"/>
<path d="M18035 6130 c-3 -5 -1 -10 4 -10 6 0 11 5 11 10 0 6 -2 10 -4 10 -3
0 -8 -4 -11 -10z"/>
<path d="M17975 5990 c3 -5 8 -10 11 -10 2 0 4 5 4 10 0 6 -5 10 -11 10 -5 0
-7 -4 -4 -10z"/>
<path d="M17830 5761 c0 -6 4 -13 10 -16 6 -3 7 1 4 9 -7 18 -14 21 -14 7z"/>
<path d="M16170 3590 c0 -5 5 -10 11 -10 5 0 7 5 4 10 -3 6 -8 10 -11 10 -2 0
-4 -4 -4 -10z"/>
<path d="M10850 3206 c0 -7 113 -66 118 -62 2 3 -23 19 -57 35 -34 17 -61 29
-61 27z"/>
<path d="M10980 3136 c0 -6 148 -76 158 -76 8 1 -140 79 -150 80 -5 0 -8 -2
-8 -4z"/>
<path d="M15175 2632 c12 -13 266 -115 271 -109 2 2 -42 22 -98 44 -57 23
-121 49 -143 58 -22 9 -35 12 -30 7z"/>
<path d="M15468 2508 c5 -5 16 -8 23 -6 8 3 3 7 -10 11 -17 4 -21 3 -13 -5z"/>
<path d="M15628 2443 c6 -2 9 -10 6 -15 -4 -7 -2 -8 5 -4 13 9 5 26 -12 25 -9
0 -8 -2 1 -6z"/>
<path d="M10996 2403 c-6 -14 -5 -15 5 -6 7 7 10 15 7 18 -3 3 -9 -2 -12 -12z"/>
<path d="M11979 2023 c-13 -16 -12 -17 4 -4 16 13 21 21 13 21 -2 0 -10 -8
-17 -17z"/>
<path d="M11949 1983 c-13 -16 -12 -17 4 -4 9 7 17 15 17 17 0 8 -8 3 -21 -13z"/>
<path d="M12960 2162 c-14 -1 -32 -6 -40 -9 -21 -9 -27 -10 -47 -12 -16 -1
-16 -3 -3 -12 11 -7 2 -9 -32 -6 -26 2 -45 0 -42 -5 3 -4 -3 -8 -13 -9 -32 -1
-54 -7 -67 -18 -22 -18 -63 -241 -44 -241 8 0 12 15 23 84 3 21 8 36 10 34 3
-2 0 -29 -4 -59 -5 -29 -7 -56 -4 -59 2 -3 86 -5 186 -5 159 0 187 2 221 19
52 26 77 69 74 126 -2 30 2 49 12 58 10 9 10 11 1 6 -10 -5 -11 -1 -7 13 5 14
-1 28 -18 44 -14 13 -29 24 -33 24 -4 1 -19 7 -31 14 -13 7 -34 10 -47 7 -13
-3 -34 -2 -47 2 -13 4 -34 6 -48 4z m23 -49 c-7 -2 -19 -2 -25 0 -7 3 -2 5 12
5 14 0 19 -2 13 -5z"/>
<path d="M676 15345 c-7 -19 -5 -19 30 0 l29 15 -26 0 c-15 0 -29 -7 -33 -15z"/>
<path d="M19958 15353 c7 -3 16 -2 19 1 4 3 -2 6 -13 5 -11 0 -14 -3 -6 -6z"/>
<path d="M19985 15330 c-3 -5 -1 -10 4 -10 6 0 11 5 11 10 0 6 -2 10 -4 10 -3
0 -8 -4 -11 -10z"/>
<path d="M20145 15070 c-3 -5 -1 -10 4 -10 6 0 11 5 11 10 0 6 -2 10 -4 10 -3
0 -8 -4 -11 -10z"/>
<path d="M497 15053 c-4 -3 -7 -11 -7 -17 0 -6 5 -5 12 2 6 6 9 14 7 17 -3 3
-9 2 -12 -2z"/>
<path d="M485 15010 c-3 -5 1 -10 10 -10 9 0 13 5 10 10 -3 6 -8 10 -10 10 -2
0 -7 -4 -10 -10z"/>
<path d="M418 14873 c6 -2 18 -2 25 0 6 3 1 5 -13 5 -14 0 -19 -2 -12 -5z"/>
<path d="M448 14793 c7 -3 16 -2 19 1 4 3 -2 6 -13 5 -11 0 -14 -3 -6 -6z"/>
<path d="M400 14620 c0 -5 5 -10 10 -10 6 0 10 5 10 10 0 6 -4 10 -10 10 -5 0
-10 -4 -10 -10z"/>
<path d="M20525 14490 c-3 -5 -1 -10 4 -10 6 0 11 5 11 10 0 6 -2 10 -4 10 -3
0 -8 -4 -11 -10z"/>
<path d="M20632 14300 c0 -14 2 -19 5 -12 2 6 2 18 0 25 -3 6 -5 1 -5 -13z"/>
<path d="M13930 14295 c0 -8 5 -15 10 -15 6 0 10 4 10 9 0 5 10 12 23 14 16 3
13 5 -10 6 -23 1 -33 -3 -33 -14z"/>
<path d="M20688 14243 c6 -2 18 -2 25 0 6 3 1 5 -13 5 -14 0 -19 -2 -12 -5z"/>
<path d="M14400 14220 c-18 -12 -2 -12 25 0 13 6 15 9 5 9 -8 0 -22 -4 -30 -9z"/>
<path d="M20972 13730 c0 -16 4 -30 9 -30 5 0 9 14 9 30 0 17 -4 30 -8 30 -5
0 -9 -13 -10 -30z"/>
<path d="M20980 13632 c0 -29 4 -52 9 -52 8 0 3 90 -5 99 -2 2 -4 -19 -4 -47z"/>
<path d="M21032 13550 c0 -14 2 -19 5 -12 2 6 2 18 0 25 -3 6 -5 1 -5 -13z"/>
<path d="M21140 13060 c0 -5 7 -10 15 -10 8 0 15 5 15 10 0 6 -7 10 -15 10 -8
0 -15 -4 -15 -10z"/>
<path d="M21189 12872 c7 -5 11 -14 8 -19 -3 -5 -1 -15 4 -23 7 -11 9 -7 7 14
-2 16 -10 31 -18 33 -12 4 -13 3 -1 -5z"/>
<path d="M21208 12643 c7 -3 16 -2 19 1 4 3 -2 6 -13 5 -11 0 -14 -3 -6 -6z"/>
<path d="M21265 12560 c-3 -5 -1 -10 4 -10 6 0 11 5 11 10 0 6 -2 10 -4 10 -3
0 -8 -4 -11 -10z"/>
<path d="M146 12491 c-4 -7 -5 -15 -2 -18 9 -9 19 4 14 18 -4 11 -6 11 -12 0z"/>
<path d="M21292 12221 c-8 -5 -12 -16 -10 -25 2 -12 6 -10 15 9 6 14 10 25 10
25 -1 0 -8 -4 -15 -9z"/>
<path d="M18335 12170 c10 -11 20 -20 23 -20 3 0 -3 9 -13 20 -10 11 -20 20
-23 20 -3 0 3 -9 13 -20z"/>
<path d="M21295 12160 c-13 -6 -15 -9 -5 -9 8 0 22 4 30 9 18 12 2 12 -25 0z"/>
<path d="M18520 11946 c0 -2 8 -10 18 -17 15 -13 16 -12 3 4 -13 16 -21 21
-21 13z"/>
<path d="M18727 11685 c41 -58 77 -105 79 -105 2 0 -17 30 -42 68 -25 37 -52
79 -62 93 -9 15 -24 32 -33 38 -10 5 16 -37 58 -94z"/>
<path d="M155 11680 c-3 -6 1 -7 9 -4 18 7 21 14 7 14 -6 0 -13 -4 -16 -10z"/>
<path d="M153 11562 c0 -22 4 -29 10 -23 7 7 7 18 0 33 -9 20 -10 20 -10 -10z"/>
<path d="M18830 11547 c0 -5 14 -29 32 -55 93 -135 333 -554 428 -746 59 -120
110 -213 114 -207 4 6 3 11 -2 11 -6 0 -13 11 -16 24 -14 55 -183 387 -249
491 -51 80 -57 88 -72 120 -7 17 -34 61 -59 99 -25 38 -46 71 -46 73 0 2 -29
47 -65 101 -36 53 -65 93 -65 89z"/>
<path d="M21315 11310 c-3 -5 1 -10 10 -10 9 0 13 5 10 10 -3 6 -8 10 -10 10
-2 0 -7 -4 -10 -10z"/>
<path d="M21318 11213 c7 -3 16 -2 19 1 4 3 -2 6 -13 5 -11 0 -14 -3 -6 -6z"/>
<path d="M176 11115 c7 -17 20 -20 28 -6 3 5 -1 12 -10 15 -22 9 -24 8 -18 -9z"/>
<path d="M21277 11099 c7 -7 15 -10 18 -7 3 3 -2 9 -12 12 -14 6 -15 5 -6 -5z"/>
<path d="M172 11001 c2 -7 7 -12 11 -12 12 1 9 15 -3 20 -7 2 -11 -2 -8 -8z"/>
<path d="M21271 10894 c0 -11 3 -14 6 -6 3 7 2 16 -1 19 -3 4 -6 -2 -5 -13z"/>
<path d="M21228 10783 c7 -3 16 -2 19 1 4 3 -2 6 -13 5 -11 0 -14 -3 -6 -6z"/>
<path d="M21255 10690 c-3 -5 1 -10 9 -10 9 0 16 5 16 10 0 6 -4 10 -9 10 -6
0 -13 -4 -16 -10z"/>
<path d="M19415 10484 c8 -20 15 -38 15 -40 0 -2 5 -4 10 -4 6 0 1 18 -10 40
-25 50 -35 52 -15 4z"/>
<path d="M21150 10494 c0 -10 31 -36 37 -31 3 3 -2 13 -10 22 -16 15 -27 19
-27 9z"/>
<path d="M21170 10435 c0 -8 5 -15 10 -15 6 0 10 7 10 15 0 8 -4 15 -10 15 -5
0 -10 -7 -10 -15z"/>
<path d="M300 10201 c0 -6 5 -13 10 -16 6 -3 10 1 10 9 0 9 -4 16 -10 16 -5 0
-10 -4 -10 -9z"/>
<path d="M310 10160 c-9 -6 -10 -10 -3 -10 6 0 15 5 18 10 8 12 4 12 -15 0z"/>
<path d="M21103 10143 c9 -2 17 -11 17 -19 0 -8 5 -14 10 -14 6 0 10 6 10 14
0 14 -22 27 -43 25 -7 -1 -4 -3 6 -6z"/>
<path d="M305 10121 c-3 -5 -1 -12 5 -16 5 -3 10 1 10 9 0 18 -6 21 -15 7z"/>
<path d="M350 10028 c0 -16 -5 -28 -12 -28 -9 0 -9 -3 -1 -11 25 -25 44 18 23
51 -8 12 -10 9 -10 -12z"/>
<path d="M21090 9989 c0 -5 5 -7 10 -4 6 3 10 8 10 11 0 2 -4 4 -10 4 -5 0
-10 -5 -10 -11z"/>
<path d="M21040 9935 c0 -8 2 -15 4 -15 2 0 6 7 10 15 3 8 1 15 -4 15 -6 0
-10 -7 -10 -15z"/>
<path d="M20988 9808 c9 -9 15 -9 24 0 9 9 7 12 -12 12 -19 0 -21 -3 -12 -12z"/>
<path d="M20951 9774 c0 -11 3 -14 6 -6 3 7 2 16 -1 19 -3 4 -6 -2 -5 -13z"/>
<path d="M20963 9715 c0 -22 2 -30 4 -17 2 12 2 30 0 40 -3 9 -5 -1 -4 -23z"/>
<path d="M20900 9545 c0 -8 5 -15 10 -15 6 0 10 7 10 15 0 8 -4 15 -10 15 -5
0 -10 -7 -10 -15z"/>
<path d="M20800 9349 c0 -5 5 -7 10 -4 6 3 10 8 10 11 0 2 -4 4 -10 4 -5 0
-10 -5 -10 -11z"/>
<path d="M20710 9310 c-13 -9 -13 -11 0 -20 8 -5 24 -9 35 -8 16 1 16 1 -3 5
-15 3 -22 10 -18 19 6 17 6 17 -14 4z"/>
<path d="M20778 9293 c7 -3 16 -2 19 1 4 3 -2 6 -13 5 -11 0 -14 -3 -6 -6z"/>
<path d="M540 9260 c0 -5 5 -10 10 -10 6 0 10 5 10 10 0 6 -4 10 -10 10 -5 0
-10 -4 -10 -10z"/>
<path d="M20700 9249 c0 -5 5 -7 10 -4 6 3 10 8 10 11 0 2 -4 4 -10 4 -5 0
-10 -5 -10 -11z"/>
<path d="M20720 9230 c0 -5 7 -10 15 -10 8 0 15 5 15 10 0 6 -7 10 -15 10 -8
0 -15 -4 -15 -10z"/>
<path d="M20680 9210 c0 -6 7 -10 15 -10 8 0 15 2 15 4 0 2 -7 6 -15 10 -8 3
-15 1 -15 -4z"/>
<path d="M20702 9128 c-15 -15 -16 -38 -1 -38 6 0 9 6 6 14 -3 8 -1 17 6 19 7
2 9 7 6 10 -3 4 -11 1 -17 -5z"/>
<path d="M650 9099 c0 -5 5 -7 10 -4 6 3 10 8 10 11 0 2 -4 4 -10 4 -5 0 -10
-5 -10 -11z"/>
<path d="M20618 9063 c7 -3 16 -2 19 1 4 3 -2 6 -13 5 -11 0 -14 -3 -6 -6z"/>
<path d="M20676 9061 c-4 -7 -5 -15 -2 -18 9 -9 19 4 14 18 -4 11 -6 11 -12 0z"/>
<path d="M20625 8970 c-3 -5 -1 -10 4 -10 6 0 11 5 11 10 0 6 -2 10 -4 10 -3
0 -8 -4 -11 -10z"/>
<path d="M720 8865 c0 -14 5 -25 10 -25 6 0 10 7 10 15 0 8 8 15 18 16 14 0
14 2 -3 9 -31 13 -35 12 -35 -15z"/>
<path d="M20530 8766 c0 -22 3 -27 11 -19 8 8 8 16 0 30 -9 16 -10 14 -11 -11z"/>
<path d="M818 8633 c7 -3 16 -2 19 1 4 3 -2 6 -13 5 -11 0 -14 -3 -6 -6z"/>
<path d="M850 8523 c0 -24 5 -43 10 -43 6 0 10 4 10 9 0 5 2 15 5 23 3 7 -1
22 -9 33 -14 19 -15 17 -16 -22z"/>
<path d="M20377 8470 c3 -11 7 -20 9 -20 2 0 4 9 4 20 0 11 -4 20 -9 20 -5 0
-7 -9 -4 -20z"/>
<path d="M1005 8250 c-3 -5 -1 -10 4 -10 6 0 11 5 11 10 0 6 -2 10 -4 10 -3 0
-8 -4 -11 -10z"/>
<path d="M1035 8229 c-4 -6 -5 -12 -2 -15 2 -3 7 2 10 11 7 17 1 20 -8 4z"/>
<path d="M1040 8175 c0 -8 5 -15 10 -15 6 0 10 7 10 15 0 8 -4 15 -10 15 -5 0
-10 -7 -10 -15z"/>
<path d="M1080 8120 c0 -5 5 -10 10 -10 6 0 10 5 10 10 0 6 -4 10 -10 10 -5 0
-10 -4 -10 -10z"/>
<path d="M1316 7773 c-6 -14 -5 -15 5 -6 7 7 10 15 7 18 -3 3 -9 -2 -12 -12z"/>
<path d="M1250 7756 c0 -2 7 -6 15 -10 8 -3 15 -1 15 4 0 6 -7 10 -15 10 -8 0
-15 -2 -15 -4z"/>
<path d="M1366 7581 c-3 -5 5 -11 18 -13 17 -4 23 -1 19 9 -6 15 -29 18 -37 4z"/>
<path d="M1645 7150 c-3 -5 -1 -10 4 -10 6 0 11 5 11 10 0 6 -2 10 -4 10 -3 0
-8 -4 -11 -10z"/>
<path d="M1935 6720 c3 -5 8 -10 11 -10 2 0 4 5 4 10 0 6 -5 10 -11 10 -5 0
-7 -4 -4 -10z"/>
<path d="M1920 6680 c0 -5 5 -10 10 -10 6 0 10 5 10 10 0 6 -4 10 -10 10 -5 0
-10 -4 -10 -10z"/>
<path d="M1970 6629 c0 -5 5 -7 10 -4 6 3 10 8 10 11 0 2 -4 4 -10 4 -5 0 -10
-5 -10 -11z"/>
<path d="M2330 6158 c0 -10 67 -11 73 0 3 4 -13 7 -34 7 -21 1 -39 -3 -39 -7z"/>
<path d="M2480 6039 c0 -5 9 -9 20 -9 11 0 20 2 20 4 0 2 -9 6 -20 9 -11 3
-20 1 -20 -4z"/>
<path d="M6721 5854 c0 -11 3 -14 6 -6 3 7 2 16 -1 19 -3 4 -6 -2 -5 -13z"/>
<path d="M2795 5640 c-3 -6 1 -7 9 -4 18 7 21 14 7 14 -6 0 -13 -4 -16 -10z"/>
<path d="M2815 5610 c4 -6 11 -8 16 -5 14 9 11 15 -7 15 -8 0 -12 -5 -9 -10z"/>
<path d="M2880 5535 c0 -8 9 -15 20 -15 11 0 20 7 20 15 0 8 -9 15 -20 15 -11
0 -20 -7 -20 -15z"/>
<path d="M6980 5495 c0 -5 5 -17 10 -25 5 -8 10 -10 10 -5 0 6 -5 17 -10 25
-5 8 -10 11 -10 5z"/>
<path d="M3198 5356 c-27 -12 -27 -12 -8 -29 11 -9 26 -17 33 -17 6 0 3 7 -7
15 -20 15 -20 15 0 30 23 17 18 18 -18 1z"/>
<path d="M3288 5283 c7 -3 16 -2 19 1 4 3 -2 6 -13 5 -11 0 -14 -3 -6 -6z"/>
<path d="M3515 5120 c-3 -6 1 -7 9 -4 18 7 21 14 7 14 -6 0 -13 -4 -16 -10z"/>
<path d="M3570 5056 c0 -9 5 -16 10 -16 6 0 10 4 10 9 0 6 -4 13 -10 16 -5 3
-10 -1 -10 -9z"/>
<path d="M3724 4939 c-3 -6 -1 -16 5 -22 8 -8 11 -5 11 11 0 24 -5 28 -16 11z"/>
<path d="M3840 4816 c0 -9 5 -16 10 -16 6 0 10 4 10 9 0 6 -4 13 -10 16 -5 3
-10 -1 -10 -9z"/>
<path d="M4060 4690 c0 -5 5 -10 10 -10 6 0 10 5 10 10 0 6 -4 10 -10 10 -5 0
-10 -4 -10 -10z"/>
<path d="M4417 4433 c-13 -12 -7 -33 8 -33 8 0 15 9 15 20 0 20 -11 26 -23 13z"/>
<path d="M4605 4370 c3 -5 8 -10 11 -10 2 0 4 5 4 10 0 6 -5 10 -11 10 -5 0
-7 -4 -4 -10z"/>
<path d="M4710 4329 c0 -5 9 -9 20 -9 11 0 20 2 20 4 0 2 -9 6 -20 9 -11 3
-20 1 -20 -4z"/>
<path d="M4792 4270 c0 -14 2 -19 5 -12 2 6 2 18 0 25 -3 6 -5 1 -5 -13z"/>
<path d="M4875 4240 c-8 -14 6 -61 17 -54 5 3 4 11 -3 20 -6 7 -9 21 -5 29 6
17 0 20 -9 5z"/>
<path d="M7265 4141 c-3 -5 -1 -12 5 -16 5 -3 10 1 10 9 0 18 -6 21 -15 7z"/>
<path d="M5328 4063 c7 -3 16 -2 19 1 4 3 -2 6 -13 5 -11 0 -14 -3 -6 -6z"/>
<path d="M5325 4030 c3 -5 8 -10 11 -10 2 0 4 5 4 10 0 6 -5 10 -11 10 -5 0
-7 -4 -4 -10z"/>
<path d="M5775 3960 c3 -6 -1 -13 -9 -16 -9 -3 -16 -10 -16 -15 0 -6 9 -5 20
1 21 11 28 40 9 40 -5 0 -7 -5 -4 -10z"/>
<path d="M5658 3923 c7 -3 16 -2 19 1 4 3 -2 6 -13 5 -11 0 -14 -3 -6 -6z"/>
<path d="M5833 3923 c-15 -5 -17 -23 -4 -23 5 0 11 7 15 15 3 8 4 15 3 14 -1
0 -8 -3 -14 -6z"/>
<path d="M6065 3850 c3 -5 8 -10 11 -10 2 0 4 5 4 10 0 6 -5 10 -11 10 -5 0
-7 -4 -4 -10z"/>
<path d="M6000 3830 c0 -5 4 -10 9 -10 6 0 13 5 16 10 3 6 -1 10 -9 10 -9 0
-16 -4 -16 -10z"/>
<path d="M6060 3815 c-10 -12 -10 -15 4 -15 9 0 16 7 16 15 0 8 -2 15 -4 15
-2 0 -9 -7 -16 -15z"/>
<path d="M6226 3771 c-3 -5 1 -12 10 -15 22 -8 25 -4 9 11 -8 7 -16 9 -19 4z"/>
<path d="M7425 3770 c-3 -5 -1 -10 4 -10 6 0 11 5 11 10 0 6 -2 10 -4 10 -3 0
-8 -4 -11 -10z"/>
<path d="M6410 3740 c0 -5 5 -10 10 -10 6 0 10 5 10 10 0 6 -4 10 -10 10 -5 0
-10 -4 -10 -10z"/>
<path d="M6450 3720 c0 -5 5 -10 10 -10 6 0 10 5 10 10 0 6 -4 10 -10 10 -5 0
-10 -4 -10 -10z"/>
<path d="M7410 3716 c0 -15 26 -46 38 -46 3 0 1 5 -6 12 -7 7 -12 20 -12 30 0
10 -4 18 -10 18 -5 0 -10 -6 -10 -14z"/>
<path d="M6535 3690 c-4 -6 6 -10 22 -10 22 0 25 2 13 10 -19 12 -27 12 -35 0z"/>
<path d="M6705 3630 c-3 -5 -1 -10 4 -10 6 0 11 5 11 10 0 6 -2 10 -4 10 -3 0
-8 -4 -11 -10z"/>
<path d="M7300 3631 c0 -6 5 -13 10 -16 6 -3 10 1 10 9 0 9 -4 16 -10 16 -5 0
-10 -4 -10 -9z"/>
<path d="M7440 3629 c0 -5 5 -7 10 -4 6 3 10 8 10 11 0 2 -4 4 -10 4 -5 0 -10
-5 -10 -11z"/>
<path d="M7350 3615 c0 -8 9 -15 20 -15 11 0 20 2 20 5 0 2 -9 9 -20 15 -16 9
-20 8 -20 -5z"/>
<path d="M6758 3603 c7 -3 16 -2 19 1 4 3 -2 6 -13 5 -11 0 -14 -3 -6 -6z"/>
<path d="M7396 3581 c-4 -5 -2 -12 3 -15 5 -4 12 -2 15 3 4 5 2 12 -3 15 -5 4
-12 2 -15 -3z"/>
<path d="M7165 3570 c3 -5 8 -10 11 -10 2 0 4 5 4 10 0 6 -5 10 -11 10 -5 0
-7 -4 -4 -10z"/>
<path d="M7081 3544 c0 -11 3 -14 6 -6 3 7 2 16 -1 19 -3 4 -6 -2 -5 -13z"/>
<path d="M17360 2645 c10 -12 9 -15 -6 -16 -11 -1 -23 -1 -28 0 -4 1 -16 -8
-26 -19 -10 -12 -22 -21 -27 -21 -4 1 -8 -2 -8 -6 0 -5 -4 -14 -9 -21 -13 -21
4 -29 18 -10 7 10 16 15 19 11 4 -3 7 1 7 11 0 9 4 15 8 12 5 -3 15 4 22 15 8
10 20 19 26 19 6 0 18 8 25 17 10 11 10 14 2 9 -7 -4 -13 -2 -13 3 0 6 -5 11
-11 11 -8 0 -8 -5 1 -15z"/>
</g>
</svg>
