<?xml version="1.0" standalone="no"?>
<!DOCTYPE svg PUBLIC "-//W3C//DTD SVG 20010904//EN"
 "http://www.w3.org/TR/2001/REC-SVG-20010904/DTD/svg10.dtd">
<svg version="1.0" xmlns="http://www.w3.org/2000/svg"
 width="2688.000000pt" height="1536.000000pt" viewBox="0 0 2688.000000 1536.000000"
 preserveAspectRatio="xMidYMid meet">

<g transform="translate(0.000000,1536.000000) scale(0.100000,-0.100000)"
fill="#000000" stroke="none">
<path d="M0 7680 l0 -7680 13440 0 13440 0 0 7680 0 7680 -13440 0 -13440 0 0
-7680z m14290 5810 c491 -36 740 -80 1210 -215 473 -135 1188 -493 1615 -808
629 -465 1009 -854 1456 -1492 231 -329 378 -590 517 -915 60 -140 149 -397
140 -405 -2 -2 -22 -6 -45 -10 -41 -6 -42 -6 -61 32 -11 21 -36 78 -57 127
-235 572 -526 1053 -938 1554 -136 165 -521 554 -690 697 -330 280 -841 616
-1192 784 -357 172 -556 248 -880 340 -264 75 -411 107 -676 145 -283 42 -421
50 -804 50 -369 0 -512 -11 -830 -60 -484 -74 -1091 -276 -1555 -517 -393
-204 -753 -434 -985 -631 -428 -363 -837 -786 -1112 -1151 -258 -343 -532
-832 -683 -1220 -53 -135 -61 -145 -113 -145 -69 0 -70 4 -33 120 159 503 593
1211 1072 1750 354 397 704 704 1159 1012 239 162 345 224 630 368 418 212
729 330 1165 445 319 84 563 123 905 145 94 6 188 12 210 14 119 9 331 4 575
-14z m170 -325 c431 -49 595 -84 1010 -212 211 -66 585 -222 800 -335 509
-267 957 -590 1344 -968 367 -359 698 -780 946 -1205 163 -278 393 -776 370
-799 -17 -17 -33 10 -105 169 -275 607 -586 1096 -967 1520 -259 288 -606 601
-903 814 -110 79 -361 237 -550 346 -447 258 -1105 498 -1588 580 -658 111
-1307 108 -1849 -11 -466 -101 -693 -175 -1128 -363 -199 -87 -335 -158 -555
-290 -554 -335 -884 -606 -1347 -1106 -131 -142 -337 -407 -518 -665 -170
-244 -381 -626 -471 -855 -44 -112 -68 -149 -85 -132 -15 15 37 155 136 363
129 270 368 657 540 874 42 52 103 131 136 175 128 168 495 561 663 708 375
331 571 473 986 715 275 160 473 254 805 382 348 134 810 249 1188 296 334 41
777 41 1142 -1z m-250 -344 c66 -101 140 -210 165 -242 25 -31 45 -65 45 -74
0 -9 -21 -50 -47 -91 -27 -40 -82 -126 -123 -191 -84 -130 -207 -315 -356
-533 -54 -80 -139 -206 -187 -280 -48 -74 -101 -151 -117 -170 l-29 -35 -39
85 c-22 47 -97 202 -166 344 -69 142 -126 263 -126 268 0 10 62 102 315 468
70 102 188 277 263 390 74 113 156 233 180 267 l46 63 29 -43 c15 -23 82 -125
147 -226z m411 -668 c23 -46 70 -129 186 -328 60 -104 139 -245 176 -312 37
-66 112 -197 168 -290 104 -171 162 -271 464 -798 95 -165 215 -374 267 -465
52 -91 105 -184 117 -207 l21 -43 -424 0 c-233 0 -431 -3 -440 -6 -12 -5 -40
44 -130 227 -106 218 -357 672 -393 712 -15 16 -49 17 -437 17 -263 0 -435 -4
-459 -11 -31 -8 -43 -19 -65 -61 -36 -66 -364 -566 -538 -820 l-39 -57 -592
-1 c-326 0 -593 3 -593 7 0 3 13 27 29 52 32 52 181 292 423 681 90 146 188
304 217 353 30 48 57 87 62 87 9 0 8 1 218 -388 78 -145 159 -291 179 -325
l36 -61 10 54 c16 80 47 118 204 254 102 88 165 161 437 511 56 72 150 197
210 280 96 131 183 258 577 843 45 67 85 122 89 122 3 0 12 -12 20 -27z m192
-2115 c85 -128 162 -248 171 -265 18 -36 9 -42 -27 -19 -39 26 -146 36 -379
36 -228 0 -258 3 -257 24 0 19 317 454 331 455 3 1 76 -104 161 -231z m-5834
-693 c13 -14 59 -540 48 -552 -3 -3 -31 9 -62 25 -35 19 -83 35 -128 41 -106
16 -446 31 -687 31 l-210 0 2 -352 3 -353 319 -3 c360 -3 356 -3 410 78 30 45
51 51 62 18 7 -22 6 -649 -1 -656 -11 -11 -46 14 -73 52 -28 39 -36 44 -84 49
-69 9 -531 9 -592 1 l-46 -7 0 -393 0 -394 223 0 c288 0 657 16 727 31 45 9
63 20 95 55 26 28 53 46 74 50 l34 7 -6 -59 c-4 -32 -18 -189 -32 -349 -15
-159 -29 -292 -32 -295 -6 -6 -1825 -2 -1831 5 -3 2 14 25 37 51 74 79 83 112
93 334 5 107 8 689 6 1295 -3 1240 5 1120 -87 1234 -28 35 -51 64 -51 65 0 4
1785 -5 1789 -9z m10051 -5 c0 -6 -11 -32 -24 -58 -55 -109 -56 -119 -56 -611
0 -251 4 -460 8 -466 4 -6 102 -11 250 -12 l242 -3 0 464 c0 273 -4 485 -10
517 -6 32 -25 76 -46 107 -19 30 -34 55 -32 57 6 6 728 11 726 5 -2 -3 -19
-36 -38 -75 l-35 -70 0 -1320 c0 -1470 -4 -1386 68 -1458 21 -21 37 -40 35
-42 -6 -7 -739 -7 -745 -1 -3 3 11 38 31 78 l37 73 2 195 c1 107 1 390 0 628
l-3 432 -246 0 -246 0 5 -612 c4 -659 4 -659 58 -732 33 -45 36 -61 13 -70
-19 -7 -724 -8 -724 -1 0 3 16 25 35 50 19 25 40 62 47 83 10 29 13 321 16
1352 3 1456 7 1354 -63 1451 l-37 49 366 0 c245 0 366 -3 366 -10z m-8175
-772 c0 -117 4 -170 19 -226 10 -40 16 -75 14 -78 -3 -2 -22 9 -43 26 -63 50
-118 61 -360 70 -121 5 -264 9 -317 10 l-98 0 0 -152 c0 -84 3 -177 7 -207 l6
-53 231 4 c228 4 243 6 329 43 16 7 17 -4 17 -156 0 -90 -3 -182 -7 -203 l-6
-39 -288 7 -289 7 6 -293 c4 -161 8 -294 9 -296 1 -1 92 2 201 8 219 11 405
38 516 76 39 13 77 24 85 24 19 0 16 -34 -13 -176 -14 -69 -26 -156 -27 -193
l-2 -66 -634 -4 -635 -3 28 32 c41 50 64 101 76 171 14 90 14 1541 -1 1609 -6
30 -29 79 -56 118 -25 37 -46 69 -48 72 -2 3 198 5 443 4 377 0 765 6 822 14
13 2 15 -21 15 -150z m2588 67 c-31 -60 -37 -84 -45 -180 -5 -60 -8 -450 -6
-865 l3 -755 27 -55 c15 -30 28 -61 28 -67 0 -10 -58 -13 -255 -13 -140 0
-255 2 -255 4 0 2 13 29 29 62 17 32 35 87 41 123 7 45 10 317 8 862 l-3 796
-38 72 c-20 40 -35 76 -33 79 2 4 123 7 269 7 l265 0 -35 -70z m980 3 l-37
-73 -8 -660 c-4 -363 -4 -752 0 -865 9 -215 8 -209 64 -298 11 -18 18 -35 16
-37 -5 -5 -527 -8 -530 -3 -1 2 13 30 32 63 l35 60 0 870 0 870 -37 67 -37 68
242 3 c133 1 254 3 270 5 l27 2 -37 -72z m2547 63 c0 -2 -16 -37 -37 -77 -41
-83 -38 -51 -46 -526 l-4 -198 289 0 289 0 -3 323 c-3 309 -4 324 -26 382 -13
33 -26 68 -29 78 -5 17 7 18 241 15 135 -1 246 -3 246 -3 0 -1 -12 -35 -27
-76 l-28 -74 -3 -833 -3 -833 36 -78 c19 -43 35 -84 35 -90 0 -8 -72 -11 -250
-11 -276 0 -267 -2 -233 63 38 75 43 122 43 460 l0 327 -290 0 -290 0 1 -222
c0 -123 4 -285 8 -360 8 -135 8 -138 44 -197 20 -32 37 -63 37 -68 0 -4 -113
-8 -252 -8 -198 1 -252 3 -256 14 -2 7 8 35 23 63 21 38 29 71 36 146 4 53 8
439 8 857 l1 760 -29 82 c-16 45 -25 83 -20 85 13 4 489 4 489 -1z m-5430 -23
c11 -13 36 -44 57 -70 74 -92 288 -344 348 -408 33 -36 139 -153 237 -260 97
-107 199 -217 226 -243 l49 -48 6 38 c11 62 8 608 -4 736 -12 137 -17 154 -70
225 l-40 52 206 0 c113 0 205 -2 205 -4 0 -2 -7 -19 -15 -38 -32 -77 -35 -166
-35 -1050 0 -489 -4 -888 -9 -888 -4 0 -31 35 -59 78 -28 43 -99 133 -159 199
-316 351 -681 772 -790 911 -18 23 -19 11 -21 -440 -3 -540 3 -621 48 -702 18
-31 31 -59 29 -60 -2 -2 -114 -5 -249 -7 -236 -4 -245 -3 -242 15 2 11 10 29
17 40 7 12 21 46 31 76 17 51 18 123 22 896 l3 840 -35 67 -35 67 130 0 c123
0 132 -1 149 -22z m4665 -85 c3 -60 10 -121 15 -138 8 -26 14 -94 11 -118 -1
-4 -14 -1 -31 8 -23 12 -72 15 -255 15 l-225 0 0 -737 c0 -406 4 -755 9 -776
5 -21 25 -61 45 -90 20 -29 36 -54 36 -57 0 -6 -543 -1 -549 5 -2 2 10 26 27
52 17 26 35 66 41 88 7 27 11 280 11 781 l0 741 -135 -3 c-74 -2 -196 -6 -271
-8 l-136 -4 6 27 c3 14 12 78 21 141 9 63 18 130 21 148 l5 32 673 0 674 0 7
-107z m724 -2459 c2 -2 1 -10 -2 -19 -6 -13 -323 -15 -3129 -14 -1718 0 -3141
3 -3162 7 -22 4 -41 13 -44 20 -3 9 352 12 1725 14 1767 3 4605 -2 4612 -8z
m-8483 -359 c223 -572 350 -825 582 -1160 83 -119 320 -428 404 -526 437 -510
1008 -966 1653 -1321 295 -163 749 -344 1120 -448 225 -63 651 -143 926 -175
641 -72 1337 -15 2049 171 373 97 626 192 995 374 255 126 436 231 720 415
231 150 665 504 830 676 528 553 883 1081 1188 1764 47 105 104 243 127 309
23 65 44 124 47 132 4 10 23 14 65 14 l60 0 -7 -32 c-52 -241 -340 -868 -567
-1233 -229 -367 -544 -771 -808 -1035 -128 -129 -394 -357 -592 -508 -164
-125 -466 -327 -628 -419 -368 -211 -885 -431 -1262 -537 -647 -182 -1050
-241 -1658 -241 -336 0 -470 9 -795 56 -663 95 -1278 296 -1861 606 -528 281
-903 551 -1312 946 -268 258 -377 378 -614 682 -260 334 -496 736 -671 1145
-86 203 -187 518 -187 588 0 21 4 23 47 20 l47 -3 102 -260z m10413 152 c-42
-164 -210 -539 -368 -820 -77 -138 -325 -524 -399 -622 -327 -431 -771 -861
-1191 -1154 -520 -363 -1106 -646 -1701 -822 -36 -11 -141 -37 -235 -58 -419
-97 -737 -138 -1150 -148 -1042 -25 -2026 245 -2942 808 -336 206 -478 311
-763 560 -214 187 -313 286 -495 495 -249 285 -459 569 -607 824 -188 323
-288 539 -394 855 -51 151 -53 168 -22 163 17 -2 26 -19 48 -88 106 -335 327
-792 533 -1100 118 -176 353 -483 461 -600 28 -31 103 -114 166 -184 142 -159
474 -457 670 -602 425 -312 919 -582 1402 -765 605 -229 1355 -348 2007 -319
236 11 504 33 606 51 226 38 587 116 720 154 319 92 747 270 1082 451 214 115
252 138 458 273 208 135 344 241 630 492 245 214 600 617 782 889 185 276 341
547 468 814 61 127 155 351 155 369 0 4 11 32 24 60 13 29 27 63 31 77 9 28
26 43 37 32 4 -4 -2 -42 -13 -85z m-8451 -473 l32 -5 0 -91 c0 -89 0 -90 -22
-83 -94 29 -155 37 -209 26 -142 -30 -209 -129 -209 -310 0 -144 41 -221 139
-258 62 -24 203 -24 247 0 31 16 32 16 38 -6 9 -35 7 -165 -3 -172 -23 -13
-202 -17 -263 -6 -134 27 -274 116 -319 203 -75 148 -57 407 37 534 107 145
294 204 532 168z m1017 5 c203 -37 315 -197 316 -449 1 -213 -89 -373 -239
-430 -161 -61 -330 -38 -436 60 -101 93 -146 204 -146 359 0 329 205 516 505
460z m1133 -4 c12 -3 22 -13 22 -22 0 -16 129 -271 156 -308 14 -19 14 -19 28
1 8 10 49 89 92 174 42 85 82 158 88 162 6 4 58 8 116 8 l105 0 0 -471 0 -471
-59 6 c-32 3 -76 6 -97 6 l-39 0 0 306 0 306 -74 -148 c-127 -256 -144 -256
-282 1 -95 177 -86 194 -82 -162 l4 -313 -100 0 -101 0 1 463 c0 254 1 464 2
467 2 6 188 2 220 -5z m1703 -10 c182 -65 232 -309 95 -462 -73 -81 -164 -113
-319 -113 l-68 0 3 -164 3 -164 -35 -6 c-19 -3 -68 -6 -107 -6 l-73 0 0 465 0
464 103 4 c189 7 349 0 398 -18z m1196 16 c6 -3 30 -69 55 -146 25 -77 69
-203 98 -280 28 -77 75 -208 105 -291 29 -83 58 -161 65 -174 17 -31 8 -35
-104 -38 -111 -4 -96 -19 -146 146 l-31 102 -166 -2 -166 -3 -36 -120 -36
-120 -111 -3 -112 -3 60 153 c48 126 270 730 284 776 3 10 32 12 117 11 63 0
119 -4 124 -8z m1181 -168 c49 -98 93 -177 98 -177 4 1 40 59 79 128 39 70 86
148 105 174 l35 47 83 3 c45 2 89 -1 97 -5 11 -7 -15 -57 -126 -243 -78 -129
-148 -248 -158 -265 -13 -25 -16 -62 -16 -222 l1 -193 -36 -1 c-19 -1 -66 -2
-105 -3 l-70 -1 0 200 0 200 -61 100 c-33 55 -92 154 -129 220 -38 66 -83 141
-102 168 l-33 47 124 0 124 0 90 -177z"/>
<path d="M11240 5288 c-56 -28 -93 -87 -117 -182 -14 -59 -15 -82 -6 -156 6
-48 20 -105 32 -127 41 -82 132 -133 210 -118 49 9 108 41 125 68 65 98 73
317 16 427 -51 99 -163 137 -260 88z"/>
<path d="M13994 5309 c-18 -22 -25 -107 -18 -203 l7 -89 65 6 c78 8 148 39
167 76 21 42 28 122 13 151 -19 35 -75 59 -155 66 -52 5 -71 3 -79 -7z"/>
<path d="M15335 5269 c-22 -63 -115 -331 -115 -335 0 -2 50 -4 111 -4 l111 0
-7 33 c-8 40 -86 311 -91 316 -2 2 -6 -2 -9 -10z"/>
</g>
</svg>
